<ttFont>
<head>
    <!-- Most of this table will be recalculated by the compiler -->
    <tableVersion value="1.0"/>
    <fontRevision value="3.001"/>
    <checkSumAdjustment value="0xfd7aab64"/>
    <magicNumber value="0x5f0f3cf5"/>
    <flags value="00000000 00000110"/>
    <unitsPerEm value="2048"/>
    <created value="Mon Oct 23 16:00:00 2017"/>
    <modified value="Tue Jan 23 01:00:09 2018"/>
    <xMin value="-1483"/>
    <yMin value="-807"/>
    <xMax value="1456"/>
    <yMax value="2001"/>
    <macStyle value="00000000 00000001"/>
    <lowestRecPPEM value="6"/>
    <fontDirectionHint value="2"/>
    <indexToLocFormat value="1"/>
    <glyphDataFormat value="0"/>
  </head>
    <TTGlyph name=".notdef" xMin="104" yMin="-362" xMax="1128" yMax="1444">
      <contour>
        <pt x="104" y="1444" on="1"/>
        <pt x="1128" y="1444" on="1"/>
        <pt x="1128" y="-362" on="1"/>
        <pt x="104" y="-362" on="1"/>
      </contour>
      <contour>
        <pt x="1014" y="-248" on="1"/>
        <pt x="1014" y="1329" on="1"/>
        <pt x="219" y="1329" on="1"/>
        <pt x="219" y="-248" on="1"/>
      </contour>
    </TTGlyph>
    <TTGlyph name="c6459" xMin="301" yMin="1280" xMax="932" yMax="1526">
      <contour>
        <pt x="331" y="1280" on="1"/>
        <pt x="301" y="1280" on="0"/>
        <pt x="301" y="1310" on="1"/>
        <pt x="301" y="1496" on="1"/>
        <pt x="301" y="1526" on="0"/>
        <pt x="331" y="1526" on="1"/>
        <pt x="507" y="1526" on="1"/>
        <pt x="537" y="1526" on="0"/>
        <pt x="537" y="1496" on="1"/>
        <pt x="537" y="1310" on="1"/>
        <pt x="537" y="1280" on="0"/>
        <pt x="507" y="1280" on="1"/>
      </contour>
      <contour>
        <pt x="726" y="1280" on="1"/>
        <pt x="696" y="1280" on="0"/>
        <pt x="696" y="1310" on="1"/>
        <pt x="696" y="1496" on="1"/>
        <pt x="696" y="1526" on="0"/>
        <pt x="726" y="1526" on="1"/>
        <pt x="902" y="1526" on="1"/>
        <pt x="932" y="1526" on="0"/>
        <pt x="932" y="1496" on="1"/>
        <pt x="932" y="1310" on="1"/>
        <pt x="932" y="1280" on="0"/>
        <pt x="902" y="1280" on="1"/>
      </contour>
    </TTGlyph>
    <TTGlyph name="c6460" xMin="469" yMin="1262" xMax="952" yMax="1526">
      <contour>
        <pt x="668" y="1526" on="1"/>
        <pt x="952" y="1526" on="1"/>
        <pt x="666" y="1262" on="1"/>
        <pt x="469" y="1262" on="1"/>
      </contour>
    </TTGlyph>
    <TTGlyph name="c6461" xMin="268" yMin="1262" xMax="965" yMax="1528">
      <contour>
        <pt x="268" y="1292" on="1"/>
        <pt x="268" y="1347" on="0"/>
        <pt x="297" y="1434" on="0"/>
        <pt x="322" y="1463" on="1"/>
        <pt x="350" y="1496" on="0"/>
        <pt x="425" y="1528" on="0"/>
        <pt x="466" y="1528" on="1"/>
        <pt x="502" y="1528" on="0"/>
        <pt x="539" y="1516" on="1"/>
        <pt x="576" y="1504" on="0"/>
        <pt x="614" y="1479" on="1"/>
        <pt x="674" y="1440" on="1"/>
        <pt x="696" y="1427" on="0"/>
        <pt x="715" y="1419" on="1"/>
        <pt x="736" y="1411" on="0"/>
        <pt x="750" y="1411" on="1"/>
        <pt x="786" y="1411" on="0"/>
        <pt x="806" y="1441" on="1"/>
        <pt x="825" y="1469" on="0"/>
        <pt x="825" y="1528" on="1"/>
        <pt x="965" y="1528" on="1"/>
        <pt x="965" y="1524" on="0"/>
        <pt x="963" y="1502" on="0"/>
        <pt x="963" y="1500" on="1"/>
        <pt x="963" y="1392" on="0"/>
        <pt x="910" y="1327" on="1"/>
        <pt x="881" y="1292" on="0"/>
        <pt x="809" y="1262" on="0"/>
        <pt x="768" y="1262" on="1"/>
        <pt x="734" y="1262" on="0"/>
        <pt x="696" y="1273" on="1"/>
        <pt x="657" y="1285" on="0"/>
        <pt x="618" y="1311" on="1"/>
        <pt x="564" y="1345" on="1"/>
        <pt x="552" y="1352" on="1"/>
        <pt x="531" y="1363" on="0"/>
        <pt x="496" y="1378" on="0"/>
        <pt x="479" y="1378" on="1"/>
        <pt x="448" y="1378" on="0"/>
        <pt x="428" y="1348" on="1"/>
        <pt x="408" y="1316" on="0"/>
        <pt x="408" y="1268" on="1"/>
        <pt x="408" y="1262" on="1"/>
        <pt x="268" y="1262" on="1"/>
      </contour>
    </TTGlyph>
    <TTGlyph name="c6468" xMin="283" yMin="1262" xMax="766" yMax="1526">
      <contour>
        <pt x="283" y="1526" on="1"/>
        <pt x="567" y="1526" on="1"/>
        <pt x="766" y="1262" on="1"/>
        <pt x="569" y="1262" on="1"/>
      </contour>
    </TTGlyph>
    <TTGlyph name="c6470" xMin="240" yMin="1262" xMax="993" yMax="1526">
      <contour>
        <pt x="461" y="1526" on="1"/>
        <pt x="770" y="1526" on="1"/>
        <pt x="993" y="1262" on="1"/>
        <pt x="815" y="1262" on="1"/>
        <pt x="616" y="1423" on="1"/>
        <pt x="418" y="1262" on="1"/>
        <pt x="240" y="1262" on="1"/>
      </contour>
    </TTGlyph>
    <TTGlyph name="c6472" xMin="240" yMin="1262" xMax="993" yMax="1526">
      <contour>
        <pt x="240" y="1526" on="1"/>
        <pt x="418" y="1526" on="1"/>
        <pt x="616" y="1364" on="1"/>
        <pt x="815" y="1526" on="1"/>
        <pt x="993" y="1526" on="1"/>
        <pt x="770" y="1262" on="1"/>
        <pt x="461" y="1262" on="1"/>
      </contour>
    </TTGlyph>
    <TTGlyph name="c6475" xMin="281" yMin="1262" xMax="952" yMax="1526">
      <contour>
        <pt x="616" y="1262" on="1"/>
        <pt x="469" y="1262" on="0"/>
        <pt x="383" y="1330" on="1"/>
        <pt x="341" y="1362" on="0"/>
        <pt x="289" y="1457" on="0"/>
        <pt x="281" y="1526" on="1"/>
        <pt x="422" y="1526" on="1"/>
        <pt x="442" y="1468" on="0"/>
        <pt x="491" y="1436" on="1"/>
        <pt x="540" y="1405" on="0"/>
        <pt x="616" y="1405" on="1"/>
        <pt x="693" y="1405" on="0"/>
        <pt x="741" y="1435" on="1"/>
        <pt x="789" y="1466" on="0"/>
        <pt x="809" y="1526" on="1"/>
        <pt x="952" y="1526" on="1"/>
        <pt x="937" y="1398" on="0"/>
        <pt x="851" y="1330" on="1"/>
        <pt x="806" y="1295" on="0"/>
        <pt x="687" y="1262" on="0"/>
      </contour>
    </TTGlyph>
    <TTGlyph name="c6476" xMin="479" yMin="1280" xMax="754" yMax="1526">
      <contour>
        <pt x="509" y="1280" on="1"/>
        <pt x="479" y="1280" on="0"/>
        <pt x="479" y="1310" on="1"/>
        <pt x="479" y="1496" on="1"/>
        <pt x="479" y="1526" on="0"/>
        <pt x="509" y="1526" on="1"/>
        <pt x="724" y="1526" on="1"/>
        <pt x="754" y="1526" on="0"/>
        <pt x="754" y="1496" on="1"/>
        <pt x="754" y="1310" on="1"/>
        <pt x="754" y="1280" on="0"/>
        <pt x="724" y="1280" on="1"/>
      </contour>
    </TTGlyph>
    <TTGlyph name="c6477" xMin="47" yMin="500" xMax="1143" yMax="881">
      <contour>
        <pt x="47" y="618" on="1"/>
        <pt x="1106" y="881" on="1"/>
        <pt x="1143" y="762" on="1"/>
        <pt x="84" y="500" on="1"/>
      </contour>
    </TTGlyph>
    <TTGlyph name="c6478" xMin="246" yMin="668" xMax="934" yMax="1503">
      <contour>
        <pt x="639" y="848" on="1"/>
        <pt x="246" y="848" on="1"/>
        <pt x="246" y="1010" on="1"/>
        <pt x="621" y="1503" on="1"/>
        <pt x="825" y="1503" on="1"/>
        <pt x="825" y="991" on="1"/>
        <pt x="934" y="991" on="1"/>
        <pt x="934" y="848" on="1"/>
        <pt x="825" y="848" on="1"/>
        <pt x="825" y="668" on="1"/>
        <pt x="639" y="668" on="1"/>
      </contour>
      <contour>
        <pt x="639" y="991" on="1"/>
        <pt x="639" y="1321" on="1"/>
        <pt x="389" y="991" on="1"/>
      </contour>
    </TTGlyph>
    <TTGlyph name="uni0021" xMin="441" yMin="-72" xMax="789" yMax="1508">
      <contour>
        <pt x="470" y="1052" on="1"/>
        <pt x="470" y="1508" on="1"/>
        <pt x="755" y="1508" on="1"/>
        <pt x="755" y="1052" on="1"/>
        <pt x="687" y="476" on="1"/>
        <pt x="548" y="476" on="1"/>
      </contour>
      <contour>
        <pt x="615" y="-72" on="1"/>
        <pt x="577" y="-72" on="0"/>
        <pt x="514" y="-44" on="0"/>
        <pt x="491" y="-21" on="1"/>
        <pt x="441" y="29" on="0"/>
        <pt x="441" y="113" on="1"/>
        <pt x="441" y="194" on="0"/>
        <pt x="491" y="244" on="1"/>
        <pt x="502" y="255" on="0"/>
        <pt x="508" y="260" on="0"/>
        <pt x="512" y="264" on="1"/>
        <pt x="523" y="272" on="0"/>
        <pt x="535" y="278" on="1"/>
        <pt x="537" y="279" on="0"/>
        <pt x="554" y="286" on="0"/>
        <pt x="560" y="288" on="1"/>
        <pt x="586" y="294" on="1"/>
        <pt x="602" y="296" on="0"/>
        <pt x="617" y="296" on="1"/>
        <pt x="691" y="296" on="0"/>
        <pt x="740" y="245" on="1"/>
        <pt x="789" y="196" on="0"/>
        <pt x="789" y="112" on="1"/>
        <pt x="789" y="91" on="0"/>
        <pt x="784" y="63" on="1"/>
        <pt x="780" y="41" on="0"/>
        <pt x="767" y="18" on="1"/>
        <pt x="761" y="7" on="0"/>
        <pt x="751" y="-7" on="0"/>
        <pt x="739" y="-20" on="1"/>
        <pt x="713" y="-47" on="0"/>
        <pt x="683" y="-59" on="1"/>
        <pt x="666" y="-67" on="0"/>
        <pt x="632" y="-72" on="0"/>
      </contour>
    </TTGlyph>
    <TTGlyph name="uni0022" xMin="231" yMin="938" xMax="999" yMax="1493">
      <contour>
        <pt x="231" y="1493" on="1"/>
        <pt x="487" y="1493" on="1"/>
        <pt x="487" y="938" on="1"/>
        <pt x="231" y="938" on="1"/>
      </contour>
      <contour>
        <pt x="743" y="1493" on="1"/>
        <pt x="999" y="1493" on="1"/>
        <pt x="999" y="938" on="1"/>
        <pt x="743" y="938" on="1"/>
      </contour>
    </TTGlyph>
    <TTGlyph name="uni0023" xMin="2" yMin="0" xMax="1229" yMax="1470">
      <contour>
        <pt x="209" y="373" on="1"/>
        <pt x="2" y="373" on="1"/>
        <pt x="2" y="588" on="1"/>
        <pt x="262" y="588" on="1"/>
        <pt x="336" y="881" on="1"/>
        <pt x="117" y="881" on="1"/>
        <pt x="117" y="1096" on="1"/>
        <pt x="391" y="1096" on="1"/>
        <pt x="485" y="1470" on="1"/>
        <pt x="707" y="1470" on="1"/>
        <pt x="612" y="1096" on="1"/>
        <pt x="815" y="1096" on="1"/>
        <pt x="909" y="1470" on="1"/>
        <pt x="1133" y="1470" on="1"/>
        <pt x="1036" y="1096" on="1"/>
        <pt x="1229" y="1096" on="1"/>
        <pt x="1229" y="881" on="1"/>
        <pt x="983" y="881" on="1"/>
        <pt x="909" y="588" on="1"/>
        <pt x="1114" y="588" on="1"/>
        <pt x="1114" y="373" on="1"/>
        <pt x="856" y="373" on="1"/>
        <pt x="762" y="0" on="1"/>
        <pt x="541" y="0" on="1"/>
        <pt x="635" y="373" on="1"/>
        <pt x="430" y="373" on="1"/>
        <pt x="336" y="0" on="1"/>
        <pt x="115" y="0" on="1"/>
      </contour>
      <contour>
        <pt x="688" y="588" on="1"/>
        <pt x="762" y="881" on="1"/>
        <pt x="557" y="881" on="1"/>
        <pt x="483" y="588" on="1"/>
      </contour>
    </TTGlyph>
    <TTGlyph name="uni0024" xMin="164" yMin="-301" xMax="1092" yMax="1556">
      <contour>
        <pt x="512" y="0" on="1"/>
        <pt x="471" y="3" on="0"/>
        <pt x="370" y="26" on="1"/>
        <pt x="276" y="48" on="0"/>
        <pt x="172" y="92" on="1"/>
        <pt x="172" y="354" on="1"/>
        <pt x="275" y="293" on="0"/>
        <pt x="372" y="260" on="1"/>
        <pt x="468" y="228" on="0"/>
        <pt x="553" y="226" on="1"/>
        <pt x="553" y="555" on="1"/>
        <pt x="356" y="594" on="0"/>
        <pt x="260" y="690" on="1"/>
        <pt x="164" y="784" on="0"/>
        <pt x="164" y="943" on="1"/>
        <pt x="164" y="1109" on="0"/>
        <pt x="266" y="1208" on="1"/>
        <pt x="368" y="1307" on="0"/>
        <pt x="513" y="1319" on="1"/>
        <pt x="513" y="1556" on="1"/>
        <pt x="734" y="1556" on="1"/>
        <pt x="735" y="1319" on="1"/>
        <pt x="766" y="1314" on="0"/>
        <pt x="843" y="1301" on="1"/>
        <pt x="877" y="1295" on="0"/>
        <pt x="954" y="1276" on="0"/>
        <pt x="999" y="1262" on="1"/>
        <pt x="999" y="1006" on="1"/>
        <pt x="966" y="1028" on="0"/>
        <pt x="895" y="1059" on="0"/>
        <pt x="861" y="1070" on="1"/>
        <pt x="782" y="1094" on="0"/>
        <pt x="694" y="1100" on="1"/>
        <pt x="694" y="793" on="1"/>
        <pt x="892" y="762" on="0"/>
        <pt x="992" y="659" on="1"/>
        <pt x="1092" y="558" on="0"/>
        <pt x="1092" y="386" on="1"/>
        <pt x="1092" y="300" on="0"/>
        <pt x="1038" y="167" on="0"/>
        <pt x="984" y="114" on="1"/>
        <pt x="923" y="55" on="0"/>
        <pt x="776" y="5" on="0"/>
        <pt x="735" y="0" on="1"/>
        <pt x="734" y="-301" on="1"/>
        <pt x="513" y="-301" on="1"/>
      </contour>
      <contour>
        <pt x="553" y="1100" on="1"/>
        <pt x="490" y="1092" on="0"/>
        <pt x="460" y="1059" on="1"/>
        <pt x="446" y="1045" on="0"/>
        <pt x="428" y="999" on="0"/>
        <pt x="428" y="967" on="1"/>
        <pt x="428" y="910" on="0"/>
        <pt x="460" y="872" on="1"/>
        <pt x="492" y="834" on="0"/>
        <pt x="553" y="817" on="1"/>
      </contour>
      <contour>
        <pt x="694" y="226" on="1"/>
        <pt x="730" y="231" on="0"/>
        <pt x="776" y="257" on="0"/>
        <pt x="792" y="275" on="1"/>
        <pt x="827" y="316" on="0"/>
        <pt x="827" y="376" on="1"/>
        <pt x="827" y="437" on="0"/>
        <pt x="793" y="477" on="1"/>
        <pt x="777" y="495" on="0"/>
        <pt x="729" y="521" on="0"/>
        <pt x="694" y="528" on="1"/>
      </contour>
    </TTGlyph>
    <TTGlyph name="uni0025" xMin="33" yMin="0" xMax="1219" yMax="1432">
      <contour>
        <pt x="352" y="793" on="1"/>
        <pt x="219" y="793" on="0"/>
        <pt x="126" y="886" on="1"/>
        <pt x="81" y="931" on="0"/>
        <pt x="33" y="1042" on="0"/>
        <pt x="33" y="1112" on="1"/>
        <pt x="33" y="1246" on="0"/>
        <pt x="126" y="1339" on="1"/>
        <pt x="219" y="1432" on="0"/>
        <pt x="352" y="1432" on="1"/>
        <pt x="442" y="1432" on="0"/>
        <pt x="587" y="1347" on="0"/>
        <pt x="672" y="1202" on="0"/>
        <pt x="672" y="1112" on="1"/>
        <pt x="672" y="979" on="0"/>
        <pt x="579" y="886" on="1"/>
        <pt x="486" y="793" on="0"/>
      </contour>
      <contour>
        <pt x="352" y="975" on="1"/>
        <pt x="410" y="975" on="0"/>
        <pt x="450" y="1015" on="1"/>
        <pt x="489" y="1054" on="0"/>
        <pt x="489" y="1112" on="1"/>
        <pt x="489" y="1169" on="0"/>
        <pt x="409" y="1249" on="0"/>
        <pt x="352" y="1249" on="1"/>
        <pt x="296" y="1249" on="0"/>
        <pt x="255" y="1210" on="1"/>
        <pt x="215" y="1170" on="0"/>
        <pt x="215" y="1112" on="1"/>
        <pt x="215" y="1079" on="0"/>
        <pt x="237" y="1033" on="0"/>
        <pt x="255" y="1015" on="1"/>
        <pt x="295" y="975" on="0"/>
      </contour>
      <contour>
        <pt x="48" y="561" on="1"/>
        <pt x="1191" y="997" on="1"/>
        <pt x="1191" y="883" on="1"/>
        <pt x="52" y="451" on="1"/>
      </contour>
      <contour>
        <pt x="898" y="0" on="1"/>
        <pt x="827" y="0" on="0"/>
        <pt x="711" y="53" on="0"/>
        <pt x="672" y="92" on="1"/>
        <pt x="624" y="140" on="0"/>
        <pt x="580" y="259" on="0"/>
        <pt x="580" y="321" on="1"/>
        <pt x="580" y="451" on="0"/>
        <pt x="672" y="546" on="1"/>
        <pt x="762" y="639" on="0"/>
        <pt x="898" y="639" on="1"/>
        <pt x="1031" y="639" on="0"/>
        <pt x="1125" y="547" on="1"/>
        <pt x="1168" y="505" on="0"/>
        <pt x="1219" y="389" on="0"/>
        <pt x="1219" y="320" on="1"/>
        <pt x="1219" y="186" on="0"/>
        <pt x="1126" y="93" on="1"/>
        <pt x="1084" y="51" on="0"/>
        <pt x="966" y="0" on="0"/>
      </contour>
      <contour>
        <pt x="898" y="182" on="1"/>
        <pt x="956" y="182" on="0"/>
        <pt x="1036" y="262" on="0"/>
        <pt x="1036" y="319" on="1"/>
        <pt x="1036" y="376" on="0"/>
        <pt x="995" y="417" on="1"/>
        <pt x="955" y="457" on="0"/>
        <pt x="898" y="457" on="1"/>
        <pt x="841" y="457" on="0"/>
        <pt x="801" y="417" on="1"/>
        <pt x="762" y="378" on="0"/>
        <pt x="762" y="319" on="1"/>
        <pt x="762" y="260" on="0"/>
        <pt x="801" y="221" on="1"/>
        <pt x="840" y="182" on="0"/>
      </contour>
    </TTGlyph>
    <TTGlyph name="uni0026" xMin="37" yMin="-29" xMax="1235" yMax="1520">
      <contour>
        <pt x="537" y="-29" on="1"/>
        <pt x="316" y="-29" on="0"/>
        <pt x="176" y="102" on="1"/>
        <pt x="37" y="232" on="0"/>
        <pt x="37" y="442" on="1"/>
        <pt x="37" y="520" on="0"/>
        <pt x="73" y="648" on="0"/>
        <pt x="108" y="706" on="1"/>
        <pt x="179" y="824" on="0"/>
        <pt x="317" y="913" on="1"/>
        <pt x="290" y="956" on="0"/>
        <pt x="254" y="1028" on="0"/>
        <pt x="243" y="1058" on="1"/>
        <pt x="219" y="1124" on="0"/>
        <pt x="219" y="1189" on="1"/>
        <pt x="219" y="1345" on="0"/>
        <pt x="328" y="1433" on="1"/>
        <pt x="438" y="1520" on="0"/>
        <pt x="643" y="1520" on="1"/>
        <pt x="681" y="1520" on="0"/>
        <pt x="751" y="1514" on="0"/>
        <pt x="786" y="1509" on="1"/>
        <pt x="858" y="1498" on="0"/>
        <pt x="924" y="1477" on="1"/>
        <pt x="924" y="1221" on="1"/>
        <pt x="796" y="1294" on="0"/>
        <pt x="663" y="1294" on="1"/>
        <pt x="583" y="1294" on="0"/>
        <pt x="543" y="1266" on="1"/>
        <pt x="502" y="1237" on="0"/>
        <pt x="502" y="1186" on="1"/>
        <pt x="502" y="1166" on="0"/>
        <pt x="516" y="1119" on="0"/>
        <pt x="533" y="1085" on="1"/>
        <pt x="563" y="1023" on="0"/>
        <pt x="631" y="920" on="1"/>
        <pt x="944" y="440" on="1"/>
        <pt x="965" y="476" on="0"/>
        <pt x="976" y="527" on="1"/>
        <pt x="987" y="582" on="0"/>
        <pt x="987" y="633" on="1"/>
        <pt x="987" y="647" on="0"/>
        <pt x="986" y="679" on="0"/>
        <pt x="985" y="692" on="1"/>
        <pt x="984" y="718" on="0"/>
        <pt x="979" y="745" on="1"/>
        <pt x="1214" y="745" on="1"/>
        <pt x="1214" y="694" on="1"/>
        <pt x="1214" y="546" on="0"/>
        <pt x="1180" y="441" on="1"/>
        <pt x="1146" y="331" on="0"/>
        <pt x="1073" y="246" on="1"/>
        <pt x="1235" y="0" on="1"/>
        <pt x="918" y="0" on="1"/>
        <pt x="870" y="72" on="1"/>
        <pt x="831" y="46" on="0"/>
        <pt x="755" y="11" on="0"/>
        <pt x="711" y="-3" on="1"/>
        <pt x="669" y="-16" on="0"/>
        <pt x="587" y="-29" on="0"/>
      </contour>
      <contour>
        <pt x="580" y="207" on="1"/>
        <pt x="604" y="207" on="0"/>
        <pt x="636" y="214" on="1"/>
        <pt x="650" y="217" on="0"/>
        <pt x="675" y="224" on="0"/>
        <pt x="693" y="232" on="1"/>
        <pt x="701" y="236" on="1"/>
        <pt x="721" y="246" on="0"/>
        <pt x="736" y="254" on="0"/>
        <pt x="748" y="262" on="1"/>
        <pt x="440" y="731" on="1"/>
        <pt x="374" y="688" on="0"/>
        <pt x="341" y="629" on="1"/>
        <pt x="307" y="571" on="0"/>
        <pt x="307" y="494" on="1"/>
        <pt x="307" y="428" on="0"/>
        <pt x="351" y="327" on="0"/>
        <pt x="385" y="291" on="1"/>
        <pt x="464" y="207" on="0"/>
      </contour>
    </TTGlyph>
    <TTGlyph name="uni0027" xMin="487" yMin="938" xMax="743" yMax="1493">
      <contour>
        <pt x="487" y="1493" on="1"/>
        <pt x="743" y="1493" on="1"/>
        <pt x="743" y="938" on="1"/>
        <pt x="487" y="938" on="1"/>
      </contour>
    </TTGlyph>
    <TTGlyph name="uni0028" xMin="283" yMin="-270" xMax="824" yMax="1554">
      <contour>
        <pt x="596" y="-270" on="1"/>
        <pt x="522" y="-163" on="0"/>
        <pt x="402" y="64" on="0"/>
        <pt x="360" y="186" on="1"/>
        <pt x="283" y="412" on="0"/>
        <pt x="283" y="643" on="1"/>
        <pt x="283" y="874" on="0"/>
        <pt x="361" y="1101" on="1"/>
        <pt x="399" y="1211" on="0"/>
        <pt x="512" y="1433" on="0"/>
        <pt x="596" y="1554" on="1"/>
        <pt x="824" y="1554" on="1"/>
        <pt x="760" y="1438" on="0"/>
        <pt x="661" y="1206" on="0"/>
        <pt x="628" y="1091" on="1"/>
        <pt x="564" y="871" on="0"/>
        <pt x="564" y="643" on="1"/>
        <pt x="564" y="418" on="0"/>
        <pt x="628" y="196" on="1"/>
        <pt x="692" y="-29" on="0"/>
        <pt x="824" y="-270" on="1"/>
      </contour>
    </TTGlyph>
    <TTGlyph name="uni0029" xMin="409" yMin="-270" xMax="950" yMax="1554">
      <contour>
        <pt x="409" y="-270" on="1"/>
        <pt x="541" y="-29" on="0"/>
        <pt x="605" y="196" on="1"/>
        <pt x="669" y="418" on="0"/>
        <pt x="669" y="643" on="1"/>
        <pt x="669" y="871" on="0"/>
        <pt x="605" y="1091" on="1"/>
        <pt x="573" y="1201" on="0"/>
        <pt x="476" y="1433" on="0"/>
        <pt x="409" y="1554" on="1"/>
        <pt x="637" y="1554" on="1"/>
        <pt x="797" y="1323" on="0"/>
        <pt x="873" y="1101" on="1"/>
        <pt x="912" y="987" on="0"/>
        <pt x="950" y="754" on="0"/>
        <pt x="950" y="641" on="1"/>
        <pt x="950" y="412" on="0"/>
        <pt x="873" y="186" on="1"/>
        <pt x="833" y="69" on="0"/>
        <pt x="716" y="-155" on="0"/>
        <pt x="637" y="-270" on="1"/>
      </contour>
    </TTGlyph>
    <TTGlyph name="uni002A" xMin="97" yMin="360" xMax="1131" yMax="1420">
      <contour>
        <pt x="216" y="455" on="1"/>
        <pt x="455" y="821" on="1"/>
        <pt x="97" y="976" on="1"/>
        <pt x="148" y="1124" on="1"/>
        <pt x="517" y="1004" on="1"/>
        <pt x="536" y="1420" on="1"/>
        <pt x="692" y="1420" on="1"/>
        <pt x="711" y="1004" on="1"/>
        <pt x="1080" y="1124" on="1"/>
        <pt x="1131" y="976" on="1"/>
        <pt x="773" y="821" on="1"/>
        <pt x="1012" y="455" on="1"/>
        <pt x="879" y="360" on="1"/>
        <pt x="614" y="710" on="1"/>
        <pt x="349" y="360" on="1"/>
      </contour>
    </TTGlyph>
    <TTGlyph name="uni002B" xMin="66" yMin="92" xMax="1165" yMax="1192">
      <contour>
        <pt x="498" y="524" on="1"/>
        <pt x="66" y="524" on="1"/>
        <pt x="66" y="762" on="1"/>
        <pt x="498" y="762" on="1"/>
        <pt x="498" y="1192" on="1"/>
        <pt x="735" y="1192" on="1"/>
        <pt x="735" y="762" on="1"/>
        <pt x="1165" y="762" on="1"/>
        <pt x="1165" y="524" on="1"/>
        <pt x="735" y="524" on="1"/>
        <pt x="735" y="92" on="1"/>
        <pt x="498" y="92" on="1"/>
      </contour>
    </TTGlyph>
    <TTGlyph name="uni002C" xMin="380" yMin="-406" xMax="813" yMax="364">
      <contour>
        <pt x="380" y="-275" on="1"/>
        <pt x="394" y="-269" on="1"/>
        <pt x="496" y="-225" on="0"/>
        <pt x="628" y="-71" on="0"/>
        <pt x="636" y="34" on="1"/>
        <pt x="629" y="33" on="0"/>
        <pt x="618" y="32" on="0"/>
        <pt x="609" y="32" on="1"/>
        <pt x="539" y="32" on="0"/>
        <pt x="492" y="75" on="1"/>
        <pt x="469" y="95" on="0"/>
        <pt x="443" y="153" on="0"/>
        <pt x="443" y="196" on="1"/>
        <pt x="443" y="222" on="0"/>
        <pt x="449" y="244" on="1"/>
        <pt x="456" y="270" on="0"/>
        <pt x="473" y="302" on="0"/>
        <pt x="494" y="319" on="1"/>
        <pt x="523" y="343" on="0"/>
        <pt x="551" y="353" on="1"/>
        <pt x="582" y="364" on="0"/>
        <pt x="618" y="364" on="1"/>
        <pt x="635" y="364" on="0"/>
        <pt x="662" y="360" on="0"/>
        <pt x="676" y="356" on="1"/>
        <pt x="702" y="349" on="0"/>
        <pt x="726" y="331" on="1"/>
        <pt x="747" y="315" on="0"/>
        <pt x="764" y="289" on="1"/>
        <pt x="813" y="219" on="0"/>
        <pt x="813" y="93" on="1"/>
        <pt x="813" y="6" on="0"/>
        <pt x="789" y="-71" on="1"/>
        <pt x="778" y="-106" on="0"/>
        <pt x="744" y="-176" on="0"/>
        <pt x="718" y="-211" on="1"/>
        <pt x="669" y="-278" on="0"/>
        <pt x="536" y="-369" on="0"/>
        <pt x="451" y="-401" on="1"/>
        <pt x="438" y="-406" on="1"/>
      </contour>
    </TTGlyph>
    <TTGlyph name="uni002D" xMin="221" yMin="455" xMax="1012" yMax="746">
      <contour>
        <pt x="221" y="746" on="1"/>
        <pt x="1012" y="746" on="1"/>
        <pt x="1012" y="455" on="1"/>
        <pt x="221" y="455" on="1"/>
      </contour>
    </TTGlyph>
    <TTGlyph name="uni002E" xMin="436" yMin="-42" xMax="790" yMax="326">
      <contour>
        <pt x="612" y="-42" on="1"/>
        <pt x="573" y="-42" on="0"/>
        <pt x="513" y="-15" on="0"/>
        <pt x="488" y="10" on="1"/>
        <pt x="436" y="62" on="0"/>
        <pt x="436" y="141" on="1"/>
        <pt x="436" y="223" on="0"/>
        <pt x="488" y="275" on="1"/>
        <pt x="539" y="326" on="0"/>
        <pt x="613" y="326" on="1"/>
        <pt x="688" y="326" on="0"/>
        <pt x="739" y="275" on="1"/>
        <pt x="790" y="224" on="0"/>
        <pt x="790" y="141" on="1"/>
        <pt x="790" y="61" on="0"/>
        <pt x="739" y="10" on="1"/>
        <pt x="687" y="-42" on="0"/>
      </contour>
    </TTGlyph>
    <TTGlyph name="uni002F" xMin="113" yMin="-190" xMax="1120" yMax="1493">
      <contour>
        <pt x="899" y="1493" on="1"/>
        <pt x="1120" y="1493" on="1"/>
        <pt x="334" y="-190" on="1"/>
        <pt x="113" y="-190" on="1"/>
      </contour>
    </TTGlyph>
    <TTGlyph name="uni0030" xMin="123" yMin="-29" xMax="1110" yMax="1520">
      <contour>
        <pt x="617" y="-29" on="1"/>
        <pt x="369" y="-29" on="0"/>
        <pt x="246" y="165" on="1"/>
        <pt x="123" y="358" on="0"/>
        <pt x="123" y="745" on="1"/>
        <pt x="123" y="1134" on="0"/>
        <pt x="246" y="1327" on="1"/>
        <pt x="369" y="1520" on="0"/>
        <pt x="616" y="1520" on="1"/>
        <pt x="864" y="1520" on="0"/>
        <pt x="987" y="1327" on="1"/>
        <pt x="1110" y="1134" on="0"/>
        <pt x="1110" y="745" on="1"/>
        <pt x="1110" y="-29" on="0"/>
      </contour>
      <contour>
        <pt x="616" y="221" on="1"/>
        <pt x="719" y="221" on="0"/>
        <pt x="766" y="346" on="1"/>
        <pt x="813" y="473" on="0"/>
        <pt x="813" y="745" on="1"/>
        <pt x="813" y="1018" on="0"/>
        <pt x="766" y="1145" on="1"/>
        <pt x="719" y="1270" on="0"/>
        <pt x="616" y="1270" on="1"/>
        <pt x="514" y="1270" on="0"/>
        <pt x="467" y="1145" on="1"/>
        <pt x="420" y="1018" on="0"/>
        <pt x="420" y="745" on="1"/>
        <pt x="420" y="473" on="0"/>
        <pt x="467" y="346" on="1"/>
        <pt x="514" y="221" on="0"/>
      </contour>
      <contour>
        <pt x="617" y="460" on="1"/>
        <pt x="600" y="460" on="0"/>
        <pt x="582" y="533" on="0"/>
        <pt x="576" y="578" on="1"/>
        <pt x="572" y="616" on="0"/>
        <pt x="564" y="721" on="0"/>
        <pt x="564" y="749" on="1"/>
        <pt x="564" y="768" on="0"/>
        <pt x="568" y="869" on="0"/>
        <pt x="574" y="915" on="1"/>
        <pt x="588" y="1032" on="0"/>
        <pt x="615" y="1032" on="1"/>
        <pt x="630" y="1032" on="0"/>
        <pt x="652" y="965" on="0"/>
        <pt x="658" y="913" on="1"/>
        <pt x="662" y="871" on="0"/>
        <pt x="669" y="770" on="0"/>
        <pt x="669" y="743" on="1"/>
        <pt x="669" y="726" on="0"/>
        <pt x="666" y="628" on="0"/>
        <pt x="660" y="579" on="1"/>
        <pt x="647" y="460" on="0"/>
      </contour>
    </TTGlyph>
    <TTGlyph name="uni0030.subs" xMin="278" yMin="-434" xMax="954" yMax="433">
      <contour>
        <pt x="615" y="-434" on="1"/>
        <pt x="278" y="-434" on="0"/>
        <pt x="278" y="0" on="1"/>
        <pt x="278" y="433" on="0"/>
        <pt x="615" y="433" on="1"/>
        <pt x="954" y="433" on="0"/>
        <pt x="954" y="0" on="1"/>
        <pt x="954" y="-434" on="0"/>
      </contour>
      <contour>
        <pt x="616" y="-294" on="1"/>
        <pt x="687" y="-294" on="0"/>
        <pt x="718" y="-224" on="1"/>
        <pt x="750" y="-152" on="0"/>
        <pt x="750" y="-1" on="1"/>
        <pt x="750" y="150" on="0"/>
        <pt x="718" y="223" on="1"/>
        <pt x="687" y="293" on="0"/>
        <pt x="616" y="293" on="1"/>
        <pt x="577" y="293" on="0"/>
        <pt x="529" y="255" on="0"/>
        <pt x="514" y="223" on="1"/>
        <pt x="481" y="152" on="0"/>
        <pt x="481" y="-1" on="1"/>
        <pt x="481" y="-152" on="0"/>
        <pt x="514" y="-224" on="1"/>
        <pt x="529" y="-256" on="0"/>
        <pt x="577" y="-294" on="0"/>
      </contour>
      <contour>
        <pt x="616" y="-71" on="1"/>
        <pt x="580" y="-71" on="0"/>
        <pt x="555" y="-51" on="1"/>
        <pt x="531" y="-32" on="0"/>
        <pt x="531" y="-2" on="1"/>
        <pt x="531" y="29" on="0"/>
        <pt x="580" y="70" on="0"/>
        <pt x="615" y="70" on="1"/>
        <pt x="650" y="70" on="0"/>
        <pt x="701" y="29" on="0"/>
        <pt x="701" y="-1" on="1"/>
        <pt x="701" y="-30" on="0"/>
        <pt x="652" y="-71" on="0"/>
      </contour>
    </TTGlyph>
    <TTGlyph name="uni0031" xMin="154" yMin="0" xMax="1135" yMax="1493">
      <contour>
        <pt x="188" y="260" on="1"/>
        <pt x="518" y="260" on="1"/>
        <pt x="518" y="1189" on="1"/>
        <pt x="294" y="946" on="1"/>
        <pt x="154" y="1092" on="1"/>
        <pt x="520" y="1493" on="1"/>
        <pt x="805" y="1493" on="1"/>
        <pt x="805" y="260" on="1"/>
        <pt x="1135" y="260" on="1"/>
        <pt x="1135" y="0" on="1"/>
        <pt x="188" y="0" on="1"/>
      </contour>
    </TTGlyph>
    <TTGlyph name="uni0031.subs" xMin="313" yMin="-404" xMax="961" yMax="431">
      <contour>
        <pt x="313" y="-259" on="1"/>
        <pt x="539" y="-259" on="1"/>
        <pt x="539" y="284" on="1"/>
        <pt x="319" y="241" on="1"/>
        <pt x="319" y="390" on="1"/>
        <pt x="541" y="431" on="1"/>
        <pt x="735" y="431" on="1"/>
        <pt x="735" y="-259" on="1"/>
        <pt x="961" y="-259" on="1"/>
        <pt x="961" y="-404" on="1"/>
        <pt x="313" y="-404" on="1"/>
      </contour>
    </TTGlyph>
    <TTGlyph name="uni0032" xMin="115" yMin="0" xMax="1063" yMax="1520">
      <contour>
        <pt x="115" y="216" on="1"/>
        <pt x="115" y="250" on="0"/>
        <pt x="140" y="278" on="1"/>
        <pt x="275" y="422" on="1"/>
        <pt x="386" y="542" on="0"/>
        <pt x="516" y="680" on="0"/>
        <pt x="590" y="762" on="0"/>
        <pt x="621" y="796" on="1"/>
        <pt x="658" y="839" on="0"/>
        <pt x="712" y="910" on="0"/>
        <pt x="729" y="947" on="1"/>
        <pt x="762" y="1014" on="0"/>
        <pt x="762" y="1082" on="1"/>
        <pt x="762" y="1178" on="0"/>
        <pt x="640" y="1288" on="0"/>
        <pt x="530" y="1288" on="1"/>
        <pt x="447" y="1288" on="0"/>
        <pt x="353" y="1257" on="1"/>
        <pt x="304" y="1241" on="0"/>
        <pt x="201" y="1196" on="0"/>
        <pt x="147" y="1165" on="1"/>
        <pt x="147" y="1440" on="1"/>
        <pt x="207" y="1462" on="0"/>
        <pt x="315" y="1492" on="0"/>
        <pt x="357" y="1500" on="1"/>
        <pt x="460" y="1520" on="0"/>
        <pt x="557" y="1520" on="1"/>
        <pt x="666" y="1520" on="0"/>
        <pt x="855" y="1467" on="0"/>
        <pt x="926" y="1410" on="1"/>
        <pt x="990" y="1358" on="0"/>
        <pt x="1061" y="1208" on="0"/>
        <pt x="1061" y="1104" on="1"/>
        <pt x="1061" y="1022" on="0"/>
        <pt x="1031" y="943" on="1"/>
        <pt x="994" y="854" on="0"/>
        <pt x="930" y="772" on="1"/>
        <pt x="895" y="728" on="0"/>
        <pt x="761" y="588" on="0"/>
        <pt x="639" y="466" on="1"/>
        <pt x="566" y="392" on="0"/>
        <pt x="482" y="323" on="0"/>
        <pt x="430" y="287" on="0"/>
        <pt x="404" y="260" on="1"/>
        <pt x="1063" y="260" on="1"/>
        <pt x="1063" y="0" on="1"/>
        <pt x="115" y="0" on="1"/>
      </contour>
    </TTGlyph>
    <TTGlyph name="uni0032.subs" xMin="274" yMin="-400" xMax="940" yMax="452">
      <contour>
        <pt x="274" y="-259" on="1"/>
        <pt x="324" y="-216" on="0"/>
        <pt x="377" y="-172" on="0"/>
        <pt x="404" y="-150" on="0"/>
        <pt x="415" y="-141" on="1"/>
        <pt x="576" y="-8" on="0"/>
        <pt x="729" y="162" on="0"/>
        <pt x="729" y="210" on="1"/>
        <pt x="729" y="244" on="0"/>
        <pt x="649" y="312" on="0"/>
        <pt x="565" y="312" on="1"/>
        <pt x="458" y="312" on="0"/>
        <pt x="299" y="243" on="1"/>
        <pt x="299" y="407" on="1"/>
        <pt x="374" y="429" on="0"/>
        <pt x="515" y="452" on="0"/>
        <pt x="584" y="452" on="1"/>
        <pt x="757" y="452" on="0"/>
        <pt x="938" y="320" on="0"/>
        <pt x="938" y="234" on="1"/>
        <pt x="938" y="148" on="0"/>
        <pt x="759" y="-50" on="0"/>
        <pt x="583" y="-190" on="1"/>
        <pt x="500" y="-255" on="1"/>
        <pt x="940" y="-255" on="1"/>
        <pt x="940" y="-400" on="1"/>
        <pt x="274" y="-400" on="1"/>
      </contour>
    </TTGlyph>
    <TTGlyph name="uni0033" xMin="125" yMin="-29" xMax="1100" yMax="1520">
      <contour>
        <pt x="555" y="-29" on="1"/>
        <pt x="502" y="-29" on="0"/>
        <pt x="390" y="-20" on="0"/>
        <pt x="335" y="-10" on="1"/>
        <pt x="284" y="-1" on="0"/>
        <pt x="178" y="26" on="0"/>
        <pt x="125" y="45" on="1"/>
        <pt x="125" y="319" on="1"/>
        <pt x="219" y="271" on="0"/>
        <pt x="328" y="248" on="1"/>
        <pt x="385" y="235" on="0"/>
        <pt x="495" y="223" on="0"/>
        <pt x="541" y="223" on="1"/>
        <pt x="607" y="223" on="0"/>
        <pt x="711" y="249" on="0"/>
        <pt x="748" y="278" on="1"/>
        <pt x="817" y="334" on="0"/>
        <pt x="817" y="435" on="1"/>
        <pt x="817" y="542" on="0"/>
        <pt x="747" y="606" on="1"/>
        <pt x="714" y="635" on="0"/>
        <pt x="615" y="668" on="0"/>
        <pt x="549" y="668" on="1"/>
        <pt x="391" y="668" on="1"/>
        <pt x="391" y="928" on="1"/>
        <pt x="549" y="928" on="1"/>
        <pt x="658" y="928" on="0"/>
        <pt x="720" y="972" on="1"/>
        <pt x="780" y="1015" on="0"/>
        <pt x="780" y="1095" on="1"/>
        <pt x="780" y="1178" on="0"/>
        <pt x="720" y="1224" on="1"/>
        <pt x="662" y="1270" on="0"/>
        <pt x="547" y="1270" on="1"/>
        <pt x="508" y="1270" on="0"/>
        <pt x="417" y="1260" on="0"/>
        <pt x="369" y="1249" on="1"/>
        <pt x="324" y="1239" on="0"/>
        <pt x="222" y="1208" on="0"/>
        <pt x="170" y="1188" on="1"/>
        <pt x="170" y="1456" on="1"/>
        <pt x="274" y="1487" on="0"/>
        <pt x="373" y="1504" on="1"/>
        <pt x="472" y="1520" on="0"/>
        <pt x="564" y="1520" on="1"/>
        <pt x="803" y="1520" on="0"/>
        <pt x="933" y="1417" on="1"/>
        <pt x="1065" y="1314" on="0"/>
        <pt x="1065" y="1133" on="1"/>
        <pt x="1065" y="1069" on="0"/>
        <pt x="1030" y="961" on="0"/>
        <pt x="989" y="916" on="1"/>
        <pt x="913" y="831" on="0"/>
        <pt x="772" y="805" on="1"/>
        <pt x="932" y="777" on="0"/>
        <pt x="1016" y="678" on="1"/>
        <pt x="1100" y="580" on="0"/>
        <pt x="1100" y="414" on="1"/>
        <pt x="1100" y="200" on="0"/>
        <pt x="824" y="-29" on="0"/>
      </contour>
    </TTGlyph>
    <TTGlyph name="uni0033.subs" xMin="287" yMin="-415" xMax="963" yMax="452">
      <contour>
        <pt x="585" y="-415" on="1"/>
        <pt x="439" y="-415" on="0"/>
        <pt x="287" y="-374" on="1"/>
        <pt x="287" y="-220" on="1"/>
        <pt x="352" y="-248" on="0"/>
        <pt x="509" y="-275" on="0"/>
        <pt x="573" y="-275" on="1"/>
        <pt x="673" y="-275" on="0"/>
        <pt x="766" y="-212" on="0"/>
        <pt x="766" y="-155" on="1"/>
        <pt x="766" y="-94" on="0"/>
        <pt x="669" y="-26" on="0"/>
        <pt x="582" y="-26" on="1"/>
        <pt x="471" y="-26" on="1"/>
        <pt x="471" y="120" on="1"/>
        <pt x="582" y="120" on="1"/>
        <pt x="657" y="120" on="0"/>
        <pt x="741" y="169" on="0"/>
        <pt x="741" y="216" on="1"/>
        <pt x="741" y="310" on="0"/>
        <pt x="580" y="310" on="1"/>
        <pt x="532" y="310" on="0"/>
        <pt x="389" y="289" on="0"/>
        <pt x="317" y="265" on="1"/>
        <pt x="317" y="417" on="1"/>
        <pt x="457" y="452" on="0"/>
        <pt x="588" y="452" on="1"/>
        <pt x="752" y="452" on="0"/>
        <pt x="938" y="336" on="0"/>
        <pt x="938" y="236" on="1"/>
        <pt x="938" y="84" on="0"/>
        <pt x="735" y="52" on="1"/>
        <pt x="842" y="38" on="0"/>
        <pt x="963" y="-71" on="0"/>
        <pt x="963" y="-168" on="1"/>
        <pt x="963" y="-415" on="0"/>
      </contour>
    </TTGlyph>
    <TTGlyph name="uni0034" xMin="102" yMin="0" xMax="1141" yMax="1493">
      <contour>
        <pt x="694" y="322" on="1"/>
        <pt x="102" y="322" on="1"/>
        <pt x="102" y="608" on="1"/>
        <pt x="668" y="1493" on="1"/>
        <pt x="977" y="1493" on="1"/>
        <pt x="977" y="575" on="1"/>
        <pt x="1141" y="575" on="1"/>
        <pt x="1141" y="322" on="1"/>
        <pt x="977" y="322" on="1"/>
        <pt x="977" y="0" on="1"/>
        <pt x="694" y="0" on="1"/>
      </contour>
      <contour>
        <pt x="694" y="575" on="1"/>
        <pt x="694" y="1165" on="1"/>
        <pt x="317" y="575" on="1"/>
      </contour>
    </TTGlyph>
    <TTGlyph name="uni0034.subs" xMin="246" yMin="-400" xMax="934" yMax="435">
      <contour>
        <pt x="639" y="-220" on="1"/>
        <pt x="246" y="-220" on="1"/>
        <pt x="246" y="-58" on="1"/>
        <pt x="621" y="435" on="1"/>
        <pt x="825" y="435" on="1"/>
        <pt x="825" y="-77" on="1"/>
        <pt x="934" y="-77" on="1"/>
        <pt x="934" y="-220" on="1"/>
        <pt x="825" y="-220" on="1"/>
        <pt x="825" y="-400" on="1"/>
        <pt x="639" y="-400" on="1"/>
      </contour>
      <contour>
        <pt x="639" y="-77" on="1"/>
        <pt x="639" y="253" on="1"/>
        <pt x="389" y="-77" on="1"/>
      </contour>
    </TTGlyph>
    <TTGlyph name="uni0035" xMin="143" yMin="-29" xMax="1094" yMax="1493">
      <contour>
        <pt x="533" y="-29" on="1"/>
        <pt x="490" y="-29" on="0"/>
        <pt x="392" y="-21" on="0"/>
        <pt x="343" y="-13" on="1"/>
        <pt x="293" y="-5" on="0"/>
        <pt x="192" y="20" on="0"/>
        <pt x="143" y="35" on="1"/>
        <pt x="143" y="301" on="1"/>
        <pt x="188" y="279" on="0"/>
        <pt x="268" y="251" on="0"/>
        <pt x="314" y="240" on="1"/>
        <pt x="398" y="219" on="0"/>
        <pt x="488" y="219" on="1"/>
        <pt x="647" y="219" on="0"/>
        <pt x="726" y="286" on="1"/>
        <pt x="807" y="354" on="0"/>
        <pt x="807" y="475" on="1"/>
        <pt x="807" y="602" on="0"/>
        <pt x="650" y="737" on="0"/>
        <pt x="508" y="737" on="1"/>
        <pt x="473" y="737" on="0"/>
        <pt x="394" y="728" on="0"/>
        <pt x="354" y="718" on="1"/>
        <pt x="313" y="708" on="0"/>
        <pt x="228" y="676" on="0"/>
        <pt x="193" y="659" on="1"/>
        <pt x="193" y="1493" on="1"/>
        <pt x="1004" y="1493" on="1"/>
        <pt x="1004" y="1233" on="1"/>
        <pt x="432" y="1233" on="1"/>
        <pt x="432" y="956" on="1"/>
        <pt x="442" y="960" on="0"/>
        <pt x="486" y="973" on="0"/>
        <pt x="509" y="977" on="1"/>
        <pt x="527" y="980" on="0"/>
        <pt x="577" y="983" on="0"/>
        <pt x="598" y="983" on="1"/>
        <pt x="704" y="983" on="0"/>
        <pt x="890" y="912" on="0"/>
        <pt x="957" y="844" on="1"/>
        <pt x="1022" y="778" on="0"/>
        <pt x="1094" y="592" on="0"/>
        <pt x="1094" y="477" on="1"/>
        <pt x="1094" y="242" on="0"/>
        <pt x="799" y="-29" on="0"/>
      </contour>
    </TTGlyph>
    <TTGlyph name="uni0035.subs" xMin="293" yMin="-407" xMax="944" yMax="443">
      <contour>
        <pt x="557" y="-407" on="1"/>
        <pt x="432" y="-407" on="0"/>
        <pt x="293" y="-371" on="1"/>
        <pt x="293" y="-223" on="1"/>
        <pt x="344" y="-244" on="0"/>
        <pt x="469" y="-269" on="0"/>
        <pt x="531" y="-269" on="1"/>
        <pt x="637" y="-269" on="0"/>
        <pt x="747" y="-194" on="0"/>
        <pt x="747" y="-126" on="1"/>
        <pt x="747" y="-56" on="0"/>
        <pt x="636" y="21" on="0"/>
        <pt x="541" y="21" on="1"/>
        <pt x="439" y="21" on="0"/>
        <pt x="327" y="-22" on="1"/>
        <pt x="327" y="443" on="1"/>
        <pt x="882" y="443" on="1"/>
        <pt x="882" y="298" on="1"/>
        <pt x="491" y="298" on="1"/>
        <pt x="491" y="144" on="1"/>
        <pt x="515" y="151" on="0"/>
        <pt x="570" y="159" on="0"/>
        <pt x="605" y="159" on="1"/>
        <pt x="754" y="159" on="0"/>
        <pt x="944" y="2" on="0"/>
        <pt x="944" y="-126" on="1"/>
        <pt x="944" y="-256" on="0"/>
        <pt x="738" y="-407" on="0"/>
      </contour>
    </TTGlyph>
    <TTGlyph name="uni0036" xMin="131" yMin="-31" xMax="1122" yMax="1518">
      <contour>
        <pt x="644" y="-31" on="1"/>
        <pt x="513" y="-31" on="0"/>
        <pt x="320" y="58" on="0"/>
        <pt x="256" y="153" on="1"/>
        <pt x="190" y="250" on="0"/>
        <pt x="131" y="538" on="0"/>
        <pt x="131" y="724" on="1"/>
        <pt x="131" y="922" on="0"/>
        <pt x="201" y="1223" on="0"/>
        <pt x="282" y="1326" on="1"/>
        <pt x="434" y="1518" on="0"/>
        <pt x="731" y="1518" on="1"/>
        <pt x="810" y="1518" on="0"/>
        <pt x="880" y="1503" on="1"/>
        <pt x="954" y="1488" on="0"/>
        <pt x="1030" y="1458" on="1"/>
        <pt x="1030" y="1190" on="1"/>
        <pt x="954" y="1235" on="0"/>
        <pt x="879" y="1258" on="1"/>
        <pt x="809" y="1280" on="0"/>
        <pt x="738" y="1280" on="1"/>
        <pt x="419" y="1280" on="0"/>
        <pt x="408" y="855" on="1"/>
        <pt x="457" y="923" on="0"/>
        <pt x="528" y="953" on="1"/>
        <pt x="560" y="967" on="0"/>
        <pt x="647" y="985" on="0"/>
        <pt x="702" y="985" on="1"/>
        <pt x="904" y="985" on="0"/>
        <pt x="1012" y="859" on="1"/>
        <pt x="1122" y="732" on="0"/>
        <pt x="1122" y="495" on="1"/>
        <pt x="1122" y="374" on="0"/>
        <pt x="1061" y="175" on="0"/>
        <pt x="999" y="106" on="1"/>
        <pt x="875" y="-31" on="0"/>
      </contour>
      <contour>
        <pt x="643" y="207" on="1"/>
        <pt x="688" y="207" on="0"/>
        <pt x="764" y="240" on="0"/>
        <pt x="791" y="277" on="1"/>
        <pt x="842" y="346" on="0"/>
        <pt x="842" y="477" on="1"/>
        <pt x="842" y="608" on="0"/>
        <pt x="791" y="678" on="1"/>
        <pt x="740" y="748" on="0"/>
        <pt x="642" y="748" on="1"/>
        <pt x="592" y="748" on="0"/>
        <pt x="521" y="712" on="0"/>
        <pt x="497" y="679" on="1"/>
        <pt x="446" y="608" on="0"/>
        <pt x="446" y="478" on="1"/>
        <pt x="446" y="409" on="0"/>
        <pt x="473" y="309" on="0"/>
        <pt x="497" y="276" on="1"/>
        <pt x="523" y="240" on="0"/>
        <pt x="598" y="207" on="0"/>
      </contour>
    </TTGlyph>
    <TTGlyph name="uni0036.subs" xMin="287" yMin="-428" xMax="965" yMax="440">
      <contour>
        <pt x="637" y="-428" on="1"/>
        <pt x="461" y="-428" on="0"/>
        <pt x="287" y="-227" on="0"/>
        <pt x="287" y="-11" on="1"/>
        <pt x="287" y="220" on="0"/>
        <pt x="488" y="440" on="0"/>
        <pt x="694" y="440" on="1"/>
        <pt x="743" y="440" on="0"/>
        <pt x="842" y="426" on="0"/>
        <pt x="902" y="406" on="1"/>
        <pt x="902" y="257" on="1"/>
        <pt x="853" y="279" on="0"/>
        <pt x="751" y="307" on="0"/>
        <pt x="698" y="307" on="1"/>
        <pt x="593" y="307" on="0"/>
        <pt x="478" y="187" on="0"/>
        <pt x="476" y="69" on="1"/>
        <pt x="540" y="142" on="0"/>
        <pt x="676" y="142" on="1"/>
        <pt x="815" y="142" on="0"/>
        <pt x="965" y="-1" on="0"/>
        <pt x="965" y="-135" on="1"/>
        <pt x="965" y="-275" on="0"/>
        <pt x="798" y="-428" on="0"/>
      </contour>
      <contour>
        <pt x="637" y="-295" on="1"/>
        <pt x="773" y="-295" on="0"/>
        <pt x="773" y="-144" on="1"/>
        <pt x="773" y="-73" on="0"/>
        <pt x="738" y="-32" on="1"/>
        <pt x="704" y="7" on="0"/>
        <pt x="637" y="7" on="1"/>
        <pt x="502" y="7" on="0"/>
        <pt x="502" y="-143" on="1"/>
        <pt x="502" y="-295" on="0"/>
      </contour>
    </TTGlyph>
    <TTGlyph name="uni0037" xMin="135" yMin="0" xMax="1079" yMax="1493">
      <contour>
        <pt x="758" y="1233" on="1"/>
        <pt x="135" y="1233" on="1"/>
        <pt x="135" y="1493" on="1"/>
        <pt x="1079" y="1493" on="1"/>
        <pt x="1079" y="1284" on="1"/>
        <pt x="573" y="0" on="1"/>
        <pt x="272" y="0" on="1"/>
      </contour>
    </TTGlyph>
    <TTGlyph name="uni0037.subs" xMin="284" yMin="-400" xMax="930" yMax="435">
      <contour>
        <pt x="711" y="290" on="1"/>
        <pt x="284" y="290" on="1"/>
        <pt x="284" y="435" on="1"/>
        <pt x="930" y="435" on="1"/>
        <pt x="930" y="318" on="1"/>
        <pt x="584" y="-400" on="1"/>
        <pt x="378" y="-400" on="1"/>
      </contour>
    </TTGlyph>
    <TTGlyph name="uni0038" xMin="129" yMin="-29" xMax="1104" yMax="1520">
      <contour>
        <pt x="617" y="-29" on="1"/>
        <pt x="494" y="-29" on="0"/>
        <pt x="316" y="32" on="0"/>
        <pt x="256" y="88" on="1"/>
        <pt x="129" y="206" on="0"/>
        <pt x="129" y="414" on="1"/>
        <pt x="129" y="490" on="0"/>
        <pt x="165" y="607" on="0"/>
        <pt x="200" y="656" on="1"/>
        <pt x="270" y="753" on="0"/>
        <pt x="397" y="791" on="1"/>
        <pt x="283" y="830" on="0"/>
        <pt x="225" y="914" on="1"/>
        <pt x="166" y="999" on="0"/>
        <pt x="166" y="1121" on="1"/>
        <pt x="166" y="1304" on="0"/>
        <pt x="287" y="1412" on="1"/>
        <pt x="408" y="1520" on="0"/>
        <pt x="616" y="1520" on="1"/>
        <pt x="824" y="1520" on="0"/>
        <pt x="946" y="1412" on="1"/>
        <pt x="1067" y="1304" on="0"/>
        <pt x="1067" y="1120" on="1"/>
        <pt x="1067" y="997" on="0"/>
        <pt x="1009" y="915" on="1"/>
        <pt x="951" y="831" on="0"/>
        <pt x="840" y="791" on="1"/>
        <pt x="963" y="753" on="0"/>
        <pt x="1034" y="655" on="1"/>
        <pt x="1104" y="558" on="0"/>
        <pt x="1104" y="414" on="1"/>
        <pt x="1104" y="206" on="0"/>
        <pt x="977" y="88" on="1"/>
        <pt x="850" y="-29" on="0"/>
      </contour>
      <contour>
        <pt x="616" y="903" on="1"/>
        <pt x="704" y="903" on="0"/>
        <pt x="755" y="955" on="1"/>
        <pt x="805" y="1008" on="0"/>
        <pt x="805" y="1093" on="1"/>
        <pt x="805" y="1182" on="0"/>
        <pt x="755" y="1232" on="1"/>
        <pt x="705" y="1282" on="0"/>
        <pt x="616" y="1282" on="1"/>
        <pt x="530" y="1282" on="0"/>
        <pt x="428" y="1180" on="0"/>
        <pt x="428" y="1093" on="1"/>
        <pt x="428" y="1008" on="0"/>
        <pt x="479" y="955" on="1"/>
        <pt x="530" y="903" on="0"/>
      </contour>
      <contour>
        <pt x="616" y="209" on="1"/>
        <pt x="717" y="209" on="0"/>
        <pt x="777" y="272" on="1"/>
        <pt x="838" y="333" on="0"/>
        <pt x="838" y="440" on="1"/>
        <pt x="838" y="540" on="0"/>
        <pt x="777" y="604" on="1"/>
        <pt x="749" y="633" on="0"/>
        <pt x="669" y="666" on="0"/>
        <pt x="616" y="666" on="1"/>
        <pt x="515" y="666" on="0"/>
        <pt x="456" y="604" on="1"/>
        <pt x="395" y="543" on="0"/>
        <pt x="395" y="439" on="1"/>
        <pt x="395" y="335" on="0"/>
        <pt x="456" y="271" on="1"/>
        <pt x="483" y="243" on="0"/>
        <pt x="565" y="209" on="0"/>
      </contour>
    </TTGlyph>
    <TTGlyph name="uni0038.subs" xMin="282" yMin="-423" xMax="949" yMax="444">
      <contour>
        <pt x="617" y="-423" on="1"/>
        <pt x="456" y="-423" on="0"/>
        <pt x="282" y="-292" on="0"/>
        <pt x="282" y="-179" on="1"/>
        <pt x="282" y="-12" on="0"/>
        <pt x="466" y="36" on="1"/>
        <pt x="308" y="82" on="0"/>
        <pt x="308" y="221" on="1"/>
        <pt x="308" y="324" on="0"/>
        <pt x="473" y="444" on="0"/>
        <pt x="615" y="444" on="1"/>
        <pt x="759" y="444" on="0"/>
        <pt x="924" y="323" on="0"/>
        <pt x="924" y="221" on="1"/>
        <pt x="924" y="84" on="0"/>
        <pt x="769" y="36" on="1"/>
        <pt x="854" y="14" on="0"/>
        <pt x="949" y="-92" on="0"/>
        <pt x="949" y="-179" on="1"/>
        <pt x="949" y="-294" on="0"/>
        <pt x="777" y="-423" on="0"/>
      </contour>
      <contour>
        <pt x="616" y="99" on="1"/>
        <pt x="676" y="99" on="0"/>
        <pt x="745" y="157" on="0"/>
        <pt x="745" y="206" on="1"/>
        <pt x="745" y="255" on="0"/>
        <pt x="676" y="311" on="0"/>
        <pt x="616" y="311" on="1"/>
        <pt x="556" y="311" on="0"/>
        <pt x="487" y="254" on="0"/>
        <pt x="487" y="206" on="1"/>
        <pt x="487" y="157" on="0"/>
        <pt x="556" y="99" on="0"/>
      </contour>
      <contour>
        <pt x="615" y="-290" on="1"/>
        <pt x="683" y="-290" on="0"/>
        <pt x="767" y="-220" on="0"/>
        <pt x="767" y="-161" on="1"/>
        <pt x="767" y="-130" on="0"/>
        <pt x="744" y="-84" on="0"/>
        <pt x="726" y="-69" on="1"/>
        <pt x="686" y="-35" on="0"/>
        <pt x="618" y="-35" on="1"/>
        <pt x="548" y="-35" on="0"/>
        <pt x="464" y="-104" on="0"/>
        <pt x="464" y="-162" on="1"/>
        <pt x="464" y="-220" on="0"/>
        <pt x="547" y="-290" on="0"/>
      </contour>
    </TTGlyph>
    <TTGlyph name="uni0039" xMin="111" yMin="-39" xMax="1102" yMax="1507">
      <contour>
        <pt x="502" y="-39" on="1"/>
        <pt x="462" y="-39" on="0"/>
        <pt x="391" y="-32" on="0"/>
        <pt x="354" y="-24" on="1"/>
        <pt x="276" y="-7" on="0"/>
        <pt x="203" y="20" on="1"/>
        <pt x="203" y="289" on="1"/>
        <pt x="280" y="244" on="0"/>
        <pt x="355" y="221" on="1"/>
        <pt x="424" y="199" on="0"/>
        <pt x="495" y="199" on="1"/>
        <pt x="571" y="199" on="0"/>
        <pt x="694" y="251" on="0"/>
        <pt x="737" y="306" on="1"/>
        <pt x="777" y="357" on="0"/>
        <pt x="823" y="515" on="0"/>
        <pt x="825" y="624" on="1"/>
        <pt x="730" y="494" on="0"/>
        <pt x="533" y="494" on="1"/>
        <pt x="330" y="494" on="0"/>
        <pt x="220" y="622" on="1"/>
        <pt x="111" y="749" on="0"/>
        <pt x="111" y="983" on="1"/>
        <pt x="111" y="1231" on="0"/>
        <pt x="233" y="1370" on="1"/>
        <pt x="355" y="1507" on="0"/>
        <pt x="590" y="1507" on="1"/>
        <pt x="729" y="1507" on="0"/>
        <pt x="917" y="1412" on="0"/>
        <pt x="977" y="1324" on="1"/>
        <pt x="1045" y="1224" on="0"/>
        <pt x="1102" y="934" on="0"/>
        <pt x="1102" y="756" on="1"/>
        <pt x="1102" y="536" on="0"/>
        <pt x="1024" y="247" on="0"/>
        <pt x="952" y="155" on="1"/>
        <pt x="874" y="55" on="0"/>
        <pt x="644" y="-39" on="0"/>
      </contour>
      <contour>
        <pt x="589" y="741" on="1"/>
        <pt x="685" y="741" on="0"/>
        <pt x="736" y="811" on="1"/>
        <pt x="786" y="882" on="0"/>
        <pt x="786" y="1011" on="1"/>
        <pt x="786" y="1080" on="0"/>
        <pt x="759" y="1181" on="0"/>
        <pt x="736" y="1213" on="1"/>
        <pt x="685" y="1282" on="0"/>
        <pt x="589" y="1282" on="1"/>
        <pt x="538" y="1282" on="0"/>
        <pt x="467" y="1245" on="0"/>
        <pt x="443" y="1213" on="1"/>
        <pt x="391" y="1143" on="0"/>
        <pt x="391" y="1012" on="1"/>
        <pt x="391" y="881" on="0"/>
        <pt x="443" y="811" on="1"/>
        <pt x="495" y="741" on="0"/>
      </contour>
    </TTGlyph>
    <TTGlyph name="uni0039.subs" xMin="267" yMin="-430" xMax="945" yMax="437">
      <contour>
        <pt x="539" y="-430" on="1"/>
        <pt x="488" y="-430" on="0"/>
        <pt x="390" y="-415" on="0"/>
        <pt x="330" y="-397" on="1"/>
        <pt x="330" y="-246" on="1"/>
        <pt x="381" y="-270" on="0"/>
        <pt x="482" y="-297" on="0"/>
        <pt x="533" y="-297" on="1"/>
        <pt x="750" y="-297" on="0"/>
        <pt x="756" y="-59" on="1"/>
        <pt x="689" y="-132" on="0"/>
        <pt x="554" y="-132" on="1"/>
        <pt x="416" y="-132" on="0"/>
        <pt x="267" y="10" on="0"/>
        <pt x="267" y="144" on="1"/>
        <pt x="267" y="285" on="0"/>
        <pt x="434" y="437" on="0"/>
        <pt x="595" y="437" on="1"/>
        <pt x="770" y="437" on="0"/>
        <pt x="945" y="237" on="0"/>
        <pt x="945" y="21" on="1"/>
        <pt x="945" y="-211" on="0"/>
        <pt x="743" y="-430" on="0"/>
      </contour>
      <contour>
        <pt x="595" y="8" on="1"/>
        <pt x="729" y="8" on="0"/>
        <pt x="729" y="159" on="1"/>
        <pt x="729" y="311" on="0"/>
        <pt x="595" y="311" on="1"/>
        <pt x="459" y="311" on="0"/>
        <pt x="459" y="160" on="1"/>
        <pt x="459" y="8" on="0"/>
      </contour>
    </TTGlyph>
    <TTGlyph name="uni003A" xMin="443" yMin="36" xMax="797" yMax="1120">
      <contour>
        <pt x="619" y="752" on="1"/>
        <pt x="580" y="752" on="0"/>
        <pt x="517" y="781" on="0"/>
        <pt x="495" y="803" on="1"/>
        <pt x="443" y="855" on="0"/>
        <pt x="443" y="936" on="1"/>
        <pt x="443" y="979" on="0"/>
        <pt x="471" y="1046" on="0"/>
        <pt x="494" y="1069" on="1"/>
        <pt x="545" y="1120" on="0"/>
        <pt x="621" y="1120" on="1"/>
        <pt x="695" y="1120" on="0"/>
        <pt x="746" y="1069" on="1"/>
        <pt x="769" y="1046" on="0"/>
        <pt x="797" y="979" on="0"/>
        <pt x="797" y="937" on="1"/>
        <pt x="797" y="853" on="0"/>
        <pt x="696" y="752" on="0"/>
      </contour>
      <contour>
        <pt x="620" y="36" on="1"/>
        <pt x="546" y="36" on="0"/>
        <pt x="495" y="87" on="1"/>
        <pt x="443" y="139" on="0"/>
        <pt x="443" y="220" on="1"/>
        <pt x="443" y="301" on="0"/>
        <pt x="495" y="353" on="1"/>
        <pt x="546" y="404" on="0"/>
        <pt x="620" y="404" on="1"/>
        <pt x="695" y="404" on="0"/>
        <pt x="746" y="353" on="1"/>
        <pt x="769" y="330" on="0"/>
        <pt x="797" y="263" on="0"/>
        <pt x="797" y="220" on="1"/>
        <pt x="797" y="138" on="0"/>
        <pt x="746" y="87" on="1"/>
        <pt x="695" y="36" on="0"/>
      </contour>
    </TTGlyph>
    <TTGlyph name="uni003B" xMin="373" yMin="-483" xMax="828" yMax="1081">
      <contour>
        <pt x="609" y="695" on="1"/>
        <pt x="568" y="695" on="0"/>
        <pt x="502" y="725" on="0"/>
        <pt x="479" y="748" on="1"/>
        <pt x="450" y="777" on="0"/>
        <pt x="425" y="849" on="0"/>
        <pt x="425" y="888" on="1"/>
        <pt x="425" y="933" on="0"/>
        <pt x="455" y="1004" on="0"/>
        <pt x="478" y="1028" on="1"/>
        <pt x="533" y="1081" on="0"/>
        <pt x="612" y="1081" on="1"/>
        <pt x="687" y="1081" on="0"/>
        <pt x="743" y="1028" on="1"/>
        <pt x="767" y="1003" on="0"/>
        <pt x="796" y="934" on="0"/>
        <pt x="796" y="889" on="1"/>
        <pt x="796" y="844" on="0"/>
        <pt x="767" y="773" on="0"/>
        <pt x="743" y="748" on="1"/>
        <pt x="718" y="724" on="0"/>
        <pt x="649" y="695" on="0"/>
      </contour>
      <contour>
        <pt x="373" y="-346" on="1"/>
        <pt x="388" y="-339" on="1"/>
        <pt x="504" y="-290" on="0"/>
        <pt x="571" y="-207" on="1"/>
        <pt x="600" y="-171" on="0"/>
        <pt x="638" y="-76" on="0"/>
        <pt x="642" y="-21" on="1"/>
        <pt x="628" y="-23" on="0"/>
        <pt x="629" y="-23" on="1"/>
        <pt x="619" y="-23" on="1"/>
        <pt x="584" y="-23" on="0"/>
        <pt x="515" y="-1" on="0"/>
        <pt x="490" y="22" on="1"/>
        <pt x="439" y="67" on="0"/>
        <pt x="439" y="150" on="1"/>
        <pt x="439" y="232" on="0"/>
        <pt x="493" y="278" on="1"/>
        <pt x="521" y="301" on="0"/>
        <pt x="553" y="314" on="1"/>
        <pt x="583" y="325" on="0"/>
        <pt x="624" y="325" on="1"/>
        <pt x="647" y="325" on="0"/>
        <pt x="691" y="316" on="0"/>
        <pt x="711" y="305" on="1"/>
        <pt x="751" y="286" on="0"/>
        <pt x="776" y="247" on="1"/>
        <pt x="804" y="206" on="0"/>
        <pt x="815" y="157" on="1"/>
        <pt x="828" y="106" on="0"/>
        <pt x="828" y="41" on="1"/>
        <pt x="828" y="-143" on="0"/>
        <pt x="729" y="-278" on="1"/>
        <pt x="636" y="-407" on="0"/>
        <pt x="448" y="-478" on="1"/>
        <pt x="434" y="-483" on="1"/>
      </contour>
    </TTGlyph>
    <TTGlyph name="uni003C" xMin="88" yMin="109" xMax="1145" yMax="1176">
      <contour>
        <pt x="88" y="524" on="1"/>
        <pt x="88" y="760" on="1"/>
        <pt x="1145" y="1176" on="1"/>
        <pt x="1145" y="926" on="1"/>
        <pt x="350" y="641" on="1"/>
        <pt x="1145" y="358" on="1"/>
        <pt x="1145" y="109" on="1"/>
      </contour>
    </TTGlyph>
    <TTGlyph name="uni003D" xMin="88" yMin="295" xMax="1145" yMax="987">
      <contour>
        <pt x="88" y="987" on="1"/>
        <pt x="1145" y="987" on="1"/>
        <pt x="1145" y="752" on="1"/>
        <pt x="88" y="752" on="1"/>
      </contour>
      <contour>
        <pt x="88" y="532" on="1"/>
        <pt x="1145" y="532" on="1"/>
        <pt x="1145" y="295" on="1"/>
        <pt x="88" y="295" on="1"/>
      </contour>
    </TTGlyph>
    <TTGlyph name="uni003E" xMin="88" yMin="109" xMax="1145" yMax="1176">
      <contour>
        <pt x="88" y="358" on="1"/>
        <pt x="883" y="641" on="1"/>
        <pt x="88" y="926" on="1"/>
        <pt x="88" y="1176" on="1"/>
        <pt x="1145" y="760" on="1"/>
        <pt x="1145" y="524" on="1"/>
        <pt x="88" y="109" on="1"/>
      </contour>
    </TTGlyph>
    <TTGlyph name="uni003F" xMin="229" yMin="-50" xMax="1055" yMax="1543">
      <contour>
        <pt x="479" y="583" on="1"/>
        <pt x="479" y="667" on="0"/>
        <pt x="510" y="735" on="1"/>
        <pt x="527" y="772" on="0"/>
        <pt x="583" y="847" on="0"/>
        <pt x="628" y="891" on="1"/>
        <pt x="718" y="980" on="1"/>
        <pt x="729" y="991" on="0"/>
        <pt x="758" y="1021" on="0"/>
        <pt x="769" y="1035" on="1"/>
        <pt x="792" y="1063" on="0"/>
        <pt x="801" y="1079" on="1"/>
        <pt x="811" y="1095" on="0"/>
        <pt x="818" y="1121" on="1"/>
        <pt x="823" y="1134" on="0"/>
        <pt x="823" y="1165" on="1"/>
        <pt x="823" y="1173" on="0"/>
        <pt x="822" y="1197" on="0"/>
        <pt x="820" y="1205" on="1"/>
        <pt x="819" y="1209" on="0"/>
        <pt x="813" y="1232" on="0"/>
        <pt x="809" y="1240" on="1"/>
        <pt x="802" y="1256" on="0"/>
        <pt x="779" y="1284" on="0"/>
        <pt x="763" y="1298" on="1"/>
        <pt x="738" y="1318" on="0"/>
        <pt x="718" y="1326" on="1"/>
        <pt x="713" y="1328" on="0"/>
        <pt x="680" y="1340" on="0"/>
        <pt x="663" y="1343" on="1"/>
        <pt x="633" y="1349" on="0"/>
        <pt x="599" y="1349" on="1"/>
        <pt x="571" y="1349" on="0"/>
        <pt x="524" y="1343" on="0"/>
        <pt x="493" y="1335" on="1"/>
        <pt x="479" y="1331" on="0"/>
        <pt x="446" y="1320" on="0"/>
        <pt x="436" y="1316" on="1"/>
        <pt x="397" y="1301" on="0"/>
        <pt x="301" y="1249" on="0"/>
        <pt x="253" y="1215" on="1"/>
        <pt x="229" y="1198" on="1"/>
        <pt x="229" y="1423" on="1"/>
        <pt x="236" y="1428" on="1"/>
        <pt x="332" y="1486" on="0"/>
        <pt x="430" y="1515" on="1"/>
        <pt x="524" y="1543" on="0"/>
        <pt x="632" y="1543" on="1"/>
        <pt x="731" y="1543" on="0"/>
        <pt x="805" y="1518" on="1"/>
        <pt x="882" y="1492" on="0"/>
        <pt x="940" y="1443" on="1"/>
        <pt x="997" y="1394" on="0"/>
        <pt x="1026" y="1326" on="1"/>
        <pt x="1055" y="1256" on="0"/>
        <pt x="1055" y="1177" on="1"/>
        <pt x="1055" y="1095" on="0"/>
        <pt x="1019" y="1026" on="1"/>
        <pt x="1002" y="994" on="0"/>
        <pt x="943" y="918" on="0"/>
        <pt x="889" y="865" on="1"/>
        <pt x="802" y="779" on="1"/>
        <pt x="780" y="758" on="0"/>
        <pt x="759" y="735" on="0"/>
        <pt x="747" y="721" on="1"/>
        <pt x="737" y="709" on="0"/>
        <pt x="722" y="684" on="0"/>
        <pt x="717" y="676" on="1"/>
        <pt x="699" y="642" on="0"/>
        <pt x="699" y="599" on="1"/>
        <pt x="699" y="457" on="1"/>
        <pt x="479" y="457" on="1"/>
      </contour>
      <contour>
        <pt x="592" y="-50" on="1"/>
        <pt x="525" y="-50" on="0"/>
        <pt x="431" y="44" on="0"/>
        <pt x="431" y="117" on="1"/>
        <pt x="431" y="192" on="0"/>
        <pt x="478" y="239" on="1"/>
        <pt x="502" y="262" on="0"/>
        <pt x="562" y="284" on="0"/>
        <pt x="592" y="284" on="1"/>
        <pt x="608" y="284" on="0"/>
        <pt x="625" y="281" on="1"/>
        <pt x="629" y="280" on="0"/>
        <pt x="646" y="276" on="0"/>
        <pt x="654" y="272" on="1"/>
        <pt x="673" y="264" on="0"/>
        <pt x="690" y="254" on="0"/>
        <pt x="706" y="237" on="1"/>
        <pt x="716" y="227" on="0"/>
        <pt x="734" y="201" on="0"/>
        <pt x="741" y="184" on="1"/>
        <pt x="753" y="154" on="0"/>
        <pt x="753" y="118" on="1"/>
        <pt x="753" y="44" on="0"/>
        <pt x="659" y="-50" on="0"/>
      </contour>
    </TTGlyph>
    <TTGlyph name="uni0040" xMin="2" yMin="-319" xMax="1159" yMax="1399">
      <contour>
        <pt x="767" y="-319" on="1"/>
        <pt x="423" y="-319" on="0"/>
        <pt x="214" y="-86" on="1"/>
        <pt x="6" y="146" on="0"/>
        <pt x="6" y="546" on="1"/>
        <pt x="2" y="734" on="0"/>
        <pt x="102" y="1049" on="0"/>
        <pt x="286" y="1277" on="0"/>
        <pt x="536" y="1399" on="0"/>
        <pt x="683" y="1395" on="1"/>
        <pt x="801" y="1395" on="0"/>
        <pt x="973" y="1327" on="0"/>
        <pt x="1033" y="1264" on="1"/>
        <pt x="1159" y="1132" on="0"/>
        <pt x="1159" y="905" on="1"/>
        <pt x="1159" y="135" on="1"/>
        <pt x="963" y="135" on="1"/>
        <pt x="963" y="217" on="1"/>
        <pt x="941" y="187" on="0"/>
        <pt x="897" y="151" on="0"/>
        <pt x="874" y="140" on="1"/>
        <pt x="824" y="115" on="0"/>
        <pt x="749" y="115" on="1"/>
        <pt x="586" y="115" on="0"/>
        <pt x="486" y="233" on="1"/>
        <pt x="385" y="352" on="0"/>
        <pt x="385" y="546" on="1"/>
        <pt x="385" y="645" on="0"/>
        <pt x="436" y="799" on="0"/>
        <pt x="485" y="856" on="1"/>
        <pt x="586" y="973" on="0"/>
        <pt x="748" y="973" on="1"/>
        <pt x="782" y="973" on="0"/>
        <pt x="847" y="962" on="0"/>
        <pt x="875" y="949" on="1"/>
        <pt x="929" y="924" on="0"/>
        <pt x="963" y="877" on="1"/>
        <pt x="963" y="918" on="1"/>
        <pt x="963" y="1054" on="0"/>
        <pt x="889" y="1128" on="1"/>
        <pt x="812" y="1202" on="0"/>
        <pt x="679" y="1202" on="1"/>
        <pt x="571" y="1202" on="0"/>
        <pt x="398" y="1107" on="0"/>
        <pt x="336" y="1020" on="1"/>
        <pt x="275" y="935" on="0"/>
        <pt x="205" y="693" on="0"/>
        <pt x="205" y="544" on="1"/>
        <pt x="205" y="383" on="0"/>
        <pt x="287" y="137" on="0"/>
        <pt x="356" y="54" on="1"/>
        <pt x="434" y="-39" on="0"/>
        <pt x="642" y="-127" on="0"/>
        <pt x="757" y="-127" on="1"/>
        <pt x="797" y="-127" on="0"/>
        <pt x="879" y="-116" on="0"/>
        <pt x="917" y="-104" on="1"/>
        <pt x="953" y="-93" on="0"/>
        <pt x="1026" y="-56" on="0"/>
        <pt x="1061" y="-33" on="1"/>
        <pt x="1153" y="-209" on="1"/>
        <pt x="1111" y="-238" on="0"/>
        <pt x="1019" y="-280" on="0"/>
        <pt x="977" y="-292" on="1"/>
        <pt x="933" y="-305" on="0"/>
        <pt x="828" y="-319" on="0"/>
      </contour>
      <contour>
        <pt x="782" y="303" on="1"/>
        <pt x="871" y="303" on="0"/>
        <pt x="973" y="431" on="0"/>
        <pt x="973" y="545" on="1"/>
        <pt x="973" y="658" on="0"/>
        <pt x="922" y="722" on="1"/>
        <pt x="871" y="786" on="0"/>
        <pt x="782" y="786" on="1"/>
        <pt x="732" y="786" on="0"/>
        <pt x="666" y="751" on="0"/>
        <pt x="643" y="722" on="1"/>
        <pt x="592" y="658" on="0"/>
        <pt x="592" y="545" on="1"/>
        <pt x="592" y="432" on="0"/>
        <pt x="643" y="367" on="1"/>
        <pt x="666" y="338" on="0"/>
        <pt x="732" y="303" on="0"/>
      </contour>
    </TTGlyph>
    <TTGlyph name="uni0041" xMin="33" yMin="0" xMax="1200" yMax="1493">
      <contour>
        <pt x="436" y="1493" on="1"/>
        <pt x="797" y="1493" on="1"/>
        <pt x="1200" y="0" on="1"/>
        <pt x="905" y="0" on="1"/>
        <pt x="813" y="369" on="1"/>
        <pt x="418" y="369" on="1"/>
        <pt x="328" y="0" on="1"/>
        <pt x="33" y="0" on="1"/>
      </contour>
      <contour>
        <pt x="756" y="612" on="1"/>
        <pt x="616" y="1223" on="1"/>
        <pt x="477" y="612" on="1"/>
      </contour>
    </TTGlyph>
    <TTGlyph name="uni0042" xMin="125" yMin="0" xMax="1159" yMax="1495">
      <contour>
        <pt x="125" y="1495" on="1"/>
        <pt x="606" y="1495" on="1"/>
        <pt x="857" y="1495" on="0"/>
        <pt x="981" y="1401" on="1"/>
        <pt x="1106" y="1306" on="0"/>
        <pt x="1106" y="1118" on="1"/>
        <pt x="1106" y="976" on="0"/>
        <pt x="1032" y="893" on="1"/>
        <pt x="957" y="812" on="0"/>
        <pt x="815" y="799" on="1"/>
        <pt x="986" y="783" on="0"/>
        <pt x="1073" y="684" on="1"/>
        <pt x="1159" y="586" on="0"/>
        <pt x="1159" y="409" on="1"/>
        <pt x="1159" y="194" on="0"/>
        <pt x="899" y="0" on="0"/>
        <pt x="606" y="0" on="1"/>
        <pt x="125" y="0" on="1"/>
      </contour>
      <contour>
        <pt x="606" y="913" on="1"/>
        <pt x="719" y="913" on="0"/>
        <pt x="766" y="954" on="1"/>
        <pt x="789" y="974" on="0"/>
        <pt x="813" y="1035" on="0"/>
        <pt x="813" y="1085" on="1"/>
        <pt x="813" y="1175" on="0"/>
        <pt x="765" y="1218" on="1"/>
        <pt x="744" y="1236" on="0"/>
        <pt x="671" y="1260" on="0"/>
        <pt x="606" y="1260" on="1"/>
        <pt x="410" y="1260" on="1"/>
        <pt x="410" y="913" on="1"/>
      </contour>
      <contour>
        <pt x="606" y="236" on="1"/>
        <pt x="747" y="236" on="0"/>
        <pt x="804" y="284" on="1"/>
        <pt x="860" y="332" on="0"/>
        <pt x="860" y="451" on="1"/>
        <pt x="860" y="572" on="0"/>
        <pt x="742" y="678" on="0"/>
        <pt x="606" y="678" on="1"/>
        <pt x="410" y="678" on="1"/>
        <pt x="410" y="236" on="1"/>
      </contour>
    </TTGlyph>
    <TTGlyph name="uni0043" xMin="141" yMin="-29" xMax="1070" yMax="1520">
      <contour>
        <pt x="759" y="-29" on="1"/>
        <pt x="460" y="-29" on="0"/>
        <pt x="300" y="170" on="1"/>
        <pt x="141" y="370" on="0"/>
        <pt x="141" y="745" on="1"/>
        <pt x="141" y="1122" on="0"/>
        <pt x="300" y="1321" on="1"/>
        <pt x="460" y="1520" on="0"/>
        <pt x="759" y="1520" on="1"/>
        <pt x="846" y="1520" on="0"/>
        <pt x="924" y="1502" on="1"/>
        <pt x="1002" y="1484" on="0"/>
        <pt x="1070" y="1448" on="1"/>
        <pt x="1070" y="1120" on="1"/>
        <pt x="1025" y="1162" on="0"/>
        <pt x="954" y="1209" on="0"/>
        <pt x="922" y="1223" on="1"/>
        <pt x="884" y="1240" on="0"/>
        <pt x="811" y="1255" on="0"/>
        <pt x="774" y="1255" on="1"/>
        <pt x="614" y="1255" on="0"/>
        <pt x="531" y="1127" on="1"/>
        <pt x="448" y="996" on="0"/>
        <pt x="448" y="745" on="1"/>
        <pt x="448" y="493" on="0"/>
        <pt x="531" y="365" on="1"/>
        <pt x="614" y="236" on="0"/>
        <pt x="774" y="236" on="1"/>
        <pt x="851" y="236" on="0"/>
        <pt x="923" y="269" on="1"/>
        <pt x="958" y="285" on="0"/>
        <pt x="1027" y="332" on="0"/>
        <pt x="1070" y="371" on="1"/>
        <pt x="1070" y="43" on="1"/>
        <pt x="1000" y="7" on="0"/>
        <pt x="923" y="-11" on="1"/>
        <pt x="846" y="-29" on="0"/>
      </contour>
    </TTGlyph>
    <TTGlyph name="uni0044" xMin="137" yMin="0" xMax="1141" yMax="1493">
      <contour>
        <pt x="137" y="1493" on="1"/>
        <pt x="453" y="1493" on="1"/>
        <pt x="820" y="1493" on="0"/>
        <pt x="980" y="1319" on="1"/>
        <pt x="1059" y="1233" on="0"/>
        <pt x="1141" y="950" on="0"/>
        <pt x="1141" y="747" on="1"/>
        <pt x="1141" y="352" on="0"/>
        <pt x="980" y="176" on="1"/>
        <pt x="819" y="0" on="0"/>
        <pt x="453" y="0" on="1"/>
        <pt x="137" y="0" on="1"/>
      </contour>
      <contour>
        <pt x="512" y="266" on="1"/>
        <pt x="686" y="266" on="0"/>
        <pt x="834" y="486" on="0"/>
        <pt x="834" y="748" on="1"/>
        <pt x="834" y="1008" on="0"/>
        <pt x="760" y="1118" on="1"/>
        <pt x="687" y="1227" on="0"/>
        <pt x="512" y="1227" on="1"/>
        <pt x="432" y="1227" on="1"/>
        <pt x="432" y="266" on="1"/>
      </contour>
    </TTGlyph>
    <TTGlyph name="uni0045" xMin="168" yMin="0" xMax="1098" yMax="1493">
      <contour>
        <pt x="168" y="1493" on="1"/>
        <pt x="1098" y="1493" on="1"/>
        <pt x="1098" y="1233" on="1"/>
        <pt x="463" y="1233" on="1"/>
        <pt x="463" y="911" on="1"/>
        <pt x="1038" y="911" on="1"/>
        <pt x="1038" y="651" on="1"/>
        <pt x="463" y="651" on="1"/>
        <pt x="463" y="260" on="1"/>
        <pt x="1098" y="260" on="1"/>
        <pt x="1098" y="0" on="1"/>
        <pt x="168" y="0" on="1"/>
      </contour>
    </TTGlyph>
    <TTGlyph name="uni0046" xMin="182" yMin="0" xMax="1112" yMax="1493">
      <contour>
        <pt x="182" y="1493" on="1"/>
        <pt x="1112" y="1493" on="1"/>
        <pt x="1112" y="1233" on="1"/>
        <pt x="477" y="1233" on="1"/>
        <pt x="477" y="901" on="1"/>
        <pt x="1055" y="901" on="1"/>
        <pt x="1055" y="641" on="1"/>
        <pt x="477" y="641" on="1"/>
        <pt x="477" y="0" on="1"/>
        <pt x="182" y="0" on="1"/>
      </contour>
    </TTGlyph>
    <TTGlyph name="uni0047" xMin="117" yMin="-29" xMax="1130" yMax="1520">
      <contour>
        <pt x="720" y="-29" on="1"/>
        <pt x="432" y="-29" on="0"/>
        <pt x="275" y="172" on="1"/>
        <pt x="200" y="268" on="0"/>
        <pt x="117" y="552" on="0"/>
        <pt x="117" y="747" on="1"/>
        <pt x="117" y="1124" on="0"/>
        <pt x="277" y="1321" on="1"/>
        <pt x="437" y="1520" on="0"/>
        <pt x="732" y="1520" on="1"/>
        <pt x="827" y="1520" on="0"/>
        <pt x="914" y="1495" on="1"/>
        <pt x="1002" y="1469" on="0"/>
        <pt x="1077" y="1421" on="1"/>
        <pt x="1077" y="1094" on="1"/>
        <pt x="1015" y="1174" on="0"/>
        <pt x="935" y="1215" on="1"/>
        <pt x="856" y="1255" on="0"/>
        <pt x="759" y="1255" on="1"/>
        <pt x="590" y="1255" on="0"/>
        <pt x="507" y="1129" on="1"/>
        <pt x="424" y="1001" on="0"/>
        <pt x="424" y="747" on="1"/>
        <pt x="424" y="498" on="0"/>
        <pt x="504" y="365" on="1"/>
        <pt x="542" y="303" on="0"/>
        <pt x="657" y="236" on="0"/>
        <pt x="738" y="236" on="1"/>
        <pt x="758" y="236" on="0"/>
        <pt x="800" y="240" on="0"/>
        <pt x="817" y="245" on="1"/>
        <pt x="839" y="250" on="0"/>
        <pt x="861" y="262" on="0"/>
        <pt x="872" y="270" on="1"/>
        <pt x="872" y="555" on="1"/>
        <pt x="670" y="555" on="1"/>
        <pt x="670" y="803" on="1"/>
        <pt x="1130" y="803" on="1"/>
        <pt x="1130" y="119" on="1"/>
        <pt x="1045" y="46" on="0"/>
        <pt x="943" y="9" on="1"/>
        <pt x="891" y="-10" on="0"/>
        <pt x="783" y="-29" on="0"/>
      </contour>
    </TTGlyph>
    <TTGlyph name="uni0048" xMin="137" yMin="0" xMax="1096" yMax="1493">
      <contour>
        <pt x="137" y="1493" on="1"/>
        <pt x="432" y="1493" on="1"/>
        <pt x="432" y="924" on="1"/>
        <pt x="801" y="924" on="1"/>
        <pt x="801" y="1493" on="1"/>
        <pt x="1096" y="1493" on="1"/>
        <pt x="1096" y="0" on="1"/>
        <pt x="801" y="0" on="1"/>
        <pt x="801" y="664" on="1"/>
        <pt x="432" y="664" on="1"/>
        <pt x="432" y="0" on="1"/>
        <pt x="137" y="0" on="1"/>
      </contour>
    </TTGlyph>
    <TTGlyph name="uni0049" xMin="172" yMin="0" xMax="1061" yMax="1493">
      <contour>
        <pt x="172" y="260" on="1"/>
        <pt x="469" y="260" on="1"/>
        <pt x="469" y="1233" on="1"/>
        <pt x="172" y="1233" on="1"/>
        <pt x="172" y="1493" on="1"/>
        <pt x="1061" y="1493" on="1"/>
        <pt x="1061" y="1233" on="1"/>
        <pt x="764" y="1233" on="1"/>
        <pt x="764" y="260" on="1"/>
        <pt x="1061" y="260" on="1"/>
        <pt x="1061" y="0" on="1"/>
        <pt x="172" y="0" on="1"/>
      </contour>
    </TTGlyph>
    <TTGlyph name="uni004A" xMin="109" yMin="-29" xMax="1008" yMax="1493">
      <contour>
        <pt x="524" y="-29" on="1"/>
        <pt x="466" y="-29" on="0"/>
        <pt x="370" y="-16" on="0"/>
        <pt x="318" y="-3" on="1"/>
        <pt x="217" y="22" on="0"/>
        <pt x="109" y="74" on="1"/>
        <pt x="109" y="416" on="1"/>
        <pt x="152" y="371" on="0"/>
        <pt x="244" y="305" on="0"/>
        <pt x="293" y="282" on="1"/>
        <pt x="388" y="236" on="0"/>
        <pt x="490" y="236" on="1"/>
        <pt x="605" y="236" on="0"/>
        <pt x="713" y="352" on="0"/>
        <pt x="713" y="479" on="1"/>
        <pt x="713" y="1233" on="1"/>
        <pt x="352" y="1233" on="1"/>
        <pt x="352" y="1493" on="1"/>
        <pt x="1008" y="1493" on="1"/>
        <pt x="1008" y="479" on="1"/>
        <pt x="1008" y="206" on="0"/>
        <pt x="894" y="89" on="1"/>
        <pt x="836" y="29" on="0"/>
        <pt x="645" y="-29" on="0"/>
      </contour>
    </TTGlyph>
    <TTGlyph name="uni004B" xMin="117" yMin="0" xMax="1225" yMax="1493">
      <contour>
        <pt x="117" y="1493" on="1"/>
        <pt x="412" y="1493" on="1"/>
        <pt x="412" y="903" on="1"/>
        <pt x="874" y="1493" on="1"/>
        <pt x="1208" y="1493" on="1"/>
        <pt x="737" y="905" on="1"/>
        <pt x="1225" y="0" on="1"/>
        <pt x="897" y="0" on="1"/>
        <pt x="543" y="672" on="1"/>
        <pt x="412" y="506" on="1"/>
        <pt x="412" y="0" on="1"/>
        <pt x="117" y="0" on="1"/>
      </contour>
    </TTGlyph>
    <TTGlyph name="uni004C" xMin="225" yMin="0" xMax="1151" yMax="1493">
      <contour>
        <pt x="225" y="1493" on="1"/>
        <pt x="520" y="1493" on="1"/>
        <pt x="520" y="260" on="1"/>
        <pt x="1151" y="260" on="1"/>
        <pt x="1151" y="0" on="1"/>
        <pt x="225" y="0" on="1"/>
      </contour>
    </TTGlyph>
    <TTGlyph name="uni004D" xMin="86" yMin="0" xMax="1147" yMax="1493">
      <contour>
        <pt x="86" y="1493" on="1"/>
        <pt x="438" y="1493" on="1"/>
        <pt x="616" y="838" on="1"/>
        <pt x="793" y="1493" on="1"/>
        <pt x="1147" y="1493" on="1"/>
        <pt x="1147" y="0" on="1"/>
        <pt x="893" y="0" on="1"/>
        <pt x="893" y="1196" on="1"/>
        <pt x="735" y="543" on="1"/>
        <pt x="500" y="543" on="1"/>
        <pt x="340" y="1196" on="1"/>
        <pt x="340" y="0" on="1"/>
        <pt x="86" y="0" on="1"/>
      </contour>
    </TTGlyph>
    <TTGlyph name="uni004E" xMin="119" yMin="0" xMax="1112" yMax="1493">
      <contour>
        <pt x="119" y="1493" on="1"/>
        <pt x="436" y="1493" on="1"/>
        <pt x="852" y="408" on="1"/>
        <pt x="852" y="1493" on="1"/>
        <pt x="1112" y="1493" on="1"/>
        <pt x="1112" y="0" on="1"/>
        <pt x="797" y="0" on="1"/>
        <pt x="379" y="1085" on="1"/>
        <pt x="379" y="0" on="1"/>
        <pt x="119" y="0" on="1"/>
      </contour>
    </TTGlyph>
    <TTGlyph name="uni004F" xMin="92" yMin="-29" xMax="1141" yMax="1520">
      <contour>
        <pt x="616" y="-29" on="1"/>
        <pt x="481" y="-29" on="0"/>
        <pt x="288" y="72" on="0"/>
        <pt x="225" y="166" on="1"/>
        <pt x="92" y="362" on="0"/>
        <pt x="92" y="745" on="1"/>
        <pt x="92" y="1126" on="0"/>
        <pt x="225" y="1325" on="1"/>
        <pt x="294" y="1427" on="0"/>
        <pt x="494" y="1520" on="0"/>
        <pt x="616" y="1520" on="1"/>
        <pt x="875" y="1520" on="0"/>
        <pt x="1009" y="1324" on="1"/>
        <pt x="1141" y="1128" on="0"/>
        <pt x="1141" y="745" on="1"/>
        <pt x="1141" y="364" on="0"/>
        <pt x="1009" y="167" on="1"/>
        <pt x="945" y="72" on="0"/>
        <pt x="750" y="-29" on="0"/>
      </contour>
      <contour>
        <pt x="616" y="236" on="1"/>
        <pt x="730" y="236" on="0"/>
        <pt x="782" y="357" on="1"/>
        <pt x="834" y="474" on="0"/>
        <pt x="834" y="746" on="1"/>
        <pt x="834" y="1017" on="0"/>
        <pt x="782" y="1134" on="1"/>
        <pt x="730" y="1255" on="0"/>
        <pt x="616" y="1255" on="1"/>
        <pt x="504" y="1255" on="0"/>
        <pt x="451" y="1134" on="1"/>
        <pt x="399" y="1017" on="0"/>
        <pt x="399" y="746" on="1"/>
        <pt x="399" y="474" on="0"/>
        <pt x="451" y="357" on="1"/>
        <pt x="503" y="236" on="0"/>
      </contour>
    </TTGlyph>
    <TTGlyph name="uni0050" xMin="166" yMin="0" xMax="1151" yMax="1493">
      <contour>
        <pt x="166" y="1493" on="1"/>
        <pt x="571" y="1493" on="1"/>
        <pt x="879" y="1493" on="0"/>
        <pt x="1016" y="1383" on="1"/>
        <pt x="1151" y="1274" on="0"/>
        <pt x="1151" y="1026" on="1"/>
        <pt x="1151" y="778" on="0"/>
        <pt x="1016" y="669" on="1"/>
        <pt x="879" y="559" on="0"/>
        <pt x="571" y="559" on="1"/>
        <pt x="461" y="559" on="1"/>
        <pt x="461" y="0" on="1"/>
        <pt x="166" y="0" on="1"/>
      </contour>
      <contour>
        <pt x="582" y="807" on="1"/>
        <pt x="728" y="807" on="0"/>
        <pt x="844" y="905" on="0"/>
        <pt x="844" y="1026" on="1"/>
        <pt x="844" y="1147" on="0"/>
        <pt x="728" y="1245" on="0"/>
        <pt x="582" y="1245" on="1"/>
        <pt x="461" y="1245" on="1"/>
        <pt x="461" y="807" on="1"/>
      </contour>
    </TTGlyph>
    <TTGlyph name="uni0051" xMin="92" yMin="-281" xMax="1181" yMax="1520">
      <contour>
        <pt x="656" y="-23" on="1"/>
        <pt x="633" y="-28" on="1"/>
        <pt x="626" y="-29" on="0"/>
        <pt x="622" y="-29" on="1"/>
        <pt x="485" y="-29" on="0"/>
        <pt x="290" y="72" on="0"/>
        <pt x="225" y="167" on="1"/>
        <pt x="92" y="363" on="0"/>
        <pt x="92" y="744" on="1"/>
        <pt x="92" y="1126" on="0"/>
        <pt x="225" y="1325" on="1"/>
        <pt x="295" y="1428" on="0"/>
        <pt x="494" y="1520" on="0"/>
        <pt x="616" y="1520" on="1"/>
        <pt x="875" y="1520" on="0"/>
        <pt x="1009" y="1324" on="1"/>
        <pt x="1141" y="1128" on="0"/>
        <pt x="1141" y="745" on="1"/>
        <pt x="1141" y="482" on="0"/>
        <pt x="1015" y="128" on="0"/>
        <pt x="895" y="51" on="1"/>
        <pt x="1181" y="-281" on="1"/>
        <pt x="839" y="-281" on="1"/>
      </contour>
      <contour>
        <pt x="616" y="236" on="1"/>
        <pt x="730" y="236" on="0"/>
        <pt x="782" y="357" on="1"/>
        <pt x="834" y="474" on="0"/>
        <pt x="834" y="746" on="1"/>
        <pt x="834" y="1017" on="0"/>
        <pt x="782" y="1134" on="1"/>
        <pt x="730" y="1255" on="0"/>
        <pt x="616" y="1255" on="1"/>
        <pt x="504" y="1255" on="0"/>
        <pt x="451" y="1134" on="1"/>
        <pt x="399" y="1017" on="0"/>
        <pt x="399" y="746" on="1"/>
        <pt x="399" y="474" on="0"/>
        <pt x="451" y="357" on="1"/>
        <pt x="503" y="236" on="0"/>
      </contour>
    </TTGlyph>
    <TTGlyph name="uni0052" xMin="133" yMin="0" xMax="1233" yMax="1493">
      <contour>
        <pt x="133" y="1493" on="1"/>
        <pt x="559" y="1493" on="1"/>
        <pt x="847" y="1493" on="0"/>
        <pt x="973" y="1391" on="1"/>
        <pt x="1036" y="1340" on="0"/>
        <pt x="1098" y="1173" on="0"/>
        <pt x="1098" y="1064" on="1"/>
        <pt x="1098" y="980" on="0"/>
        <pt x="1061" y="860" on="0"/>
        <pt x="1023" y="814" on="1"/>
        <pt x="987" y="770" on="0"/>
        <pt x="882" y="715" on="0"/>
        <pt x="807" y="705" on="1"/>
        <pt x="854" y="694" on="0"/>
        <pt x="884" y="664" on="1"/>
        <pt x="899" y="649" on="0"/>
        <pt x="938" y="587" on="0"/>
        <pt x="963" y="537" on="1"/>
        <pt x="1233" y="0" on="1"/>
        <pt x="909" y="0" on="1"/>
        <pt x="729" y="377" on="1"/>
        <pt x="708" y="421" on="1"/>
        <pt x="666" y="507" on="0"/>
        <pt x="578" y="590" on="0"/>
        <pt x="522" y="590" on="1"/>
        <pt x="428" y="590" on="1"/>
        <pt x="428" y="0" on="1"/>
        <pt x="133" y="0" on="1"/>
      </contour>
      <contour>
        <pt x="567" y="838" on="1"/>
        <pt x="688" y="838" on="0"/>
        <pt x="741" y="886" on="1"/>
        <pt x="765" y="908" on="0"/>
        <pt x="793" y="982" on="0"/>
        <pt x="793" y="1042" on="1"/>
        <pt x="793" y="1152" on="0"/>
        <pt x="741" y="1198" on="1"/>
        <pt x="688" y="1245" on="0"/>
        <pt x="567" y="1245" on="1"/>
        <pt x="428" y="1245" on="1"/>
        <pt x="428" y="838" on="1"/>
      </contour>
    </TTGlyph>
    <TTGlyph name="uni0053" xMin="129" yMin="-29" xMax="1110" yMax="1520">
      <contour>
        <pt x="582" y="-29" on="1"/>
        <pt x="522" y="-29" on="0"/>
        <pt x="408" y="-17" on="0"/>
        <pt x="351" y="-3" on="1"/>
        <pt x="235" y="24" on="0"/>
        <pt x="135" y="76" on="1"/>
        <pt x="135" y="381" on="1"/>
        <pt x="254" y="297" on="0"/>
        <pt x="364" y="256" on="1"/>
        <pt x="476" y="215" on="0"/>
        <pt x="580" y="215" on="1"/>
        <pt x="690" y="215" on="0"/>
        <pt x="751" y="265" on="1"/>
        <pt x="811" y="314" on="0"/>
        <pt x="811" y="403" on="1"/>
        <pt x="811" y="472" on="0"/>
        <pt x="771" y="521" on="1"/>
        <pt x="750" y="547" on="0"/>
        <pt x="691" y="586" on="0"/>
        <pt x="655" y="600" on="1"/>
        <pt x="510" y="655" on="1"/>
        <pt x="395" y="699" on="0"/>
        <pt x="247" y="788" on="0"/>
        <pt x="208" y="834" on="1"/>
        <pt x="129" y="925" on="0"/>
        <pt x="129" y="1085" on="1"/>
        <pt x="129" y="1289" on="0"/>
        <pt x="259" y="1404" on="1"/>
        <pt x="390" y="1520" on="0"/>
        <pt x="615" y="1520" on="1"/>
        <pt x="726" y="1520" on="0"/>
        <pt x="919" y="1476" on="0"/>
        <pt x="1026" y="1427" on="1"/>
        <pt x="1026" y="1139" on="1"/>
        <pt x="834" y="1276" on="0"/>
        <pt x="638" y="1276" on="1"/>
        <pt x="530" y="1276" on="0"/>
        <pt x="475" y="1233" on="1"/>
        <pt x="418" y="1190" on="0"/>
        <pt x="418" y="1111" on="1"/>
        <pt x="418" y="1048" on="0"/>
        <pt x="460" y="1008" on="1"/>
        <pt x="480" y="988" on="0"/>
        <pt x="559" y="946" on="0"/>
        <pt x="633" y="918" on="1"/>
        <pt x="760" y="870" on="1"/>
        <pt x="941" y="803" on="0"/>
        <pt x="1025" y="696" on="1"/>
        <pt x="1110" y="587" on="0"/>
        <pt x="1110" y="415" on="1"/>
        <pt x="1110" y="194" on="0"/>
        <pt x="976" y="83" on="1"/>
        <pt x="842" y="-29" on="0"/>
      </contour>
    </TTGlyph>
    <TTGlyph name="uni0054" xMin="90" yMin="0" xMax="1143" yMax="1493">
      <contour>
        <pt x="469" y="1235" on="1"/>
        <pt x="90" y="1235" on="1"/>
        <pt x="90" y="1493" on="1"/>
        <pt x="1143" y="1493" on="1"/>
        <pt x="1143" y="1235" on="1"/>
        <pt x="764" y="1235" on="1"/>
        <pt x="764" y="0" on="1"/>
        <pt x="469" y="0" on="1"/>
      </contour>
    </TTGlyph>
    <TTGlyph name="uni0055" xMin="106" yMin="-29" xMax="1126" yMax="1493">
      <contour>
        <pt x="616" y="-29" on="1"/>
        <pt x="350" y="-29" on="0"/>
        <pt x="228" y="109" on="1"/>
        <pt x="106" y="249" on="0"/>
        <pt x="106" y="551" on="1"/>
        <pt x="106" y="1493" on="1"/>
        <pt x="401" y="1493" on="1"/>
        <pt x="401" y="477" on="1"/>
        <pt x="401" y="364" on="0"/>
        <pt x="458" y="301" on="1"/>
        <pt x="515" y="238" on="0"/>
        <pt x="616" y="238" on="1"/>
        <pt x="717" y="238" on="0"/>
        <pt x="774" y="301" on="1"/>
        <pt x="831" y="364" on="0"/>
        <pt x="831" y="477" on="1"/>
        <pt x="831" y="1493" on="1"/>
        <pt x="1126" y="1493" on="1"/>
        <pt x="1126" y="551" on="1"/>
        <pt x="1126" y="245" on="0"/>
        <pt x="1005" y="109" on="1"/>
        <pt x="884" y="-29" on="0"/>
      </contour>
    </TTGlyph>
    <TTGlyph name="uni0056" xMin="57" yMin="0" xMax="1176" yMax="1493">
      <contour>
        <pt x="57" y="1493" on="1"/>
        <pt x="354" y="1493" on="1"/>
        <pt x="616" y="246" on="1"/>
        <pt x="879" y="1493" on="1"/>
        <pt x="1176" y="1493" on="1"/>
        <pt x="821" y="0" on="1"/>
        <pt x="412" y="0" on="1"/>
      </contour>
    </TTGlyph>
    <TTGlyph name="uni0057" xMin="0" yMin="0" xMax="1233" yMax="1493">
      <contour>
        <pt x="0" y="1493" on="1"/>
        <pt x="258" y="1493" on="1"/>
        <pt x="365" y="397" on="1"/>
        <pt x="494" y="1106" on="1"/>
        <pt x="739" y="1106" on="1"/>
        <pt x="889" y="397" on="1"/>
        <pt x="973" y="1493" on="1"/>
        <pt x="1233" y="1493" on="1"/>
        <pt x="1061" y="0" on="1"/>
        <pt x="786" y="0" on="1"/>
        <pt x="616" y="784" on="1"/>
        <pt x="457" y="0" on="1"/>
        <pt x="184" y="0" on="1"/>
      </contour>
    </TTGlyph>
    <TTGlyph name="uni0058" xMin="27" yMin="0" xMax="1206" yMax="1493">
      <contour>
        <pt x="465" y="758" on="1"/>
        <pt x="39" y="1493" on="1"/>
        <pt x="344" y="1493" on="1"/>
        <pt x="616" y="1018" on="1"/>
        <pt x="889" y="1493" on="1"/>
        <pt x="1194" y="1493" on="1"/>
        <pt x="770" y="758" on="1"/>
        <pt x="1206" y="0" on="1"/>
        <pt x="901" y="0" on="1"/>
        <pt x="616" y="494" on="1"/>
        <pt x="332" y="0" on="1"/>
        <pt x="27" y="0" on="1"/>
      </contour>
    </TTGlyph>
    <TTGlyph name="uni0059" xMin="8" yMin="0" xMax="1225" yMax="1493">
      <contour>
        <pt x="469" y="588" on="1"/>
        <pt x="8" y="1493" on="1"/>
        <pt x="326" y="1493" on="1"/>
        <pt x="616" y="893" on="1"/>
        <pt x="907" y="1493" on="1"/>
        <pt x="1225" y="1493" on="1"/>
        <pt x="764" y="588" on="1"/>
        <pt x="764" y="0" on="1"/>
        <pt x="469" y="0" on="1"/>
      </contour>
    </TTGlyph>
    <TTGlyph name="uni005A" xMin="94" yMin="0" xMax="1140" yMax="1493">
      <contour>
        <pt x="94" y="244" on="1"/>
        <pt x="765" y="1233" on="1"/>
        <pt x="116" y="1233" on="1"/>
        <pt x="116" y="1493" on="1"/>
        <pt x="1126" y="1493" on="1"/>
        <pt x="1126" y="1249" on="1"/>
        <pt x="434" y="260" on="1"/>
        <pt x="1140" y="260" on="1"/>
        <pt x="1140" y="0" on="1"/>
        <pt x="94" y="0" on="1"/>
      </contour>
    </TTGlyph>
    <TTGlyph name="uni005B" xMin="384" yMin="-270" xMax="887" yMax="1636">
      <contour>
        <pt x="384" y="1636" on="1"/>
        <pt x="887" y="1636" on="1"/>
        <pt x="887" y="1446" on="1"/>
        <pt x="649" y="1446" on="1"/>
        <pt x="649" y="-85" on="1"/>
        <pt x="887" y="-85" on="1"/>
        <pt x="887" y="-270" on="1"/>
        <pt x="384" y="-270" on="1"/>
      </contour>
    </TTGlyph>
    <TTGlyph name="uni005C" xMin="112" yMin="-190" xMax="1121" yMax="1493">
      <contour>
        <pt x="112" y="1493" on="1"/>
        <pt x="335" y="1493" on="1"/>
        <pt x="1121" y="-190" on="1"/>
        <pt x="898" y="-190" on="1"/>
      </contour>
    </TTGlyph>
    <TTGlyph name="uni005D" xMin="344" yMin="-270" xMax="849" yMax="1635">
      <contour>
        <pt x="344" y="-83" on="1"/>
        <pt x="587" y="-83" on="1"/>
        <pt x="587" y="1445" on="1"/>
        <pt x="344" y="1445" on="1"/>
        <pt x="344" y="1635" on="1"/>
        <pt x="849" y="1635" on="1"/>
        <pt x="849" y="-270" on="1"/>
        <pt x="344" y="-270" on="1"/>
      </contour>
    </TTGlyph>
    <TTGlyph name="uni005E" xMin="57" yMin="936" xMax="1176" yMax="1493">
      <contour>
        <pt x="494" y="1493" on="1"/>
        <pt x="739" y="1493" on="1"/>
        <pt x="1176" y="936" on="1"/>
        <pt x="934" y="936" on="1"/>
        <pt x="616" y="1237" on="1"/>
        <pt x="299" y="936" on="1"/>
        <pt x="57" y="936" on="1"/>
      </contour>
    </TTGlyph>
    <TTGlyph name="uni005F" xMin="94" yMin="-390" xMax="1138" yMax="-190">
      <contour>
        <pt x="94" y="-190" on="1"/>
        <pt x="1138" y="-190" on="1"/>
        <pt x="1138" y="-390" on="1"/>
        <pt x="94" y="-390" on="1"/>
      </contour>
    </TTGlyph>
    <TTGlyph name="uni0060" xMin="199" yMin="1262" xMax="764" yMax="1638">
      <contour>
        <pt x="199" y="1638" on="1"/>
        <pt x="481" y="1638" on="1"/>
        <pt x="764" y="1262" on="1"/>
        <pt x="567" y="1262" on="1"/>
      </contour>
    </TTGlyph>
    <TTGlyph name="uni0061" xMin="95" yMin="-29" xMax="1155" yMax="1148">
      <contour>
        <pt x="494" y="-29" on="1"/>
        <pt x="309" y="-29" on="0"/>
        <pt x="202" y="72" on="1"/>
        <pt x="95" y="173" on="0"/>
        <pt x="95" y="354" on="1"/>
        <pt x="95" y="450" on="0"/>
        <pt x="156" y="596" on="0"/>
        <pt x="222" y="644" on="1"/>
        <pt x="350" y="737" on="0"/>
        <pt x="615" y="737" on="1"/>
        <pt x="818" y="737" on="1"/>
        <pt x="818" y="786" on="1"/>
        <pt x="818" y="857" on="0"/>
        <pt x="767" y="894" on="1"/>
        <pt x="717" y="930" on="0"/>
        <pt x="610" y="930" on="1"/>
        <pt x="511" y="930" on="0"/>
        <pt x="412" y="904" on="1"/>
        <pt x="316" y="878" on="0"/>
        <pt x="206" y="819" on="1"/>
        <pt x="206" y="1069" on="1"/>
        <pt x="248" y="1086" on="0"/>
        <pt x="353" y="1119" on="0"/>
        <pt x="403" y="1128" on="1"/>
        <pt x="444" y="1136" on="0"/>
        <pt x="562" y="1148" on="0"/>
        <pt x="628" y="1148" on="1"/>
        <pt x="768" y="1148" on="0"/>
        <pt x="944" y="1085" on="0"/>
        <pt x="997" y="1035" on="1"/>
        <pt x="1051" y="981" on="0"/>
        <pt x="1109" y="800" on="0"/>
        <pt x="1109" y="644" on="1"/>
        <pt x="1109" y="616" on="0"/>
        <pt x="1107" y="509" on="0"/>
        <pt x="1106" y="390" on="0"/>
        <pt x="1104" y="292" on="0"/>
        <pt x="1104" y="274" on="1"/>
        <pt x="1104" y="253" on="0"/>
        <pt x="1105" y="211" on="0"/>
        <pt x="1106" y="197" on="1"/>
        <pt x="1108" y="177" on="0"/>
        <pt x="1111" y="138" on="0"/>
        <pt x="1113" y="125" on="1"/>
        <pt x="1119" y="84" on="0"/>
        <pt x="1127" y="58" on="1"/>
        <pt x="1132" y="43" on="0"/>
        <pt x="1147" y="11" on="0"/>
        <pt x="1155" y="0" on="1"/>
        <pt x="865" y="0" on="1"/>
        <pt x="846" y="32" on="0"/>
        <pt x="837" y="58" on="1"/>
        <pt x="834" y="68" on="0"/>
        <pt x="826" y="105" on="0"/>
        <pt x="824" y="125" on="1"/>
        <pt x="768" y="51" on="0"/>
        <pt x="682" y="11" on="1"/>
        <pt x="640" y="-9" on="0"/>
        <pt x="551" y="-29" on="0"/>
      </contour>
      <contour>
        <pt x="576" y="174" on="1"/>
        <pt x="691" y="174" on="0"/>
        <pt x="754" y="262" on="1"/>
        <pt x="818" y="347" on="0"/>
        <pt x="818" y="506" on="1"/>
        <pt x="818" y="526" on="1"/>
        <pt x="701" y="526" on="1"/>
        <pt x="536" y="526" on="0"/>
        <pt x="472" y="484" on="1"/>
        <pt x="407" y="442" on="0"/>
        <pt x="407" y="342" on="1"/>
        <pt x="407" y="264" on="0"/>
        <pt x="452" y="219" on="1"/>
        <pt x="497" y="174" on="0"/>
      </contour>
    </TTGlyph>
    <TTGlyph name="uni0062" xMin="150" yMin="-29" xMax="1143" yMax="1556">
      <contour>
        <pt x="740" y="-29" on="1"/>
        <pt x="636" y="-29" on="0"/>
        <pt x="563" y="20" on="1"/>
        <pt x="488" y="69" on="0"/>
        <pt x="442" y="166" on="1"/>
        <pt x="413" y="0" on="1"/>
        <pt x="150" y="0" on="1"/>
        <pt x="150" y="1556" on="1"/>
        <pt x="442" y="1556" on="1"/>
        <pt x="442" y="961" on="1"/>
        <pt x="495" y="1054" on="0"/>
        <pt x="568" y="1101" on="1"/>
        <pt x="638" y="1147" on="0"/>
        <pt x="735" y="1147" on="1"/>
        <pt x="928" y="1147" on="0"/>
        <pt x="1036" y="995" on="1"/>
        <pt x="1087" y="923" on="0"/>
        <pt x="1143" y="706" on="0"/>
        <pt x="1143" y="560" on="1"/>
        <pt x="1143" y="423" on="0"/>
        <pt x="1091" y="202" on="0"/>
        <pt x="1037" y="124" on="1"/>
        <pt x="930" y="-29" on="0"/>
      </contour>
      <contour>
        <pt x="647" y="211" on="1"/>
        <pt x="742" y="211" on="0"/>
        <pt x="796" y="303" on="1"/>
        <pt x="850" y="394" on="0"/>
        <pt x="850" y="557" on="1"/>
        <pt x="850" y="719" on="0"/>
        <pt x="742" y="903" on="0"/>
        <pt x="647" y="903" on="1"/>
        <pt x="553" y="903" on="0"/>
        <pt x="497" y="811" on="1"/>
        <pt x="442" y="720" on="0"/>
        <pt x="442" y="557" on="1"/>
        <pt x="442" y="394" on="0"/>
        <pt x="497" y="303" on="1"/>
        <pt x="553" y="211" on="0"/>
      </contour>
    </TTGlyph>
    <TTGlyph name="uni0063" xMin="148" yMin="-29" xMax="1041" yMax="1149">
      <contour>
        <pt x="702" y="-29" on="1"/>
        <pt x="440" y="-29" on="0"/>
        <pt x="294" y="127" on="1"/>
        <pt x="148" y="285" on="0"/>
        <pt x="148" y="559" on="1"/>
        <pt x="148" y="836" on="0"/>
        <pt x="295" y="993" on="1"/>
        <pt x="442" y="1149" on="0"/>
        <pt x="699" y="1149" on="1"/>
        <pt x="791" y="1149" on="0"/>
        <pt x="875" y="1128" on="1"/>
        <pt x="958" y="1107" on="0"/>
        <pt x="1041" y="1063" on="1"/>
        <pt x="1041" y="795" on="1"/>
        <pt x="910" y="909" on="0"/>
        <pt x="741" y="909" on="1"/>
        <pt x="666" y="909" on="0"/>
        <pt x="559" y="862" on="0"/>
        <pt x="522" y="818" on="1"/>
        <pt x="445" y="726" on="0"/>
        <pt x="445" y="559" on="1"/>
        <pt x="445" y="393" on="0"/>
        <pt x="522" y="301" on="1"/>
        <pt x="598" y="211" on="0"/>
        <pt x="742" y="211" on="1"/>
        <pt x="825" y="211" on="0"/>
        <pt x="901" y="240" on="1"/>
        <pt x="933" y="252" on="0"/>
        <pt x="1006" y="294" on="0"/>
        <pt x="1041" y="326" on="1"/>
        <pt x="1041" y="57" on="1"/>
        <pt x="964" y="13" on="0"/>
        <pt x="801" y="-29" on="0"/>
      </contour>
    </TTGlyph>
    <TTGlyph name="uni0064" xMin="90" yMin="-29" xMax="1083" yMax="1556">
      <contour>
        <pt x="492" y="-29" on="1"/>
        <pt x="303" y="-29" on="0"/>
        <pt x="196" y="124" on="1"/>
        <pt x="90" y="276" on="0"/>
        <pt x="90" y="560" on="1"/>
        <pt x="90" y="844" on="0"/>
        <pt x="198" y="995" on="1"/>
        <pt x="249" y="1067" on="0"/>
        <pt x="399" y="1147" on="0"/>
        <pt x="498" y="1147" on="1"/>
        <pt x="595" y="1147" on="0"/>
        <pt x="666" y="1101" on="1"/>
        <pt x="737" y="1054" on="0"/>
        <pt x="791" y="961" on="1"/>
        <pt x="791" y="1556" on="1"/>
        <pt x="1083" y="1556" on="1"/>
        <pt x="1083" y="0" on="1"/>
        <pt x="820" y="0" on="1"/>
        <pt x="791" y="166" on="1"/>
        <pt x="745" y="70" on="0"/>
        <pt x="670" y="20" on="1"/>
        <pt x="597" y="-29" on="0"/>
      </contour>
      <contour>
        <pt x="586" y="211" on="1"/>
        <pt x="680" y="211" on="0"/>
        <pt x="736" y="303" on="1"/>
        <pt x="791" y="394" on="0"/>
        <pt x="791" y="557" on="1"/>
        <pt x="791" y="720" on="0"/>
        <pt x="736" y="811" on="1"/>
        <pt x="680" y="903" on="0"/>
        <pt x="586" y="903" on="1"/>
        <pt x="491" y="903" on="0"/>
        <pt x="383" y="719" on="0"/>
        <pt x="383" y="557" on="1"/>
        <pt x="383" y="394" on="0"/>
        <pt x="437" y="303" on="1"/>
        <pt x="491" y="211" on="0"/>
      </contour>
    </TTGlyph>
    <TTGlyph name="uni0065" xMin="82" yMin="-29" xMax="1144" yMax="1152">
      <contour>
        <pt x="665" y="-29" on="1"/>
        <pt x="519" y="-29" on="0"/>
        <pt x="306" y="46" on="0"/>
        <pt x="231" y="122" on="1"/>
        <pt x="82" y="274" on="0"/>
        <pt x="82" y="554" on="1"/>
        <pt x="82" y="829" on="0"/>
        <pt x="225" y="988" on="1"/>
        <pt x="368" y="1147" on="0"/>
        <pt x="617" y="1147" on="1"/>
        <pt x="776" y="1152" on="0"/>
        <pt x="1015" y="1014" on="0"/>
        <pt x="1144" y="756" on="0"/>
        <pt x="1139" y="584" on="1"/>
        <pt x="1139" y="465" on="1"/>
        <pt x="380" y="465" on="1"/>
        <pt x="381" y="333" on="0"/>
        <pt x="458" y="268" on="1"/>
        <pt x="535" y="203" on="0"/>
        <pt x="687" y="203" on="1"/>
        <pt x="786" y="203" on="0"/>
        <pt x="887" y="232" on="1"/>
        <pt x="933" y="246" on="0"/>
        <pt x="1035" y="290" on="0"/>
        <pt x="1092" y="324" on="1"/>
        <pt x="1092" y="55" on="1"/>
        <pt x="990" y="13" on="0"/>
        <pt x="884" y="-8" on="1"/>
        <pt x="830" y="-19" on="0"/>
        <pt x="719" y="-29" on="0"/>
      </contour>
      <contour>
        <pt x="844" y="685" on="1"/>
        <pt x="843" y="802" on="0"/>
        <pt x="785" y="861" on="1"/>
        <pt x="728" y="920" on="0"/>
        <pt x="617" y="920" on="1"/>
        <pt x="514" y="920" on="0"/>
        <pt x="454" y="859" on="1"/>
        <pt x="394" y="797" on="0"/>
        <pt x="383" y="684" on="1"/>
      </contour>
    </TTGlyph>
    <TTGlyph name="uni0066" xMin="154" yMin="0" xMax="1063" yMax="1556">
      <contour>
        <pt x="426" y="895" on="1"/>
        <pt x="154" y="895" on="1"/>
        <pt x="154" y="1120" on="1"/>
        <pt x="426" y="1120" on="1"/>
        <pt x="426" y="1198" on="1"/>
        <pt x="426" y="1400" on="0"/>
        <pt x="510" y="1478" on="1"/>
        <pt x="594" y="1556" on="0"/>
        <pt x="822" y="1556" on="1"/>
        <pt x="1063" y="1556" on="1"/>
        <pt x="1063" y="1331" on="1"/>
        <pt x="834" y="1331" on="1"/>
        <pt x="768" y="1331" on="0"/>
        <pt x="745" y="1307" on="1"/>
        <pt x="719" y="1281" on="0"/>
        <pt x="719" y="1218" on="1"/>
        <pt x="719" y="1120" on="1"/>
        <pt x="1063" y="1120" on="1"/>
        <pt x="1063" y="895" on="1"/>
        <pt x="719" y="895" on="1"/>
        <pt x="719" y="0" on="1"/>
        <pt x="426" y="0" on="1"/>
      </contour>
    </TTGlyph>
    <TTGlyph name="uni0067" xMin="98" yMin="-424" xMax="1096" yMax="1149">
      <contour>
        <pt x="578" y="-424" on="1"/>
        <pt x="534" y="-424" on="0"/>
        <pt x="443" y="-418" on="0"/>
        <pt x="398" y="-411" on="1"/>
        <pt x="308" y="-398" on="0"/>
        <pt x="215" y="-369" on="1"/>
        <pt x="215" y="-100" on="1"/>
        <pt x="257" y="-123" on="0"/>
        <pt x="343" y="-157" on="0"/>
        <pt x="384" y="-168" on="1"/>
        <pt x="427" y="-179" on="0"/>
        <pt x="515" y="-190" on="0"/>
        <pt x="556" y="-190" on="1"/>
        <pt x="686" y="-190" on="0"/>
        <pt x="744" y="-132" on="1"/>
        <pt x="803" y="-73" on="0"/>
        <pt x="803" y="51" on="1"/>
        <pt x="803" y="172" on="1"/>
        <pt x="759" y="92" on="0"/>
        <pt x="689" y="53" on="1"/>
        <pt x="618" y="14" on="0"/>
        <pt x="517" y="14" on="1"/>
        <pt x="324" y="14" on="0"/>
        <pt x="211" y="164" on="1"/>
        <pt x="98" y="313" on="0"/>
        <pt x="98" y="573" on="1"/>
        <pt x="98" y="835" on="0"/>
        <pt x="211" y="993" on="1"/>
        <pt x="325" y="1149" on="0"/>
        <pt x="512" y="1149" on="1"/>
        <pt x="610" y="1149" on="0"/>
        <pt x="760" y="1059" on="0"/>
        <pt x="803" y="977" on="1"/>
        <pt x="832" y="1120" on="1"/>
        <pt x="1096" y="1120" on="1"/>
        <pt x="1096" y="84" on="1"/>
        <pt x="1096" y="-185" on="0"/>
        <pt x="975" y="-305" on="1"/>
        <pt x="853" y="-424" on="0"/>
      </contour>
      <contour>
        <pt x="596" y="246" on="1"/>
        <pt x="689" y="246" on="0"/>
        <pt x="746" y="337" on="1"/>
        <pt x="774" y="382" on="0"/>
        <pt x="803" y="499" on="0"/>
        <pt x="803" y="577" on="1"/>
        <pt x="803" y="727" on="0"/>
        <pt x="746" y="819" on="1"/>
        <pt x="689" y="909" on="0"/>
        <pt x="596" y="909" on="1"/>
        <pt x="504" y="909" on="0"/>
        <pt x="448" y="819" on="1"/>
        <pt x="391" y="729" on="0"/>
        <pt x="391" y="578" on="1"/>
        <pt x="391" y="426" on="0"/>
        <pt x="448" y="336" on="1"/>
        <pt x="504" y="246" on="0"/>
      </contour>
    </TTGlyph>
    <TTGlyph name="uni0068" xMin="172" yMin="0" xMax="1071" yMax="1556">
      <contour>
        <pt x="172" y="1556" on="1"/>
        <pt x="463" y="1556" on="1"/>
        <pt x="463" y="952" on="1"/>
        <pt x="494" y="1044" on="0"/>
        <pt x="569" y="1096" on="1"/>
        <pt x="644" y="1147" on="0"/>
        <pt x="751" y="1147" on="1"/>
        <pt x="909" y="1147" on="0"/>
        <pt x="990" y="1042" on="1"/>
        <pt x="1071" y="936" on="0"/>
        <pt x="1071" y="727" on="1"/>
        <pt x="1071" y="0" on="1"/>
        <pt x="780" y="0" on="1"/>
        <pt x="780" y="682" on="1"/>
        <pt x="780" y="803" on="0"/>
        <pt x="746" y="855" on="1"/>
        <pt x="712" y="907" on="0"/>
        <pt x="635" y="907" on="1"/>
        <pt x="553" y="907" on="0"/>
        <pt x="508" y="837" on="1"/>
        <pt x="463" y="766" on="0"/>
        <pt x="463" y="641" on="1"/>
        <pt x="463" y="0" on="1"/>
        <pt x="172" y="0" on="1"/>
      </contour>
    </TTGlyph>
    <TTGlyph name="uni0069" xMin="184" yMin="-12" xMax="1128" yMax="1595">
      <contour>
        <pt x="451" y="1253" on="1"/>
        <pt x="421" y="1253" on="0"/>
        <pt x="421" y="1283" on="1"/>
        <pt x="421" y="1565" on="1"/>
        <pt x="421" y="1595" on="0"/>
        <pt x="451" y="1595" on="1"/>
        <pt x="684" y="1595" on="1"/>
        <pt x="714" y="1595" on="0"/>
        <pt x="714" y="1565" on="1"/>
        <pt x="714" y="1283" on="1"/>
        <pt x="714" y="1253" on="0"/>
        <pt x="684" y="1253" on="1"/>
      </contour>
      <contour>
        <pt x="812" y="-12" on="1"/>
        <pt x="604" y="-12" on="0"/>
        <pt x="512" y="96" on="1"/>
        <pt x="421" y="202" on="0"/>
        <pt x="421" y="455" on="1"/>
        <pt x="421" y="895" on="1"/>
        <pt x="184" y="895" on="1"/>
        <pt x="184" y="1120" on="1"/>
        <pt x="714" y="1120" on="1"/>
        <pt x="714" y="455" on="1"/>
        <pt x="714" y="324" on="0"/>
        <pt x="755" y="268" on="1"/>
        <pt x="795" y="213" on="0"/>
        <pt x="894" y="213" on="1"/>
        <pt x="1128" y="213" on="1"/>
        <pt x="1128" y="-12" on="1"/>
      </contour>
    </TTGlyph>
    <TTGlyph name="uni006A" xMin="170" yMin="-424" xMax="877" yMax="1595">
      <contour>
        <pt x="614" y="1253" on="1"/>
        <pt x="584" y="1253" on="0"/>
        <pt x="584" y="1283" on="1"/>
        <pt x="584" y="1565" on="1"/>
        <pt x="584" y="1595" on="0"/>
        <pt x="614" y="1595" on="1"/>
        <pt x="847" y="1595" on="1"/>
        <pt x="877" y="1595" on="0"/>
        <pt x="877" y="1565" on="1"/>
        <pt x="877" y="1283" on="1"/>
        <pt x="877" y="1253" on="0"/>
        <pt x="847" y="1253" on="1"/>
      </contour>
      <contour>
        <pt x="170" y="-199" on="1"/>
        <pt x="404" y="-199" on="1"/>
        <pt x="503" y="-199" on="0"/>
        <pt x="543" y="-144" on="1"/>
        <pt x="584" y="-88" on="0"/>
        <pt x="584" y="43" on="1"/>
        <pt x="584" y="895" on="1"/>
        <pt x="287" y="895" on="1"/>
        <pt x="287" y="1120" on="1"/>
        <pt x="877" y="1120" on="1"/>
        <pt x="877" y="43" on="1"/>
        <pt x="877" y="-209" on="0"/>
        <pt x="787" y="-317" on="1"/>
        <pt x="743" y="-369" on="0"/>
        <pt x="593" y="-424" on="0"/>
        <pt x="486" y="-424" on="1"/>
        <pt x="170" y="-424" on="1"/>
      </contour>
    </TTGlyph>
    <TTGlyph name="uni006B" xMin="174" yMin="0" xMax="1198" yMax="1556">
      <contour>
        <pt x="174" y="1556" on="1"/>
        <pt x="467" y="1556" on="1"/>
        <pt x="467" y="739" on="1"/>
        <pt x="819" y="1120" on="1"/>
        <pt x="1174" y="1120" on="1"/>
        <pt x="750" y="702" on="1"/>
        <pt x="1198" y="0" on="1"/>
        <pt x="874" y="0" on="1"/>
        <pt x="567" y="524" on="1"/>
        <pt x="467" y="428" on="1"/>
        <pt x="467" y="0" on="1"/>
        <pt x="174" y="0" on="1"/>
      </contour>
    </TTGlyph>
    <TTGlyph name="uni006C" xMin="100" yMin="-8" xMax="1104" yMax="1556">
      <contour>
        <pt x="788" y="-8" on="1"/>
        <pt x="580" y="-8" on="0"/>
        <pt x="488" y="100" on="1"/>
        <pt x="397" y="206" on="0"/>
        <pt x="397" y="459" on="1"/>
        <pt x="397" y="1331" on="1"/>
        <pt x="100" y="1331" on="1"/>
        <pt x="100" y="1556" on="1"/>
        <pt x="690" y="1556" on="1"/>
        <pt x="690" y="459" on="1"/>
        <pt x="690" y="328" on="0"/>
        <pt x="731" y="272" on="1"/>
        <pt x="771" y="217" on="0"/>
        <pt x="870" y="217" on="1"/>
        <pt x="1104" y="217" on="1"/>
        <pt x="1104" y="-8" on="1"/>
      </contour>
    </TTGlyph>
    <TTGlyph name="uni006D" xMin="82" yMin="0" xMax="1155" yMax="1147">
      <contour>
        <pt x="82" y="1120" on="1"/>
        <pt x="266" y="1120" on="1"/>
        <pt x="295" y="1004" on="1"/>
        <pt x="320" y="1071" on="0"/>
        <pt x="375" y="1109" on="1"/>
        <pt x="400" y="1126" on="0"/>
        <pt x="463" y="1147" on="0"/>
        <pt x="499" y="1147" on="1"/>
        <pt x="567" y="1147" on="0"/>
        <pt x="622" y="1107" on="1"/>
        <pt x="678" y="1066" on="0"/>
        <pt x="690" y="1008" on="1"/>
        <pt x="723" y="1078" on="0"/>
        <pt x="774" y="1113" on="1"/>
        <pt x="823" y="1147" on="0"/>
        <pt x="902" y="1147" on="1"/>
        <pt x="1045" y="1147" on="0"/>
        <pt x="1100" y="1047" on="1"/>
        <pt x="1129" y="994" on="0"/>
        <pt x="1155" y="787" on="0"/>
        <pt x="1155" y="631" on="1"/>
        <pt x="1155" y="0" on="1"/>
        <pt x="915" y="0" on="1"/>
        <pt x="915" y="719" on="1"/>
        <pt x="915" y="785" on="0"/>
        <pt x="906" y="863" on="0"/>
        <pt x="896" y="885" on="1"/>
        <pt x="877" y="928" on="0"/>
        <pt x="827" y="928" on="1"/>
        <pt x="798" y="928" on="0"/>
        <pt x="766" y="904" on="0"/>
        <pt x="757" y="884" on="1"/>
        <pt x="737" y="841" on="0"/>
        <pt x="737" y="719" on="1"/>
        <pt x="737" y="0" on="1"/>
        <pt x="500" y="0" on="1"/>
        <pt x="500" y="719" on="1"/>
        <pt x="500" y="839" on="0"/>
        <pt x="480" y="885" on="1"/>
        <pt x="461" y="928" on="0"/>
        <pt x="410" y="928" on="1"/>
        <pt x="360" y="928" on="0"/>
        <pt x="341" y="886" on="1"/>
        <pt x="322" y="847" on="0"/>
        <pt x="322" y="719" on="1"/>
        <pt x="322" y="0" on="1"/>
        <pt x="82" y="0" on="1"/>
      </contour>
    </TTGlyph>
    <TTGlyph name="uni006E" xMin="172" yMin="0" xMax="1071" yMax="1147">
      <contour>
        <pt x="172" y="1120" on="1"/>
        <pt x="434" y="1120" on="1"/>
        <pt x="463" y="952" on="1"/>
        <pt x="494" y="1044" on="0"/>
        <pt x="569" y="1096" on="1"/>
        <pt x="644" y="1147" on="0"/>
        <pt x="751" y="1147" on="1"/>
        <pt x="909" y="1147" on="0"/>
        <pt x="990" y="1042" on="1"/>
        <pt x="1071" y="936" on="0"/>
        <pt x="1071" y="727" on="1"/>
        <pt x="1071" y="0" on="1"/>
        <pt x="780" y="0" on="1"/>
        <pt x="780" y="682" on="1"/>
        <pt x="780" y="805" on="0"/>
        <pt x="746" y="857" on="1"/>
        <pt x="712" y="909" on="0"/>
        <pt x="636" y="909" on="1"/>
        <pt x="556" y="909" on="0"/>
        <pt x="509" y="838" on="1"/>
        <pt x="487" y="804" on="0"/>
        <pt x="463" y="710" on="0"/>
        <pt x="463" y="641" on="1"/>
        <pt x="463" y="0" on="1"/>
        <pt x="172" y="0" on="1"/>
      </contour>
    </TTGlyph>
    <TTGlyph name="uni006F" xMin="98" yMin="-29" xMax="1135" yMax="1147">
      <contour>
        <pt x="617" y="-29" on="1"/>
        <pt x="489" y="-29" on="0"/>
        <pt x="301" y="58" on="0"/>
        <pt x="238" y="129" on="1"/>
        <pt x="168" y="208" on="0"/>
        <pt x="98" y="428" on="0"/>
        <pt x="98" y="560" on="1"/>
        <pt x="98" y="740" on="0"/>
        <pt x="225" y="1003" on="0"/>
        <pt x="458" y="1147" on="0"/>
        <pt x="616" y="1147" on="1"/>
        <pt x="857" y="1147" on="0"/>
        <pt x="1135" y="836" on="0"/>
        <pt x="1135" y="559" on="1"/>
        <pt x="1135" y="289" on="0"/>
        <pt x="996" y="130" on="1"/>
        <pt x="930" y="55" on="0"/>
        <pt x="739" y="-29" on="0"/>
      </contour>
      <contour>
        <pt x="616" y="209" on="1"/>
        <pt x="722" y="209" on="0"/>
        <pt x="782" y="301" on="1"/>
        <pt x="842" y="394" on="0"/>
        <pt x="842" y="560" on="1"/>
        <pt x="842" y="724" on="0"/>
        <pt x="782" y="817" on="1"/>
        <pt x="751" y="865" on="0"/>
        <pt x="667" y="909" on="0"/>
        <pt x="616" y="909" on="1"/>
        <pt x="560" y="909" on="0"/>
        <pt x="479" y="860" on="0"/>
        <pt x="451" y="817" on="1"/>
        <pt x="391" y="724" on="0"/>
        <pt x="391" y="560" on="1"/>
        <pt x="391" y="394" on="0"/>
        <pt x="451" y="301" on="1"/>
        <pt x="511" y="209" on="0"/>
      </contour>
    </TTGlyph>
    <TTGlyph name="uni0070" xMin="150" yMin="-426" xMax="1143" yMax="1147">
      <contour>
        <pt x="150" y="1120" on="1"/>
        <pt x="413" y="1120" on="1"/>
        <pt x="442" y="952" on="1"/>
        <pt x="488" y="1049" on="0"/>
        <pt x="563" y="1098" on="1"/>
        <pt x="636" y="1147" on="0"/>
        <pt x="740" y="1147" on="1"/>
        <pt x="930" y="1147" on="0"/>
        <pt x="1037" y="994" on="1"/>
        <pt x="1091" y="916" on="0"/>
        <pt x="1143" y="695" on="0"/>
        <pt x="1143" y="558" on="1"/>
        <pt x="1143" y="412" on="0"/>
        <pt x="1087" y="195" on="0"/>
        <pt x="1036" y="123" on="1"/>
        <pt x="981" y="45" on="0"/>
        <pt x="826" y="-29" on="0"/>
        <pt x="735" y="-29" on="1"/>
        <pt x="688" y="-29" on="0"/>
        <pt x="605" y="-8" on="0"/>
        <pt x="567" y="18" on="1"/>
        <pt x="535" y="39" on="0"/>
        <pt x="468" y="110" on="0"/>
        <pt x="442" y="158" on="1"/>
        <pt x="442" y="-426" on="1"/>
        <pt x="150" y="-426" on="1"/>
      </contour>
      <contour>
        <pt x="647" y="215" on="1"/>
        <pt x="742" y="215" on="0"/>
        <pt x="796" y="307" on="1"/>
        <pt x="850" y="398" on="0"/>
        <pt x="850" y="561" on="1"/>
        <pt x="850" y="723" on="0"/>
        <pt x="742" y="907" on="0"/>
        <pt x="647" y="907" on="1"/>
        <pt x="553" y="907" on="0"/>
        <pt x="497" y="815" on="1"/>
        <pt x="442" y="724" on="0"/>
        <pt x="442" y="561" on="1"/>
        <pt x="442" y="398" on="0"/>
        <pt x="497" y="307" on="1"/>
        <pt x="553" y="215" on="0"/>
      </contour>
    </TTGlyph>
    <TTGlyph name="uni0071" xMin="90" yMin="-426" xMax="1083" yMax="1147">
      <contour>
        <pt x="791" y="158" on="1"/>
        <pt x="738" y="66" on="0"/>
        <pt x="666" y="18" on="1"/>
        <pt x="596" y="-29" on="0"/>
        <pt x="499" y="-29" on="1"/>
        <pt x="406" y="-29" on="0"/>
        <pt x="254" y="45" on="0"/>
        <pt x="198" y="123" on="1"/>
        <pt x="90" y="274" on="0"/>
        <pt x="90" y="558" on="1"/>
        <pt x="90" y="842" on="0"/>
        <pt x="196" y="994" on="1"/>
        <pt x="303" y="1147" on="0"/>
        <pt x="492" y="1147" on="1"/>
        <pt x="597" y="1147" on="0"/>
        <pt x="670" y="1098" on="1"/>
        <pt x="745" y="1048" on="0"/>
        <pt x="791" y="952" on="1"/>
        <pt x="820" y="1120" on="1"/>
        <pt x="1083" y="1120" on="1"/>
        <pt x="1083" y="-426" on="1"/>
        <pt x="791" y="-426" on="1"/>
      </contour>
      <contour>
        <pt x="586" y="215" on="1"/>
        <pt x="680" y="215" on="0"/>
        <pt x="736" y="307" on="1"/>
        <pt x="791" y="398" on="0"/>
        <pt x="791" y="561" on="1"/>
        <pt x="791" y="724" on="0"/>
        <pt x="736" y="815" on="1"/>
        <pt x="680" y="907" on="0"/>
        <pt x="586" y="907" on="1"/>
        <pt x="491" y="907" on="0"/>
        <pt x="383" y="723" on="0"/>
        <pt x="383" y="561" on="1"/>
        <pt x="383" y="398" on="0"/>
        <pt x="437" y="307" on="1"/>
        <pt x="491" y="215" on="0"/>
      </contour>
    </TTGlyph>
    <TTGlyph name="uni0072" xMin="241" yMin="0" xMax="1101" yMax="1147">
      <contour>
        <pt x="241" y="1120" on="1"/>
        <pt x="505" y="1120" on="1"/>
        <pt x="534" y="946" on="1"/>
        <pt x="577" y="1042" on="0"/>
        <pt x="666" y="1095" on="1"/>
        <pt x="755" y="1147" on="0"/>
        <pt x="871" y="1147" on="1"/>
        <pt x="936" y="1147" on="0"/>
        <pt x="992" y="1133" on="1"/>
        <pt x="1056" y="1115" on="0"/>
        <pt x="1101" y="1090" on="1"/>
        <pt x="1101" y="811" on="1"/>
        <pt x="1053" y="855" on="0"/>
        <pt x="989" y="877" on="1"/>
        <pt x="926" y="899" on="0"/>
        <pt x="848" y="899" on="1"/>
        <pt x="755" y="899" on="0"/>
        <pt x="685" y="867" on="1"/>
        <pt x="615" y="836" on="0"/>
        <pt x="577" y="773" on="1"/>
        <pt x="567" y="757" on="0"/>
        <pt x="549" y="711" on="0"/>
        <pt x="544" y="680" on="1"/>
        <pt x="539" y="651" on="0"/>
        <pt x="534" y="575" on="0"/>
        <pt x="534" y="516" on="1"/>
        <pt x="534" y="0" on="1"/>
        <pt x="241" y="0" on="1"/>
      </contour>
    </TTGlyph>
    <TTGlyph name="uni0073" xMin="172" yMin="-29" xMax="1067" yMax="1147">
      <contour>
        <pt x="616" y="-29" on="1"/>
        <pt x="509" y="-29" on="0"/>
        <pt x="302" y="6" on="0"/>
        <pt x="190" y="41" on="1"/>
        <pt x="190" y="297" on="1"/>
        <pt x="288" y="242" on="0"/>
        <pt x="388" y="213" on="1"/>
        <pt x="439" y="199" on="0"/>
        <pt x="534" y="184" on="0"/>
        <pt x="585" y="184" on="1"/>
        <pt x="684" y="184" on="0"/>
        <pt x="738" y="214" on="1"/>
        <pt x="764" y="229" on="0"/>
        <pt x="791" y="272" on="0"/>
        <pt x="791" y="307" on="1"/>
        <pt x="791" y="336" on="0"/>
        <pt x="759" y="387" on="0"/>
        <pt x="666" y="431" on="0"/>
        <pt x="575" y="451" on="1"/>
        <pt x="494" y="469" on="1"/>
        <pt x="326" y="507" on="0"/>
        <pt x="249" y="588" on="1"/>
        <pt x="172" y="671" on="0"/>
        <pt x="172" y="803" on="1"/>
        <pt x="172" y="967" on="0"/>
        <pt x="406" y="1147" on="0"/>
        <pt x="619" y="1147" on="1"/>
        <pt x="720" y="1147" on="0"/>
        <pt x="897" y="1118" on="0"/>
        <pt x="991" y="1085" on="1"/>
        <pt x="991" y="829" on="1"/>
        <pt x="906" y="883" on="0"/>
        <pt x="742" y="934" on="0"/>
        <pt x="643" y="934" on="1"/>
        <pt x="549" y="934" on="0"/>
        <pt x="500" y="906" on="1"/>
        <pt x="449" y="878" on="0"/>
        <pt x="449" y="826" on="1"/>
        <pt x="449" y="781" on="0"/>
        <pt x="551" y="717" on="0"/>
        <pt x="663" y="691" on="1"/>
        <pt x="674" y="688" on="1"/>
        <pt x="758" y="668" on="1"/>
        <pt x="918" y="630" on="0"/>
        <pt x="1067" y="461" on="0"/>
        <pt x="1067" y="317" on="1"/>
        <pt x="1067" y="144" on="0"/>
        <pt x="954" y="58" on="1"/>
        <pt x="842" y="-29" on="0"/>
      </contour>
    </TTGlyph>
    <TTGlyph name="uni0074" xMin="111" yMin="-4" xMax="1073" yMax="1556">
      <contour>
        <pt x="827" y="-4" on="1"/>
        <pt x="574" y="-4" on="0"/>
        <pt x="486" y="77" on="1"/>
        <pt x="397" y="157" on="0"/>
        <pt x="397" y="375" on="1"/>
        <pt x="397" y="895" on="1"/>
        <pt x="111" y="895" on="1"/>
        <pt x="111" y="1120" on="1"/>
        <pt x="397" y="1120" on="1"/>
        <pt x="397" y="1426" on="1"/>
        <pt x="690" y="1556" on="1"/>
        <pt x="690" y="1120" on="1"/>
        <pt x="1073" y="1120" on="1"/>
        <pt x="1073" y="895" on="1"/>
        <pt x="690" y="895" on="1"/>
        <pt x="690" y="361" on="1"/>
        <pt x="690" y="287" on="0"/>
        <pt x="727" y="254" on="1"/>
        <pt x="747" y="236" on="0"/>
        <pt x="808" y="221" on="0"/>
        <pt x="848" y="221" on="1"/>
        <pt x="1073" y="221" on="1"/>
        <pt x="1073" y="-4" on="1"/>
      </contour>
    </TTGlyph>
    <TTGlyph name="uni0075" xMin="160" yMin="-29" xMax="1061" yMax="1120">
      <contour>
        <pt x="481" y="-29" on="1"/>
        <pt x="406" y="-29" on="0"/>
        <pt x="285" y="21" on="0"/>
        <pt x="242" y="77" on="1"/>
        <pt x="160" y="183" on="0"/>
        <pt x="160" y="391" on="1"/>
        <pt x="160" y="1120" on="1"/>
        <pt x="453" y="1120" on="1"/>
        <pt x="453" y="436" on="1"/>
        <pt x="453" y="315" on="0"/>
        <pt x="487" y="263" on="1"/>
        <pt x="521" y="211" on="0"/>
        <pt x="598" y="211" on="1"/>
        <pt x="636" y="211" on="0"/>
        <pt x="700" y="243" on="0"/>
        <pt x="724" y="281" on="1"/>
        <pt x="768" y="352" on="0"/>
        <pt x="768" y="477" on="1"/>
        <pt x="768" y="1120" on="1"/>
        <pt x="1061" y="1120" on="1"/>
        <pt x="1061" y="0" on="1"/>
        <pt x="797" y="0" on="1"/>
        <pt x="768" y="166" on="1"/>
        <pt x="736" y="73" on="0"/>
        <pt x="663" y="22" on="1"/>
        <pt x="588" y="-29" on="0"/>
      </contour>
    </TTGlyph>
    <TTGlyph name="uni0076" xMin="80" yMin="0" xMax="1153" yMax="1120">
      <contour>
        <pt x="80" y="1120" on="1"/>
        <pt x="377" y="1120" on="1"/>
        <pt x="616" y="246" on="1"/>
        <pt x="856" y="1120" on="1"/>
        <pt x="1153" y="1120" on="1"/>
        <pt x="797" y="0" on="1"/>
        <pt x="436" y="0" on="1"/>
      </contour>
    </TTGlyph>
    <TTGlyph name="uni0077" xMin="0" yMin="0" xMax="1233" yMax="1120">
      <contour>
        <pt x="0" y="1120" on="1"/>
        <pt x="244" y="1120" on="1"/>
        <pt x="377" y="262" on="1"/>
        <pt x="498" y="827" on="1"/>
        <pt x="735" y="827" on="1"/>
        <pt x="854" y="262" on="1"/>
        <pt x="989" y="1120" on="1"/>
        <pt x="1233" y="1120" on="1"/>
        <pt x="1030" y="0" on="1"/>
        <pt x="752" y="0" on="1"/>
        <pt x="616" y="582" on="1"/>
        <pt x="481" y="0" on="1"/>
        <pt x="203" y="0" on="1"/>
      </contour>
    </TTGlyph>
    <TTGlyph name="uni0078" xMin="55" yMin="0" xMax="1178" yMax="1120">
      <contour>
        <pt x="469" y="584" on="1"/>
        <pt x="88" y="1120" on="1"/>
        <pt x="430" y="1120" on="1"/>
        <pt x="616" y="786" on="1"/>
        <pt x="803" y="1120" on="1"/>
        <pt x="1145" y="1120" on="1"/>
        <pt x="768" y="584" on="1"/>
        <pt x="1178" y="0" on="1"/>
        <pt x="836" y="0" on="1"/>
        <pt x="616" y="377" on="1"/>
        <pt x="397" y="0" on="1"/>
        <pt x="55" y="0" on="1"/>
      </contour>
    </TTGlyph>
    <TTGlyph name="uni0079" xMin="69" yMin="-424" xMax="1186" yMax="1120">
      <contour>
        <pt x="137" y="-201" on="1"/>
        <pt x="256" y="-201" on="1"/>
        <pt x="298" y="-201" on="0"/>
        <pt x="367" y="-187" on="0"/>
        <pt x="388" y="-171" on="1"/>
        <pt x="411" y="-154" on="0"/>
        <pt x="456" y="-74" on="0"/>
        <pt x="473" y="-29" on="1"/>
        <pt x="495" y="31" on="1"/>
        <pt x="69" y="1120" on="1"/>
        <pt x="377" y="1120" on="1"/>
        <pt x="633" y="393" on="1"/>
        <pt x="878" y="1120" on="1"/>
        <pt x="1186" y="1120" on="1"/>
        <pt x="721" y="-121" on="1"/>
        <pt x="676" y="-232" on="0"/>
        <pt x="583" y="-362" on="0"/>
        <pt x="464" y="-420" on="0"/>
        <pt x="379" y="-424" on="1"/>
        <pt x="137" y="-424" on="1"/>
      </contour>
    </TTGlyph>
    <TTGlyph name="uni007A" xMin="162" yMin="0" xMax="1081" yMax="1120">
      <contour>
        <pt x="162" y="229" on="1"/>
        <pt x="752" y="901" on="1"/>
        <pt x="186" y="901" on="1"/>
        <pt x="186" y="1120" on="1"/>
        <pt x="1081" y="1120" on="1"/>
        <pt x="1081" y="891" on="1"/>
        <pt x="492" y="219" on="1"/>
        <pt x="1081" y="219" on="1"/>
        <pt x="1081" y="0" on="1"/>
        <pt x="162" y="0" on="1"/>
      </contour>
    </TTGlyph>
    <TTGlyph name="uni007B" xMin="96" yMin="-334" xMax="1003" yMax="1556">
      <contour>
        <pt x="853" y="-334" on="1"/>
        <pt x="606" y="-334" on="0"/>
        <pt x="520" y="-260" on="1"/>
        <pt x="435" y="-187" on="0"/>
        <pt x="435" y="35" on="1"/>
        <pt x="435" y="250" on="1"/>
        <pt x="435" y="320" on="0"/>
        <pt x="410" y="429" on="0"/>
        <pt x="382" y="459" on="1"/>
        <pt x="355" y="488" on="0"/>
        <pt x="255" y="516" on="0"/>
        <pt x="188" y="516" on="1"/>
        <pt x="96" y="516" on="1"/>
        <pt x="96" y="707" on="1"/>
        <pt x="188" y="707" on="1"/>
        <pt x="328" y="707" on="0"/>
        <pt x="382" y="764" on="1"/>
        <pt x="435" y="823" on="0"/>
        <pt x="435" y="973" on="1"/>
        <pt x="435" y="1188" on="1"/>
        <pt x="435" y="1410" on="0"/>
        <pt x="520" y="1483" on="1"/>
        <pt x="602" y="1556" on="0"/>
        <pt x="853" y="1556" on="1"/>
        <pt x="1003" y="1556" on="1"/>
        <pt x="1003" y="1366" on="1"/>
        <pt x="880" y="1366" on="1"/>
        <pt x="776" y="1366" on="0"/>
        <pt x="741" y="1324" on="1"/>
        <pt x="706" y="1280" on="0"/>
        <pt x="706" y="1139" on="1"/>
        <pt x="706" y="930" on="1"/>
        <pt x="706" y="765" on="0"/>
        <pt x="657" y="698" on="1"/>
        <pt x="607" y="631" on="0"/>
        <pt x="482" y="612" on="1"/>
        <pt x="607" y="591" on="0"/>
        <pt x="657" y="523" on="1"/>
        <pt x="706" y="456" on="0"/>
        <pt x="706" y="291" on="1"/>
        <pt x="706" y="86" on="1"/>
        <pt x="706" y="-57" on="0"/>
        <pt x="741" y="-101" on="1"/>
        <pt x="776" y="-143" on="0"/>
        <pt x="880" y="-143" on="1"/>
        <pt x="1003" y="-143" on="1"/>
        <pt x="1003" y="-334" on="1"/>
      </contour>
    </TTGlyph>
    <TTGlyph name="uni007C" xMin="502" yMin="-483" xMax="729" yMax="1565">
      <contour>
        <pt x="502" y="1565" on="1"/>
        <pt x="729" y="1565" on="1"/>
        <pt x="729" y="-483" on="1"/>
        <pt x="502" y="-483" on="1"/>
      </contour>
    </TTGlyph>
    <TTGlyph name="uni007D" xMin="230" yMin="-334" xMax="1137" yMax="1556">
      <contour>
        <pt x="230" y="-143" on="1"/>
        <pt x="351" y="-143" on="1"/>
        <pt x="455" y="-143" on="0"/>
        <pt x="491" y="-100" on="1"/>
        <pt x="527" y="-56" on="0"/>
        <pt x="527" y="86" on="1"/>
        <pt x="527" y="291" on="1"/>
        <pt x="527" y="456" on="0"/>
        <pt x="576" y="523" on="1"/>
        <pt x="627" y="592" on="0"/>
        <pt x="750" y="612" on="1"/>
        <pt x="623" y="631" on="0"/>
        <pt x="576" y="698" on="1"/>
        <pt x="527" y="765" on="0"/>
        <pt x="527" y="930" on="1"/>
        <pt x="527" y="1139" on="1"/>
        <pt x="527" y="1279" on="0"/>
        <pt x="492" y="1323" on="1"/>
        <pt x="473" y="1346" on="0"/>
        <pt x="399" y="1366" on="0"/>
        <pt x="351" y="1366" on="1"/>
        <pt x="230" y="1366" on="1"/>
        <pt x="230" y="1556" on="1"/>
        <pt x="380" y="1556" on="1"/>
        <pt x="630" y="1556" on="0"/>
        <pt x="712" y="1483" on="1"/>
        <pt x="795" y="1409" on="0"/>
        <pt x="795" y="1188" on="1"/>
        <pt x="795" y="973" on="1"/>
        <pt x="800" y="867" on="0"/>
        <pt x="841" y="755" on="0"/>
        <pt x="946" y="712" on="0"/>
        <pt x="1045" y="707" on="1"/>
        <pt x="1137" y="707" on="1"/>
        <pt x="1137" y="516" on="1"/>
        <pt x="1045" y="516" on="1"/>
        <pt x="904" y="516" on="0"/>
        <pt x="850" y="458" on="1"/>
        <pt x="795" y="400" on="0"/>
        <pt x="795" y="250" on="1"/>
        <pt x="795" y="35" on="1"/>
        <pt x="795" y="-186" on="0"/>
        <pt x="712" y="-260" on="1"/>
        <pt x="626" y="-334" on="0"/>
        <pt x="380" y="-334" on="1"/>
        <pt x="230" y="-334" on="1"/>
      </contour>
    </TTGlyph>
    <TTGlyph name="uni007E" xMin="68" yMin="324" xMax="1165" yMax="877">
      <contour>
        <pt x="1165" y="873" on="1"/>
        <pt x="1161" y="740" on="0"/>
        <pt x="1132" y="549" on="0"/>
        <pt x="1094" y="483" on="1"/>
        <pt x="1095" y="486" on="1"/>
        <pt x="1016" y="324" on="0"/>
        <pt x="830" y="324" on="1"/>
        <pt x="743" y="324" on="0"/>
        <pt x="678" y="362" on="1"/>
        <pt x="618" y="398" on="0"/>
        <pt x="545" y="500" on="1"/>
        <pt x="477" y="596" on="0"/>
        <pt x="448" y="619" on="1"/>
        <pt x="420" y="637" on="0"/>
        <pt x="404" y="637" on="1"/>
        <pt x="361" y="637" on="0"/>
        <pt x="345" y="597" on="1"/>
        <pt x="345" y="598" on="1"/>
        <pt x="316" y="529" on="0"/>
        <pt x="307" y="330" on="1"/>
        <pt x="68" y="330" on="1"/>
        <pt x="74" y="582" on="0"/>
        <pt x="139" y="717" on="1"/>
        <pt x="230" y="877" on="0"/>
        <pt x="399" y="877" on="1"/>
        <pt x="482" y="877" on="0"/>
        <pt x="546" y="837" on="1"/>
        <pt x="579" y="817" on="0"/>
        <pt x="651" y="748" on="0"/>
        <pt x="684" y="702" on="1"/>
        <pt x="683" y="703" on="1"/>
        <pt x="734" y="634" on="0"/>
        <pt x="777" y="591" on="1"/>
        <pt x="804" y="564" on="0"/>
        <pt x="827" y="564" on="1"/>
        <pt x="878" y="564" on="0"/>
        <pt x="922" y="715" on="0"/>
        <pt x="924" y="873" on="1"/>
      </contour>
    </TTGlyph>
    <TTGlyph name="uni00A1" xMin="441" yMin="-72" xMax="789" yMax="1508">
      <contour>
        <pt x="615" y="1508" on="1"/>
        <pt x="632" y="1508" on="0"/>
        <pt x="666" y="1503" on="0"/>
        <pt x="683" y="1495" on="1"/>
        <pt x="713" y="1483" on="0"/>
        <pt x="739" y="1456" on="1"/>
        <pt x="751" y="1443" on="0"/>
        <pt x="761" y="1429" on="0"/>
        <pt x="767" y="1418" on="1"/>
        <pt x="780" y="1395" on="0"/>
        <pt x="784" y="1373" on="1"/>
        <pt x="789" y="1345" on="0"/>
        <pt x="789" y="1324" on="1"/>
        <pt x="789" y="1240" on="0"/>
        <pt x="740" y="1191" on="1"/>
        <pt x="691" y="1140" on="0"/>
        <pt x="617" y="1140" on="1"/>
        <pt x="602" y="1140" on="0"/>
        <pt x="586" y="1142" on="1"/>
        <pt x="560" y="1148" on="1"/>
        <pt x="554" y="1150" on="0"/>
        <pt x="537" y="1157" on="0"/>
        <pt x="535" y="1158" on="1"/>
        <pt x="523" y="1164" on="0"/>
        <pt x="512" y="1172" on="1"/>
        <pt x="508" y="1176" on="0"/>
        <pt x="502" y="1181" on="0"/>
        <pt x="491" y="1192" on="1"/>
        <pt x="441" y="1242" on="0"/>
        <pt x="441" y="1323" on="1"/>
        <pt x="441" y="1407" on="0"/>
        <pt x="491" y="1457" on="1"/>
        <pt x="514" y="1480" on="0"/>
        <pt x="577" y="1508" on="0"/>
      </contour>
      <contour>
        <pt x="687" y="960" on="1"/>
        <pt x="755" y="384" on="1"/>
        <pt x="755" y="-72" on="1"/>
        <pt x="470" y="-72" on="1"/>
        <pt x="470" y="384" on="1"/>
        <pt x="548" y="960" on="1"/>
      </contour>
    </TTGlyph>
    <TTGlyph name="uni00A1.case" xMin="441" yMin="-72" xMax="789" yMax="1508">
      <contour>
        <pt x="615" y="1508" on="1"/>
        <pt x="632" y="1508" on="0"/>
        <pt x="666" y="1503" on="0"/>
        <pt x="683" y="1495" on="1"/>
        <pt x="713" y="1483" on="0"/>
        <pt x="739" y="1456" on="1"/>
        <pt x="751" y="1443" on="0"/>
        <pt x="761" y="1429" on="0"/>
        <pt x="767" y="1418" on="1"/>
        <pt x="780" y="1395" on="0"/>
        <pt x="784" y="1373" on="1"/>
        <pt x="789" y="1345" on="0"/>
        <pt x="789" y="1324" on="1"/>
        <pt x="789" y="1240" on="0"/>
        <pt x="740" y="1191" on="1"/>
        <pt x="691" y="1140" on="0"/>
        <pt x="617" y="1140" on="1"/>
        <pt x="602" y="1140" on="0"/>
        <pt x="586" y="1142" on="1"/>
        <pt x="560" y="1148" on="1"/>
        <pt x="554" y="1150" on="0"/>
        <pt x="537" y="1157" on="0"/>
        <pt x="535" y="1158" on="1"/>
        <pt x="523" y="1164" on="0"/>
        <pt x="512" y="1172" on="1"/>
        <pt x="508" y="1176" on="0"/>
        <pt x="502" y="1181" on="0"/>
        <pt x="491" y="1192" on="1"/>
        <pt x="441" y="1242" on="0"/>
        <pt x="441" y="1323" on="1"/>
        <pt x="441" y="1407" on="0"/>
        <pt x="491" y="1457" on="1"/>
        <pt x="514" y="1480" on="0"/>
        <pt x="577" y="1508" on="0"/>
      </contour>
      <contour>
        <pt x="687" y="960" on="1"/>
        <pt x="755" y="384" on="1"/>
        <pt x="755" y="-72" on="1"/>
        <pt x="470" y="-72" on="1"/>
        <pt x="470" y="384" on="1"/>
        <pt x="548" y="960" on="1"/>
      </contour>
    </TTGlyph>
    <TTGlyph name="uni00A2" xMin="147" yMin="-313" xMax="1036" yMax="1432">
      <contour>
        <pt x="655" y="-25" on="1"/>
        <pt x="420" y="-3" on="0"/>
        <pt x="284" y="154" on="1"/>
        <pt x="147" y="312" on="0"/>
        <pt x="147" y="562" on="1"/>
        <pt x="147" y="692" on="0"/>
        <pt x="217" y="896" on="0"/>
        <pt x="284" y="973" on="1"/>
        <pt x="420" y="1129" on="0"/>
        <pt x="655" y="1145" on="1"/>
        <pt x="655" y="1432" on="1"/>
        <pt x="797" y="1432" on="1"/>
        <pt x="797" y="1145" on="1"/>
        <pt x="858" y="1140" on="0"/>
        <pt x="917" y="1124" on="1"/>
        <pt x="952" y="1114" on="0"/>
        <pt x="1007" y="1091" on="0"/>
        <pt x="1036" y="1077" on="1"/>
        <pt x="1036" y="809" on="1"/>
        <pt x="1007" y="831" on="0"/>
        <pt x="944" y="866" on="0"/>
        <pt x="920" y="876" on="1"/>
        <pt x="867" y="899" on="0"/>
        <pt x="797" y="907" on="1"/>
        <pt x="797" y="215" on="1"/>
        <pt x="830" y="217" on="0"/>
        <pt x="893" y="233" on="0"/>
        <pt x="921" y="244" on="1"/>
        <pt x="983" y="269" on="0"/>
        <pt x="1036" y="311" on="1"/>
        <pt x="1036" y="43" on="1"/>
        <pt x="978" y="12" on="0"/>
        <pt x="924" y="-3" on="1"/>
        <pt x="863" y="-20" on="0"/>
        <pt x="797" y="-25" on="1"/>
        <pt x="797" y="-313" on="1"/>
        <pt x="655" y="-313" on="1"/>
      </contour>
      <contour>
        <pt x="655" y="907" on="1"/>
        <pt x="541" y="893" on="0"/>
        <pt x="480" y="804" on="1"/>
        <pt x="450" y="760" on="0"/>
        <pt x="418" y="639" on="0"/>
        <pt x="418" y="560" on="1"/>
        <pt x="418" y="408" on="0"/>
        <pt x="481" y="314" on="1"/>
        <pt x="544" y="221" on="0"/>
        <pt x="655" y="215" on="1"/>
      </contour>
    </TTGlyph>
    <TTGlyph name="uni00A3" xMin="119" yMin="0" xMax="1122" yMax="1520">
      <contour>
        <pt x="119" y="260" on="1"/>
        <pt x="354" y="260" on="1"/>
        <pt x="354" y="594" on="1"/>
        <pt x="156" y="594" on="1"/>
        <pt x="156" y="819" on="1"/>
        <pt x="354" y="819" on="1"/>
        <pt x="354" y="1016" on="1"/>
        <pt x="354" y="1271" on="0"/>
        <pt x="467" y="1396" on="1"/>
        <pt x="579" y="1520" on="0"/>
        <pt x="810" y="1520" on="1"/>
        <pt x="904" y="1520" on="0"/>
        <pt x="1026" y="1494" on="0"/>
        <pt x="1102" y="1462" on="1"/>
        <pt x="1102" y="1188" on="1"/>
        <pt x="1072" y="1210" on="0"/>
        <pt x="1005" y="1243" on="0"/>
        <pt x="980" y="1251" on="1"/>
        <pt x="948" y="1262" on="0"/>
        <pt x="880" y="1272" on="0"/>
        <pt x="848" y="1272" on="1"/>
        <pt x="740" y="1272" on="0"/>
        <pt x="691" y="1206" on="1"/>
        <pt x="641" y="1138" on="0"/>
        <pt x="641" y="995" on="1"/>
        <pt x="641" y="819" on="1"/>
        <pt x="977" y="819" on="1"/>
        <pt x="977" y="594" on="1"/>
        <pt x="641" y="594" on="1"/>
        <pt x="641" y="260" on="1"/>
        <pt x="1122" y="260" on="1"/>
        <pt x="1122" y="0" on="1"/>
        <pt x="119" y="0" on="1"/>
      </contour>
    </TTGlyph>
    <TTGlyph name="uni00A4" xMin="186" yMin="176" xMax="1118" yMax="1108">
      <contour>
        <pt x="186" y="305" on="1"/>
        <pt x="356" y="475" on="1"/>
        <pt x="342" y="502" on="0"/>
        <pt x="330" y="535" on="0"/>
        <pt x="323" y="559" on="1"/>
        <pt x="318" y="579" on="0"/>
        <pt x="311" y="616" on="0"/>
        <pt x="311" y="642" on="1"/>
        <pt x="311" y="668" on="0"/>
        <pt x="318" y="710" on="0"/>
        <pt x="323" y="729" on="1"/>
        <pt x="328" y="746" on="0"/>
        <pt x="343" y="784" on="0"/>
        <pt x="358" y="807" on="1"/>
        <pt x="186" y="977" on="1"/>
        <pt x="317" y="1108" on="1"/>
        <pt x="483" y="936" on="1"/>
        <pt x="524" y="960" on="0"/>
        <pt x="566" y="972" on="1"/>
        <pt x="610" y="983" on="0"/>
        <pt x="652" y="983" on="1"/>
        <pt x="694" y="983" on="0"/>
        <pt x="772" y="960" on="0"/>
        <pt x="819" y="938" on="1"/>
        <pt x="991" y="1108" on="1"/>
        <pt x="1118" y="979" on="1"/>
        <pt x="948" y="809" on="1"/>
        <pt x="972" y="766" on="0"/>
        <pt x="982" y="727" on="1"/>
        <pt x="993" y="681" on="0"/>
        <pt x="993" y="641" on="1"/>
        <pt x="993" y="593" on="0"/>
        <pt x="982" y="554" on="1"/>
        <pt x="977" y="538" on="0"/>
        <pt x="959" y="496" on="0"/>
        <pt x="946" y="477" on="1"/>
        <pt x="1118" y="307" on="1"/>
        <pt x="987" y="176" on="1"/>
        <pt x="817" y="348" on="1"/>
        <pt x="795" y="334" on="0"/>
        <pt x="762" y="319" on="0"/>
        <pt x="741" y="313" on="1"/>
        <pt x="722" y="308" on="0"/>
        <pt x="681" y="301" on="0"/>
        <pt x="656" y="301" on="1"/>
        <pt x="575" y="301" on="0"/>
        <pt x="485" y="344" on="1"/>
        <pt x="315" y="176" on="1"/>
      </contour>
      <contour>
        <pt x="654" y="467" on="1"/>
        <pt x="728" y="467" on="0"/>
        <pt x="777" y="518" on="1"/>
        <pt x="827" y="571" on="0"/>
        <pt x="827" y="642" on="1"/>
        <pt x="827" y="717" on="0"/>
        <pt x="778" y="766" on="1"/>
        <pt x="729" y="815" on="0"/>
        <pt x="653" y="815" on="1"/>
        <pt x="580" y="815" on="0"/>
        <pt x="530" y="767" on="1"/>
        <pt x="479" y="719" on="0"/>
        <pt x="479" y="643" on="1"/>
        <pt x="479" y="571" on="0"/>
        <pt x="529" y="518" on="1"/>
        <pt x="578" y="467" on="0"/>
      </contour>
    </TTGlyph>
    <TTGlyph name="uni00A5" xMin="8" yMin="0" xMax="1225" yMax="1493">
      <contour>
        <pt x="469" y="438" on="1"/>
        <pt x="57" y="438" on="1"/>
        <pt x="57" y="627" on="1"/>
        <pt x="465" y="627" on="1"/>
        <pt x="379" y="778" on="1"/>
        <pt x="57" y="778" on="1"/>
        <pt x="57" y="965" on="1"/>
        <pt x="281" y="965" on="1"/>
        <pt x="8" y="1493" on="1"/>
        <pt x="326" y="1493" on="1"/>
        <pt x="616" y="893" on="1"/>
        <pt x="907" y="1493" on="1"/>
        <pt x="1225" y="1493" on="1"/>
        <pt x="952" y="965" on="1"/>
        <pt x="1176" y="965" on="1"/>
        <pt x="1176" y="778" on="1"/>
        <pt x="854" y="778" on="1"/>
        <pt x="768" y="627" on="1"/>
        <pt x="1176" y="627" on="1"/>
        <pt x="1176" y="438" on="1"/>
        <pt x="764" y="438" on="1"/>
        <pt x="764" y="0" on="1"/>
        <pt x="469" y="0" on="1"/>
      </contour>
    </TTGlyph>
    <TTGlyph name="uni00A6" xMin="502" yMin="-350" xMax="729" yMax="1432">
      <contour>
        <pt x="502" y="1432" on="1"/>
        <pt x="729" y="1432" on="1"/>
        <pt x="729" y="674" on="1"/>
        <pt x="502" y="674" on="1"/>
      </contour>
      <contour>
        <pt x="502" y="408" on="1"/>
        <pt x="729" y="408" on="1"/>
        <pt x="729" y="-350" on="1"/>
        <pt x="502" y="-350" on="1"/>
      </contour>
    </TTGlyph>
    <TTGlyph name="uni00A7" xMin="170" yMin="-195" xMax="1061" yMax="1520">
      <contour>
        <pt x="602" y="-195" on="1"/>
        <pt x="426" y="-195" on="0"/>
        <pt x="258" y="-137" on="1"/>
        <pt x="258" y="92" on="1"/>
        <pt x="303" y="76" on="0"/>
        <pt x="383" y="55" on="0"/>
        <pt x="424" y="47" on="1"/>
        <pt x="500" y="31" on="0"/>
        <pt x="571" y="31" on="1"/>
        <pt x="657" y="31" on="0"/>
        <pt x="737" y="90" on="0"/>
        <pt x="737" y="134" on="1"/>
        <pt x="737" y="176" on="0"/>
        <pt x="638" y="262" on="0"/>
        <pt x="523" y="326" on="1"/>
        <pt x="486" y="346" on="1"/>
        <pt x="321" y="436" on="0"/>
        <pt x="170" y="604" on="0"/>
        <pt x="170" y="696" on="1"/>
        <pt x="170" y="734" on="0"/>
        <pt x="196" y="817" on="0"/>
        <pt x="222" y="852" on="1"/>
        <pt x="273" y="920" on="0"/>
        <pt x="371" y="954" on="1"/>
        <pt x="300" y="1003" on="0"/>
        <pt x="268" y="1064" on="1"/>
        <pt x="236" y="1126" on="0"/>
        <pt x="236" y="1205" on="1"/>
        <pt x="236" y="1348" on="0"/>
        <pt x="444" y="1520" on="0"/>
        <pt x="617" y="1520" on="1"/>
        <pt x="690" y="1520" on="0"/>
        <pt x="769" y="1505" on="1"/>
        <pt x="812" y="1497" on="0"/>
        <pt x="890" y="1474" on="0"/>
        <pt x="930" y="1460" on="1"/>
        <pt x="930" y="1235" on="1"/>
        <pt x="846" y="1264" on="0"/>
        <pt x="779" y="1280" on="1"/>
        <pt x="715" y="1294" on="0"/>
        <pt x="657" y="1294" on="1"/>
        <pt x="585" y="1294" on="0"/>
        <pt x="541" y="1265" on="1"/>
        <pt x="518" y="1249" on="0"/>
        <pt x="498" y="1208" on="0"/>
        <pt x="498" y="1188" on="1"/>
        <pt x="498" y="1143" on="0"/>
        <pt x="598" y="1060" on="0"/>
        <pt x="701" y="1004" on="1"/>
        <pt x="720" y="994" on="0"/>
        <pt x="720" y="994" on="0"/>
        <pt x="729" y="989" on="1"/>
        <pt x="843" y="927" on="0"/>
        <pt x="965" y="852" on="0"/>
        <pt x="1002" y="809" on="1"/>
        <pt x="1061" y="738" on="0"/>
        <pt x="1061" y="638" on="1"/>
        <pt x="1061" y="548" on="0"/>
        <pt x="967" y="420" on="0"/>
        <pt x="864" y="373" on="1"/>
        <pt x="934" y="324" on="0"/>
        <pt x="967" y="262" on="1"/>
        <pt x="999" y="200" on="0"/>
        <pt x="999" y="118" on="1"/>
        <pt x="999" y="-30" on="0"/>
        <pt x="895" y="-112" on="1"/>
        <pt x="845" y="-152" on="0"/>
        <pt x="699" y="-195" on="0"/>
      </contour>
      <contour>
        <pt x="711" y="473" on="1"/>
        <pt x="738" y="490" on="0"/>
        <pt x="780" y="529" on="0"/>
        <pt x="791" y="544" on="1"/>
        <pt x="815" y="578" on="0"/>
        <pt x="815" y="613" on="1"/>
        <pt x="815" y="707" on="0"/>
        <pt x="550" y="840" on="1"/>
        <pt x="518" y="856" on="1"/>
        <pt x="414" y="788" on="0"/>
        <pt x="414" y="712" on="1"/>
        <pt x="414" y="656" on="0"/>
        <pt x="463" y="613" on="1"/>
        <pt x="486" y="592" on="0"/>
        <pt x="598" y="526" on="0"/>
      </contour>
    </TTGlyph>
    <TTGlyph name="uni00A8" xMin="301" yMin="1339" xMax="932" yMax="1585">
      <contour>
        <pt x="331" y="1339" on="1"/>
        <pt x="301" y="1339" on="0"/>
        <pt x="301" y="1369" on="1"/>
        <pt x="301" y="1555" on="1"/>
        <pt x="301" y="1585" on="0"/>
        <pt x="331" y="1585" on="1"/>
        <pt x="507" y="1585" on="1"/>
        <pt x="537" y="1585" on="0"/>
        <pt x="537" y="1555" on="1"/>
        <pt x="537" y="1369" on="1"/>
        <pt x="537" y="1339" on="0"/>
        <pt x="507" y="1339" on="1"/>
      </contour>
      <contour>
        <pt x="726" y="1339" on="1"/>
        <pt x="696" y="1339" on="0"/>
        <pt x="696" y="1369" on="1"/>
        <pt x="696" y="1555" on="1"/>
        <pt x="696" y="1585" on="0"/>
        <pt x="726" y="1585" on="1"/>
        <pt x="902" y="1585" on="1"/>
        <pt x="932" y="1585" on="0"/>
        <pt x="932" y="1555" on="1"/>
        <pt x="932" y="1369" on="1"/>
        <pt x="932" y="1339" on="0"/>
        <pt x="902" y="1339" on="1"/>
      </contour>
    </TTGlyph>
    <TTGlyph name="uni00A9" xMin="0" yMin="125" xMax="1233" yMax="1358">
      <contour>
        <pt x="616" y="125" on="1"/>
        <pt x="489" y="125" on="0"/>
        <pt x="382" y="171" on="1"/>
        <pt x="269" y="219" on="0"/>
        <pt x="181" y="307" on="1"/>
        <pt x="139" y="349" on="0"/>
        <pt x="68" y="452" on="0"/>
        <pt x="45" y="508" on="1"/>
        <pt x="0" y="614" on="0"/>
        <pt x="0" y="741" on="1"/>
        <pt x="0" y="869" on="0"/>
        <pt x="46" y="977" on="1"/>
        <pt x="93" y="1086" on="0"/>
        <pt x="182" y="1178" on="1"/>
        <pt x="229" y="1226" on="0"/>
        <pt x="329" y="1292" on="0"/>
        <pt x="381" y="1313" on="1"/>
        <pt x="490" y="1358" on="0"/>
        <pt x="616" y="1358" on="1"/>
        <pt x="742" y="1358" on="0"/>
        <pt x="852" y="1313" on="1"/>
        <pt x="909" y="1290" on="0"/>
        <pt x="1009" y="1221" on="0"/>
        <pt x="1051" y="1178" on="1"/>
        <pt x="1100" y="1128" on="0"/>
        <pt x="1167" y="1025" on="0"/>
        <pt x="1187" y="977" on="1"/>
        <pt x="1233" y="870" on="0"/>
        <pt x="1233" y="742" on="1"/>
        <pt x="1233" y="614" on="0"/>
        <pt x="1188" y="508" on="1"/>
        <pt x="1166" y="456" on="0"/>
        <pt x="1097" y="352" on="0"/>
        <pt x="1052" y="307" on="1"/>
        <pt x="1010" y="265" on="0"/>
        <pt x="908" y="195" on="0"/>
        <pt x="851" y="171" on="1"/>
        <pt x="744" y="125" on="0"/>
      </contour>
      <contour>
        <pt x="616" y="256" on="1"/>
        <pt x="667" y="256" on="0"/>
        <pt x="756" y="273" on="0"/>
        <pt x="802" y="293" on="1"/>
        <pt x="840" y="310" on="0"/>
        <pt x="920" y="362" on="0"/>
        <pt x="958" y="400" on="1"/>
        <pt x="1030" y="472" on="0"/>
        <pt x="1066" y="558" on="1"/>
        <pt x="1102" y="644" on="0"/>
        <pt x="1102" y="743" on="1"/>
        <pt x="1102" y="797" on="0"/>
        <pt x="1083" y="885" on="0"/>
        <pt x="1066" y="927" on="1"/>
        <pt x="1028" y="1016" on="0"/>
        <pt x="889" y="1158" on="0"/>
        <pt x="802" y="1193" on="1"/>
        <pt x="754" y="1213" on="0"/>
        <pt x="665" y="1229" on="0"/>
        <pt x="619" y="1229" on="1"/>
        <pt x="563" y="1229" on="0"/>
        <pt x="472" y="1210" on="0"/>
        <pt x="431" y="1193" on="1"/>
        <pt x="346" y="1156" on="0"/>
        <pt x="203" y="1012" on="0"/>
        <pt x="167" y="927" on="1"/>
        <pt x="131" y="843" on="0"/>
        <pt x="131" y="742" on="1"/>
        <pt x="131" y="644" on="0"/>
        <pt x="167" y="558" on="1"/>
        <pt x="203" y="472" on="0"/>
        <pt x="274" y="401" on="1"/>
        <pt x="348" y="327" on="0"/>
        <pt x="431" y="293" on="1"/>
        <pt x="477" y="273" on="0"/>
        <pt x="566" y="256" on="0"/>
      </contour>
      <contour>
        <pt x="637" y="399" on="1"/>
        <pt x="470" y="399" on="0"/>
        <pt x="266" y="588" on="0"/>
        <pt x="266" y="741" on="1"/>
        <pt x="266" y="823" on="0"/>
        <pt x="321" y="949" on="0"/>
        <pt x="367" y="991" on="1"/>
        <pt x="414" y="1034" on="0"/>
        <pt x="550" y="1083" on="0"/>
        <pt x="636" y="1083" on="1"/>
        <pt x="694" y="1083" on="0"/>
        <pt x="745" y="1075" on="1"/>
        <pt x="768" y="1071" on="0"/>
        <pt x="825" y="1057" on="0"/>
        <pt x="848" y="1049" on="1"/>
        <pt x="848" y="881" on="1"/>
        <pt x="797" y="912" on="0"/>
        <pt x="751" y="926" on="1"/>
        <pt x="703" y="940" on="0"/>
        <pt x="655" y="940" on="1"/>
        <pt x="559" y="940" on="0"/>
        <pt x="507" y="888" on="1"/>
        <pt x="453" y="836" on="0"/>
        <pt x="453" y="741" on="1"/>
        <pt x="453" y="646" on="0"/>
        <pt x="506" y="595" on="1"/>
        <pt x="558" y="543" on="0"/>
        <pt x="658" y="543" on="1"/>
        <pt x="714" y="543" on="0"/>
        <pt x="802" y="570" on="0"/>
        <pt x="848" y="602" on="1"/>
        <pt x="848" y="434" on="1"/>
        <pt x="820" y="426" on="0"/>
        <pt x="766" y="413" on="0"/>
        <pt x="740" y="408" on="1"/>
        <pt x="688" y="399" on="0"/>
      </contour>
    </TTGlyph>
    <TTGlyph name="uni00AA" xMin="256" yMin="428" xMax="981" yMax="1520">
      <contour>
        <pt x="537" y="698" on="1"/>
        <pt x="409" y="698" on="0"/>
        <pt x="332" y="766" on="1"/>
        <pt x="256" y="833" on="0"/>
        <pt x="256" y="953" on="1"/>
        <pt x="256" y="1086" on="0"/>
        <pt x="349" y="1153" on="1"/>
        <pt x="440" y="1219" on="0"/>
        <pt x="629" y="1219" on="1"/>
        <pt x="786" y="1219" on="1"/>
        <pt x="786" y="1245" on="1"/>
        <pt x="786" y="1272" on="0"/>
        <pt x="761" y="1308" on="0"/>
        <pt x="741" y="1319" on="1"/>
        <pt x="720" y="1330" on="0"/>
        <pt x="652" y="1343" on="0"/>
        <pt x="601" y="1343" on="1"/>
        <pt x="519" y="1343" on="0"/>
        <pt x="451" y="1327" on="1"/>
        <pt x="379" y="1310" on="0"/>
        <pt x="315" y="1276" on="1"/>
        <pt x="315" y="1464" on="1"/>
        <pt x="375" y="1489" on="0"/>
        <pt x="462" y="1506" on="1"/>
        <pt x="538" y="1520" on="0"/>
        <pt x="613" y="1520" on="1"/>
        <pt x="801" y="1520" on="0"/>
        <pt x="979" y="1348" on="0"/>
        <pt x="979" y="1165" on="1"/>
        <pt x="979" y="717" on="1"/>
        <pt x="805" y="717" on="1"/>
        <pt x="786" y="809" on="1"/>
        <pt x="736" y="751" on="0"/>
        <pt x="676" y="725" on="1"/>
        <pt x="614" y="698" on="0"/>
      </contour>
      <contour>
        <pt x="593" y="866" on="1"/>
        <pt x="635" y="866" on="0"/>
        <pt x="707" y="895" on="0"/>
        <pt x="732" y="918" on="1"/>
        <pt x="786" y="970" on="0"/>
        <pt x="786" y="1049" on="1"/>
        <pt x="786" y="1079" on="1"/>
        <pt x="684" y="1079" on="1"/>
        <pt x="575" y="1079" on="0"/>
        <pt x="475" y="1027" on="0"/>
        <pt x="475" y="970" on="1"/>
        <pt x="475" y="922" on="0"/>
        <pt x="505" y="894" on="1"/>
        <pt x="536" y="866" on="0"/>
      </contour>
      <contour>
        <pt x="293" y="598" on="1"/>
        <pt x="981" y="598" on="1"/>
        <pt x="981" y="428" on="1"/>
        <pt x="293" y="428" on="1"/>
      </contour>
    </TTGlyph>
    <TTGlyph name="uni00AB" xMin="59" yMin="141" xMax="982" yMax="1059">
      <contour>
        <pt x="59" y="535" on="1"/>
        <pt x="59" y="666" on="1"/>
        <pt x="528" y="1059" on="1"/>
        <pt x="528" y="821" on="1"/>
        <pt x="251" y="600" on="1"/>
        <pt x="528" y="379" on="1"/>
        <pt x="528" y="141" on="1"/>
      </contour>
      <contour>
        <pt x="513" y="535" on="1"/>
        <pt x="513" y="666" on="1"/>
        <pt x="982" y="1059" on="1"/>
        <pt x="982" y="821" on="1"/>
        <pt x="706" y="600" on="1"/>
        <pt x="982" y="379" on="1"/>
        <pt x="982" y="141" on="1"/>
      </contour>
    </TTGlyph>
    <TTGlyph name="uni00AC" xMin="88" yMin="362" xMax="1145" yMax="899">
      <contour>
        <pt x="907" y="662" on="1"/>
        <pt x="88" y="662" on="1"/>
        <pt x="88" y="899" on="1"/>
        <pt x="1145" y="899" on="1"/>
        <pt x="1145" y="362" on="1"/>
        <pt x="907" y="362" on="1"/>
      </contour>
    </TTGlyph>
    <TTGlyph name="uni00AD" xMin="301" yMin="444" xMax="932" yMax="735">
      <contour>
        <pt x="301" y="735" on="1"/>
        <pt x="932" y="735" on="1"/>
        <pt x="932" y="444" on="1"/>
        <pt x="301" y="444" on="1"/>
      </contour>
    </TTGlyph>
    <TTGlyph name="uni00AE" xMin="0" yMin="125" xMax="1233" yMax="1358">
      <contour>
        <pt x="616" y="125" on="1"/>
        <pt x="363" y="125" on="0"/>
        <pt x="181" y="307" on="1"/>
        <pt x="94" y="394" on="0"/>
        <pt x="46" y="507" on="1"/>
        <pt x="0" y="614" on="0"/>
        <pt x="0" y="741" on="1"/>
        <pt x="0" y="870" on="0"/>
        <pt x="46" y="977" on="1"/>
        <pt x="94" y="1089" on="0"/>
        <pt x="182" y="1178" on="1"/>
        <pt x="268" y="1267" on="0"/>
        <pt x="381" y="1313" on="1"/>
        <pt x="490" y="1358" on="0"/>
        <pt x="616" y="1358" on="1"/>
        <pt x="742" y="1358" on="0"/>
        <pt x="852" y="1313" on="1"/>
        <pt x="909" y="1290" on="0"/>
        <pt x="1009" y="1221" on="0"/>
        <pt x="1051" y="1178" on="1"/>
        <pt x="1100" y="1128" on="0"/>
        <pt x="1167" y="1025" on="0"/>
        <pt x="1187" y="977" on="1"/>
        <pt x="1233" y="870" on="0"/>
        <pt x="1233" y="742" on="1"/>
        <pt x="1233" y="614" on="0"/>
        <pt x="1188" y="508" on="1"/>
        <pt x="1166" y="456" on="0"/>
        <pt x="1097" y="352" on="0"/>
        <pt x="1052" y="307" on="1"/>
        <pt x="1010" y="265" on="0"/>
        <pt x="908" y="195" on="0"/>
        <pt x="851" y="171" on="1"/>
        <pt x="744" y="125" on="0"/>
      </contour>
      <contour>
        <pt x="616" y="256" on="1"/>
        <pt x="815" y="256" on="0"/>
        <pt x="958" y="399" on="1"/>
        <pt x="990" y="431" on="0"/>
        <pt x="1046" y="511" on="0"/>
        <pt x="1066" y="558" on="1"/>
        <pt x="1102" y="644" on="0"/>
        <pt x="1102" y="742" on="1"/>
        <pt x="1102" y="840" on="0"/>
        <pt x="1027" y="1016" on="0"/>
        <pt x="959" y="1086" on="1"/>
        <pt x="891" y="1155" on="0"/>
        <pt x="802" y="1193" on="1"/>
        <pt x="754" y="1213" on="0"/>
        <pt x="665" y="1229" on="0"/>
        <pt x="617" y="1229" on="1"/>
        <pt x="558" y="1229" on="0"/>
        <pt x="471" y="1210" on="0"/>
        <pt x="432" y="1193" on="1"/>
        <pt x="397" y="1178" on="0"/>
        <pt x="315" y="1127" on="0"/>
        <pt x="273" y="1085" on="1"/>
        <pt x="236" y="1047" on="0"/>
        <pt x="184" y="966" on="0"/>
        <pt x="167" y="927" on="1"/>
        <pt x="147" y="879" on="0"/>
        <pt x="131" y="787" on="0"/>
        <pt x="131" y="742" on="1"/>
        <pt x="131" y="644" on="0"/>
        <pt x="167" y="558" on="1"/>
        <pt x="183" y="520" on="0"/>
        <pt x="235" y="439" on="0"/>
        <pt x="274" y="400" on="1"/>
        <pt x="344" y="330" on="0"/>
        <pt x="432" y="292" on="1"/>
        <pt x="518" y="256" on="0"/>
      </contour>
      <contour>
        <pt x="360" y="1055" on="1"/>
        <pt x="606" y="1055" on="1"/>
        <pt x="739" y="1055" on="0"/>
        <pt x="804" y="1011" on="1"/>
        <pt x="868" y="968" on="0"/>
        <pt x="868" y="878" on="1"/>
        <pt x="868" y="812" on="0"/>
        <pt x="829" y="770" on="1"/>
        <pt x="811" y="750" on="0"/>
        <pt x="759" y="722" on="0"/>
        <pt x="719" y="715" on="1"/>
        <pt x="742" y="707" on="0"/>
        <pt x="775" y="683" on="0"/>
        <pt x="785" y="673" on="1"/>
        <pt x="796" y="662" on="0"/>
        <pt x="823" y="623" on="0"/>
        <pt x="836" y="596" on="1"/>
        <pt x="915" y="430" on="1"/>
        <pt x="743" y="430" on="1"/>
        <pt x="680" y="563" on="1"/>
        <pt x="667" y="590" on="0"/>
        <pt x="640" y="633" on="0"/>
        <pt x="625" y="645" on="1"/>
        <pt x="613" y="655" on="0"/>
        <pt x="577" y="669" on="0"/>
        <pt x="555" y="670" on="1"/>
        <pt x="524" y="670" on="1"/>
        <pt x="524" y="430" on="1"/>
        <pt x="360" y="430" on="1"/>
      </contour>
      <contour>
        <pt x="588" y="780" on="1"/>
        <pt x="645" y="780" on="0"/>
        <pt x="674" y="800" on="1"/>
        <pt x="702" y="819" on="0"/>
        <pt x="702" y="861" on="1"/>
        <pt x="702" y="903" on="0"/>
        <pt x="674" y="924" on="1"/>
        <pt x="645" y="944" on="0"/>
        <pt x="588" y="944" on="1"/>
        <pt x="524" y="944" on="1"/>
        <pt x="524" y="780" on="1"/>
      </contour>
    </TTGlyph>
    <TTGlyph name="uni00AF" xMin="301" yMin="1368" xMax="932" yMax="1556">
      <contour>
        <pt x="301" y="1556" on="1"/>
        <pt x="932" y="1556" on="1"/>
        <pt x="932" y="1368" on="1"/>
        <pt x="301" y="1368" on="1"/>
      </contour>
    </TTGlyph>
    <TTGlyph name="uni00B0" xMin="283" yMin="854" xMax="948" yMax="1520">
      <contour>
        <pt x="613" y="854" on="1"/>
        <pt x="542" y="854" on="0"/>
        <pt x="422" y="904" on="0"/>
        <pt x="378" y="948" on="1"/>
        <pt x="283" y="1043" on="0"/>
        <pt x="283" y="1185" on="1"/>
        <pt x="283" y="1279" on="0"/>
        <pt x="371" y="1431" on="0"/>
        <pt x="522" y="1520" on="0"/>
        <pt x="616" y="1520" on="1"/>
        <pt x="685" y="1520" on="0"/>
        <pt x="744" y="1495" on="1"/>
        <pt x="803" y="1470" on="0"/>
        <pt x="901" y="1372" on="0"/>
        <pt x="924" y="1313" on="1"/>
        <pt x="948" y="1254" on="0"/>
        <pt x="948" y="1188" on="1"/>
        <pt x="948" y="1118" on="0"/>
        <pt x="923" y="1059" on="1"/>
        <pt x="898" y="998" on="0"/>
        <pt x="852" y="952" on="1"/>
        <pt x="806" y="906" on="0"/>
        <pt x="743" y="880" on="1"/>
        <pt x="680" y="854" on="0"/>
      </contour>
      <contour>
        <pt x="614" y="1016" on="1"/>
        <pt x="686" y="1016" on="0"/>
        <pt x="786" y="1116" on="0"/>
        <pt x="786" y="1187" on="1"/>
        <pt x="786" y="1259" on="0"/>
        <pt x="737" y="1308" on="1"/>
        <pt x="687" y="1358" on="0"/>
        <pt x="616" y="1358" on="1"/>
        <pt x="544" y="1358" on="0"/>
        <pt x="444" y="1258" on="0"/>
        <pt x="444" y="1185" on="1"/>
        <pt x="444" y="1114" on="0"/>
        <pt x="542" y="1016" on="0"/>
      </contour>
    </TTGlyph>
    <TTGlyph name="uni00B1" xMin="88" yMin="0" xMax="1145" yMax="1284">
      <contour>
        <pt x="498" y="694" on="1"/>
        <pt x="88" y="694" on="1"/>
        <pt x="88" y="930" on="1"/>
        <pt x="498" y="930" on="1"/>
        <pt x="498" y="1284" on="1"/>
        <pt x="735" y="1284" on="1"/>
        <pt x="735" y="930" on="1"/>
        <pt x="1145" y="930" on="1"/>
        <pt x="1145" y="694" on="1"/>
        <pt x="735" y="694" on="1"/>
        <pt x="735" y="340" on="1"/>
        <pt x="498" y="340" on="1"/>
      </contour>
      <contour>
        <pt x="88" y="238" on="1"/>
        <pt x="1145" y="238" on="1"/>
        <pt x="1145" y="0" on="1"/>
        <pt x="88" y="0" on="1"/>
      </contour>
    </TTGlyph>
    <TTGlyph name="uni00B2" xMin="274" yMin="1120" xMax="940" yMax="1972">
      <contour>
        <pt x="274" y="1261" on="1"/>
        <pt x="300" y="1283" on="0"/>
        <pt x="370" y="1341" on="0"/>
        <pt x="415" y="1379" on="1"/>
        <pt x="574" y="1512" on="0"/>
        <pt x="729" y="1680" on="0"/>
        <pt x="729" y="1727" on="1"/>
        <pt x="729" y="1744" on="0"/>
        <pt x="709" y="1786" on="0"/>
        <pt x="686" y="1802" on="1"/>
        <pt x="642" y="1832" on="0"/>
        <pt x="569" y="1832" on="1"/>
        <pt x="508" y="1832" on="0"/>
        <pt x="378" y="1800" on="0"/>
        <pt x="299" y="1763" on="1"/>
        <pt x="299" y="1927" on="1"/>
        <pt x="331" y="1937" on="0"/>
        <pt x="412" y="1956" on="0"/>
        <pt x="445" y="1961" on="1"/>
        <pt x="503" y="1972" on="0"/>
        <pt x="587" y="1972" on="1"/>
        <pt x="668" y="1972" on="0"/>
        <pt x="799" y="1941" on="0"/>
        <pt x="845" y="1909" on="1"/>
        <pt x="892" y="1877" on="0"/>
        <pt x="938" y="1793" on="0"/>
        <pt x="938" y="1753" on="1"/>
        <pt x="938" y="1680" on="0"/>
        <pt x="773" y="1478" on="0"/>
        <pt x="583" y="1330" on="1"/>
        <pt x="555" y="1308" on="0"/>
        <pt x="537" y="1294" on="0"/>
        <pt x="534" y="1291" on="0"/>
        <pt x="522" y="1282" on="0"/>
        <pt x="500" y="1265" on="1"/>
        <pt x="940" y="1265" on="1"/>
        <pt x="940" y="1120" on="1"/>
        <pt x="274" y="1120" on="1"/>
      </contour>
    </TTGlyph>
    <TTGlyph name="uni00B3" xMin="287" yMin="1113" xMax="963" yMax="1980">
      <contour>
        <pt x="588" y="1113" on="1"/>
        <pt x="548" y="1113" on="0"/>
        <pt x="474" y="1119" on="0"/>
        <pt x="436" y="1124" on="1"/>
        <pt x="362" y="1134" on="0"/>
        <pt x="287" y="1154" on="1"/>
        <pt x="287" y="1308" on="1"/>
        <pt x="350" y="1283" on="0"/>
        <pt x="430" y="1267" on="1"/>
        <pt x="509" y="1253" on="0"/>
        <pt x="580" y="1253" on="1"/>
        <pt x="630" y="1253" on="0"/>
        <pt x="695" y="1269" on="0"/>
        <pt x="719" y="1285" on="1"/>
        <pt x="766" y="1317" on="0"/>
        <pt x="766" y="1374" on="1"/>
        <pt x="766" y="1434" on="0"/>
        <pt x="668" y="1502" on="0"/>
        <pt x="582" y="1502" on="1"/>
        <pt x="471" y="1502" on="1"/>
        <pt x="471" y="1648" on="1"/>
        <pt x="582" y="1648" on="1"/>
        <pt x="656" y="1648" on="0"/>
        <pt x="699" y="1673" on="1"/>
        <pt x="741" y="1698" on="0"/>
        <pt x="741" y="1743" on="1"/>
        <pt x="741" y="1762" on="0"/>
        <pt x="724" y="1799" on="0"/>
        <pt x="702" y="1813" on="1"/>
        <pt x="662" y="1838" on="0"/>
        <pt x="586" y="1838" on="1"/>
        <pt x="525" y="1838" on="0"/>
        <pt x="384" y="1815" on="0"/>
        <pt x="317" y="1793" on="1"/>
        <pt x="317" y="1945" on="1"/>
        <pt x="349" y="1953" on="0"/>
        <pt x="419" y="1966" on="0"/>
        <pt x="456" y="1971" on="1"/>
        <pt x="491" y="1976" on="0"/>
        <pt x="559" y="1980" on="0"/>
        <pt x="591" y="1980" on="1"/>
        <pt x="667" y="1980" on="0"/>
        <pt x="799" y="1953" on="0"/>
        <pt x="847" y="1922" on="1"/>
        <pt x="938" y="1863" on="0"/>
        <pt x="938" y="1762" on="1"/>
        <pt x="938" y="1615" on="0"/>
        <pt x="735" y="1580" on="1"/>
        <pt x="846" y="1565" on="0"/>
        <pt x="905" y="1509" on="1"/>
        <pt x="963" y="1454" on="0"/>
        <pt x="963" y="1360" on="1"/>
        <pt x="963" y="1240" on="0"/>
        <pt x="867" y="1177" on="1"/>
        <pt x="770" y="1113" on="0"/>
      </contour>
    </TTGlyph>
    <TTGlyph name="uni00B4" xMin="469" yMin="1262" xMax="1034" yMax="1638">
      <contour>
        <pt x="752" y="1638" on="1"/>
        <pt x="1034" y="1638" on="1"/>
        <pt x="666" y="1262" on="1"/>
        <pt x="469" y="1262" on="1"/>
      </contour>
    </TTGlyph>
    <TTGlyph name="uni00B5" xMin="154" yMin="-428" xMax="1168" yMax="1120">
      <contour>
        <pt x="154" y="1120" on="1"/>
        <pt x="441" y="1120" on="1"/>
        <pt x="441" y="440" on="1"/>
        <pt x="441" y="328" on="0"/>
        <pt x="482" y="269" on="1"/>
        <pt x="502" y="241" on="0"/>
        <pt x="561" y="211" on="0"/>
        <pt x="604" y="211" on="1"/>
        <pt x="686" y="211" on="0"/>
        <pt x="726" y="268" on="1"/>
        <pt x="766" y="323" on="0"/>
        <pt x="766" y="440" on="1"/>
        <pt x="766" y="1120" on="1"/>
        <pt x="1055" y="1120" on="1"/>
        <pt x="1055" y="344" on="1"/>
        <pt x="1055" y="276" on="0"/>
        <pt x="1069" y="242" on="1"/>
        <pt x="1082" y="211" on="0"/>
        <pt x="1113" y="211" on="1"/>
        <pt x="1124" y="211" on="0"/>
        <pt x="1140" y="217" on="1"/>
        <pt x="1152" y="222" on="0"/>
        <pt x="1168" y="233" on="1"/>
        <pt x="1168" y="16" on="1"/>
        <pt x="1121" y="-8" on="0"/>
        <pt x="1088" y="-18" on="1"/>
        <pt x="1049" y="-29" on="0"/>
        <pt x="1014" y="-29" on="1"/>
        <pt x="975" y="-29" on="0"/>
        <pt x="920" y="-8" on="0"/>
        <pt x="899" y="9" on="1"/>
        <pt x="873" y="30" on="0"/>
        <pt x="840" y="88" on="0"/>
        <pt x="826" y="129" on="1"/>
        <pt x="789" y="52" on="0"/>
        <pt x="734" y="11" on="1"/>
        <pt x="679" y="-29" on="0"/>
        <pt x="608" y="-29" on="1"/>
        <pt x="550" y="-29" on="0"/>
        <pt x="509" y="-6" on="1"/>
        <pt x="466" y="17" on="0"/>
        <pt x="441" y="66" on="1"/>
        <pt x="443" y="-428" on="1"/>
        <pt x="154" y="-428" on="1"/>
      </contour>
    </TTGlyph>
    <TTGlyph name="uni00B6" xMin="70" yMin="-197" xMax="1065" yMax="1493">
      <contour>
        <pt x="496" y="649" on="1"/>
        <pt x="389" y="663" on="0"/>
        <pt x="236" y="730" on="0"/>
        <pt x="181" y="784" on="1"/>
        <pt x="70" y="894" on="0"/>
        <pt x="70" y="1070" on="1"/>
        <pt x="70" y="1262" on="0"/>
        <pt x="200" y="1377" on="1"/>
        <pt x="331" y="1493" on="0"/>
        <pt x="545" y="1493" on="1"/>
        <pt x="1065" y="1493" on="1"/>
        <pt x="1065" y="-197" on="1"/>
        <pt x="874" y="-197" on="1"/>
        <pt x="874" y="1346" on="1"/>
        <pt x="684" y="1346" on="1"/>
        <pt x="684" y="-197" on="1"/>
        <pt x="496" y="-197" on="1"/>
      </contour>
    </TTGlyph>
    <TTGlyph name="uni00B7" xMin="454" yMin="576" xMax="778" yMax="914">
      <contour>
        <pt x="616" y="576" on="1"/>
        <pt x="548" y="576" on="0"/>
        <pt x="454" y="670" on="0"/>
        <pt x="454" y="745" on="1"/>
        <pt x="454" y="820" on="0"/>
        <pt x="548" y="914" on="0"/>
        <pt x="616" y="914" on="1"/>
        <pt x="684" y="914" on="0"/>
        <pt x="778" y="820" on="0"/>
        <pt x="778" y="745" on="1"/>
        <pt x="778" y="670" on="0"/>
        <pt x="684" y="576" on="0"/>
      </contour>
    </TTGlyph>
    <TTGlyph name="uni00B8" xMin="367" yMin="-401" xMax="819" yMax="0">
      <contour>
        <pt x="573" y="-401" on="1"/>
        <pt x="550" y="-401" on="0"/>
        <pt x="494" y="-398" on="0"/>
        <pt x="471" y="-395" on="1"/>
        <pt x="434" y="-391" on="0"/>
        <pt x="392" y="-381" on="0"/>
        <pt x="367" y="-375" on="1"/>
        <pt x="367" y="-219" on="1"/>
        <pt x="390" y="-227" on="0"/>
        <pt x="433" y="-240" on="0"/>
        <pt x="454" y="-245" on="1"/>
        <pt x="496" y="-254" on="0"/>
        <pt x="532" y="-254" on="1"/>
        <pt x="588" y="-254" on="0"/>
        <pt x="623" y="-231" on="1"/>
        <pt x="655" y="-208" on="0"/>
        <pt x="655" y="-170" on="1"/>
        <pt x="655" y="-142" on="0"/>
        <pt x="634" y="-101" on="1"/>
        <pt x="623" y="-81" on="0"/>
        <pt x="590" y="-30" on="0"/>
        <pt x="567" y="0" on="1"/>
        <pt x="707" y="0" on="1"/>
        <pt x="737" y="-32" on="0"/>
        <pt x="780" y="-92" on="0"/>
        <pt x="792" y="-115" on="1"/>
        <pt x="819" y="-166" on="0"/>
        <pt x="819" y="-221" on="1"/>
        <pt x="819" y="-310" on="0"/>
        <pt x="757" y="-356" on="1"/>
        <pt x="731" y="-376" on="0"/>
        <pt x="644" y="-401" on="0"/>
      </contour>
    </TTGlyph>
    <TTGlyph name="uni00B9" xMin="313" yMin="1120" xMax="961" yMax="1955">
      <contour>
        <pt x="313" y="1265" on="1"/>
        <pt x="539" y="1265" on="1"/>
        <pt x="539" y="1808" on="1"/>
        <pt x="319" y="1765" on="1"/>
        <pt x="319" y="1914" on="1"/>
        <pt x="541" y="1955" on="1"/>
        <pt x="735" y="1955" on="1"/>
        <pt x="735" y="1265" on="1"/>
        <pt x="961" y="1265" on="1"/>
        <pt x="961" y="1120" on="1"/>
        <pt x="313" y="1120" on="1"/>
      </contour>
    </TTGlyph>
    <TTGlyph name="uni00BA" xMin="274" yMin="428" xMax="999" yMax="1520">
      <contour>
        <pt x="637" y="698" on="1"/>
        <pt x="470" y="698" on="0"/>
        <pt x="274" y="918" on="0"/>
        <pt x="274" y="1107" on="1"/>
        <pt x="274" y="1296" on="0"/>
        <pt x="373" y="1409" on="1"/>
        <pt x="470" y="1520" on="0"/>
        <pt x="637" y="1520" on="1"/>
        <pt x="804" y="1520" on="0"/>
        <pt x="901" y="1409" on="1"/>
        <pt x="999" y="1296" on="0"/>
        <pt x="999" y="1107" on="1"/>
        <pt x="999" y="919" on="0"/>
        <pt x="902" y="809" on="1"/>
        <pt x="804" y="698" on="0"/>
      </contour>
      <contour>
        <pt x="637" y="874" on="1"/>
        <pt x="711" y="874" on="0"/>
        <pt x="753" y="937" on="1"/>
        <pt x="795" y="998" on="0"/>
        <pt x="795" y="1108" on="1"/>
        <pt x="795" y="1217" on="0"/>
        <pt x="753" y="1280" on="1"/>
        <pt x="710" y="1343" on="0"/>
        <pt x="637" y="1343" on="1"/>
        <pt x="596" y="1343" on="0"/>
        <pt x="540" y="1307" on="0"/>
        <pt x="522" y="1281" on="1"/>
        <pt x="479" y="1217" on="0"/>
        <pt x="479" y="1108" on="1"/>
        <pt x="479" y="998" on="0"/>
        <pt x="521" y="937" on="1"/>
        <pt x="540" y="909" on="0"/>
        <pt x="598" y="874" on="0"/>
      </contour>
      <contour>
        <pt x="293" y="598" on="1"/>
        <pt x="981" y="598" on="1"/>
        <pt x="981" y="428" on="1"/>
        <pt x="293" y="428" on="1"/>
      </contour>
    </TTGlyph>
    <TTGlyph name="uni00BB" xMin="253" yMin="141" xMax="1176" yMax="1059">
      <contour>
        <pt x="253" y="379" on="1"/>
        <pt x="529" y="600" on="1"/>
        <pt x="253" y="821" on="1"/>
        <pt x="253" y="1059" on="1"/>
        <pt x="722" y="666" on="1"/>
        <pt x="722" y="535" on="1"/>
        <pt x="253" y="141" on="1"/>
      </contour>
      <contour>
        <pt x="707" y="379" on="1"/>
        <pt x="984" y="600" on="1"/>
        <pt x="707" y="821" on="1"/>
        <pt x="707" y="1059" on="1"/>
        <pt x="1176" y="666" on="1"/>
        <pt x="1176" y="535" on="1"/>
        <pt x="707" y="141" on="1"/>
      </contour>
    </TTGlyph>
    <TTGlyph name="uni00BC" xMin="47" yMin="-270" xMax="1143" yMax="1659">
      <contour>
        <pt x="55" y="969" on="1"/>
        <pt x="281" y="969" on="1"/>
        <pt x="281" y="1512" on="1"/>
        <pt x="61" y="1469" on="1"/>
        <pt x="61" y="1618" on="1"/>
        <pt x="283" y="1659" on="1"/>
        <pt x="477" y="1659" on="1"/>
        <pt x="477" y="969" on="1"/>
        <pt x="703" y="969" on="1"/>
        <pt x="703" y="824" on="1"/>
        <pt x="55" y="824" on="1"/>
      </contour>
      <contour>
        <pt x="47" y="618" on="1"/>
        <pt x="1106" y="881" on="1"/>
        <pt x="1143" y="762" on="1"/>
        <pt x="84" y="500" on="1"/>
      </contour>
      <contour>
        <pt x="823" y="-90" on="1"/>
        <pt x="430" y="-90" on="1"/>
        <pt x="430" y="72" on="1"/>
        <pt x="805" y="565" on="1"/>
        <pt x="1009" y="565" on="1"/>
        <pt x="1009" y="53" on="1"/>
        <pt x="1118" y="53" on="1"/>
        <pt x="1118" y="-90" on="1"/>
        <pt x="1009" y="-90" on="1"/>
        <pt x="1009" y="-270" on="1"/>
        <pt x="823" y="-270" on="1"/>
      </contour>
      <contour>
        <pt x="823" y="53" on="1"/>
        <pt x="823" y="383" on="1"/>
        <pt x="573" y="53" on="1"/>
      </contour>
    </TTGlyph>
    <TTGlyph name="uni00BD" xMin="47" yMin="-270" xMax="1143" yMax="1659">
      <contour>
        <pt x="55" y="969" on="1"/>
        <pt x="281" y="969" on="1"/>
        <pt x="281" y="1512" on="1"/>
        <pt x="61" y="1469" on="1"/>
        <pt x="61" y="1618" on="1"/>
        <pt x="283" y="1659" on="1"/>
        <pt x="477" y="1659" on="1"/>
        <pt x="477" y="969" on="1"/>
        <pt x="703" y="969" on="1"/>
        <pt x="703" y="824" on="1"/>
        <pt x="55" y="824" on="1"/>
      </contour>
      <contour>
        <pt x="47" y="618" on="1"/>
        <pt x="1106" y="881" on="1"/>
        <pt x="1143" y="762" on="1"/>
        <pt x="84" y="500" on="1"/>
      </contour>
      <contour>
        <pt x="475" y="-129" on="1"/>
        <pt x="501" y="-107" on="0"/>
        <pt x="571" y="-49" on="0"/>
        <pt x="616" y="-11" on="1"/>
        <pt x="775" y="122" on="0"/>
        <pt x="930" y="290" on="0"/>
        <pt x="930" y="337" on="1"/>
        <pt x="930" y="354" on="0"/>
        <pt x="910" y="396" on="0"/>
        <pt x="887" y="412" on="1"/>
        <pt x="844" y="442" on="0"/>
        <pt x="770" y="442" on="1"/>
        <pt x="708" y="442" on="0"/>
        <pt x="580" y="410" on="0"/>
        <pt x="500" y="373" on="1"/>
        <pt x="500" y="537" on="1"/>
        <pt x="532" y="547" on="0"/>
        <pt x="613" y="566" on="0"/>
        <pt x="646" y="571" on="1"/>
        <pt x="704" y="582" on="0"/>
        <pt x="788" y="582" on="1"/>
        <pt x="869" y="582" on="0"/>
        <pt x="1000" y="551" on="0"/>
        <pt x="1046" y="519" on="1"/>
        <pt x="1093" y="487" on="0"/>
        <pt x="1139" y="403" on="0"/>
        <pt x="1139" y="363" on="1"/>
        <pt x="1139" y="290" on="0"/>
        <pt x="974" y="88" on="0"/>
        <pt x="784" y="-60" on="1"/>
        <pt x="756" y="-82" on="0"/>
        <pt x="738" y="-96" on="0"/>
        <pt x="735" y="-99" on="0"/>
        <pt x="723" y="-108" on="0"/>
        <pt x="701" y="-125" on="1"/>
        <pt x="1141" y="-125" on="1"/>
        <pt x="1141" y="-270" on="1"/>
        <pt x="475" y="-270" on="1"/>
      </contour>
    </TTGlyph>
    <TTGlyph name="uni00BE" xMin="47" yMin="-270" xMax="1143" yMax="1676">
      <contour>
        <pt x="361" y="809" on="1"/>
        <pt x="321" y="809" on="0"/>
        <pt x="247" y="815" on="0"/>
        <pt x="209" y="820" on="1"/>
        <pt x="135" y="830" on="0"/>
        <pt x="60" y="850" on="1"/>
        <pt x="60" y="1004" on="1"/>
        <pt x="123" y="979" on="0"/>
        <pt x="203" y="963" on="1"/>
        <pt x="282" y="949" on="0"/>
        <pt x="353" y="949" on="1"/>
        <pt x="403" y="949" on="0"/>
        <pt x="468" y="965" on="0"/>
        <pt x="492" y="981" on="1"/>
        <pt x="539" y="1013" on="0"/>
        <pt x="539" y="1070" on="1"/>
        <pt x="539" y="1130" on="0"/>
        <pt x="441" y="1198" on="0"/>
        <pt x="355" y="1198" on="1"/>
        <pt x="244" y="1198" on="1"/>
        <pt x="244" y="1344" on="1"/>
        <pt x="355" y="1344" on="1"/>
        <pt x="429" y="1344" on="0"/>
        <pt x="472" y="1369" on="1"/>
        <pt x="514" y="1394" on="0"/>
        <pt x="514" y="1439" on="1"/>
        <pt x="514" y="1458" on="0"/>
        <pt x="497" y="1495" on="0"/>
        <pt x="475" y="1509" on="1"/>
        <pt x="435" y="1534" on="0"/>
        <pt x="359" y="1534" on="1"/>
        <pt x="298" y="1534" on="0"/>
        <pt x="157" y="1511" on="0"/>
        <pt x="90" y="1489" on="1"/>
        <pt x="90" y="1641" on="1"/>
        <pt x="122" y="1649" on="0"/>
        <pt x="192" y="1662" on="0"/>
        <pt x="229" y="1667" on="1"/>
        <pt x="264" y="1672" on="0"/>
        <pt x="332" y="1676" on="0"/>
        <pt x="364" y="1676" on="1"/>
        <pt x="440" y="1676" on="0"/>
        <pt x="572" y="1649" on="0"/>
        <pt x="620" y="1618" on="1"/>
        <pt x="711" y="1559" on="0"/>
        <pt x="711" y="1458" on="1"/>
        <pt x="711" y="1311" on="0"/>
        <pt x="508" y="1276" on="1"/>
        <pt x="619" y="1261" on="0"/>
        <pt x="678" y="1205" on="1"/>
        <pt x="736" y="1150" on="0"/>
        <pt x="736" y="1056" on="1"/>
        <pt x="736" y="936" on="0"/>
        <pt x="640" y="873" on="1"/>
        <pt x="543" y="809" on="0"/>
      </contour>
      <contour>
        <pt x="47" y="618" on="1"/>
        <pt x="1106" y="881" on="1"/>
        <pt x="1143" y="762" on="1"/>
        <pt x="84" y="500" on="1"/>
      </contour>
      <contour>
        <pt x="823" y="-90" on="1"/>
        <pt x="430" y="-90" on="1"/>
        <pt x="430" y="72" on="1"/>
        <pt x="805" y="565" on="1"/>
        <pt x="1009" y="565" on="1"/>
        <pt x="1009" y="53" on="1"/>
        <pt x="1118" y="53" on="1"/>
        <pt x="1118" y="-90" on="1"/>
        <pt x="1009" y="-90" on="1"/>
        <pt x="1009" y="-270" on="1"/>
        <pt x="823" y="-270" on="1"/>
      </contour>
      <contour>
        <pt x="823" y="53" on="1"/>
        <pt x="823" y="383" on="1"/>
        <pt x="573" y="53" on="1"/>
      </contour>
    </TTGlyph>
    <TTGlyph name="uni00BF" xMin="176" yMin="-27" xMax="1006" yMax="1556">
      <contour>
        <pt x="667" y="1222" on="1"/>
        <pt x="600" y="1222" on="0"/>
        <pt x="506" y="1316" on="0"/>
        <pt x="506" y="1389" on="1"/>
        <pt x="506" y="1464" on="0"/>
        <pt x="553" y="1511" on="1"/>
        <pt x="577" y="1534" on="0"/>
        <pt x="637" y="1556" on="0"/>
        <pt x="667" y="1556" on="1"/>
        <pt x="684" y="1556" on="0"/>
        <pt x="700" y="1553" on="1"/>
        <pt x="704" y="1552" on="0"/>
        <pt x="721" y="1548" on="0"/>
        <pt x="729" y="1544" on="1"/>
        <pt x="748" y="1536" on="0"/>
        <pt x="764" y="1526" on="0"/>
        <pt x="781" y="1509" on="1"/>
        <pt x="791" y="1499" on="0"/>
        <pt x="809" y="1473" on="0"/>
        <pt x="816" y="1456" on="1"/>
        <pt x="828" y="1426" on="0"/>
        <pt x="828" y="1390" on="1"/>
        <pt x="828" y="1316" on="0"/>
        <pt x="734" y="1222" on="0"/>
      </contour>
      <contour>
        <pt x="606" y="-27" on="1"/>
        <pt x="406" y="-27" on="0"/>
        <pt x="176" y="163" on="0"/>
        <pt x="176" y="323" on="1"/>
        <pt x="176" y="403" on="0"/>
        <pt x="210" y="468" on="1"/>
        <pt x="227" y="500" on="0"/>
        <pt x="288" y="577" on="0"/>
        <pt x="338" y="625" on="1"/>
        <pt x="426" y="711" on="1"/>
        <pt x="492" y="775" on="0"/>
        <pt x="511" y="817" on="1"/>
        <pt x="530" y="856" on="0"/>
        <pt x="530" y="922" on="1"/>
        <pt x="530" y="926" on="0"/>
        <pt x="531" y="928" on="1"/>
        <pt x="532" y="939" on="0"/>
        <pt x="532" y="959" on="0"/>
        <pt x="532" y="969" on="1"/>
        <pt x="532" y="1092" on="1"/>
        <pt x="799" y="1092" on="1"/>
        <pt x="799" y="938" on="1"/>
        <pt x="799" y="837" on="0"/>
        <pt x="768" y="769" on="1"/>
        <pt x="751" y="731" on="0"/>
        <pt x="696" y="659" on="0"/>
        <pt x="657" y="621" on="1"/>
        <pt x="567" y="532" on="1"/>
        <pt x="527" y="492" on="0"/>
        <pt x="494" y="452" on="0"/>
        <pt x="484" y="434" on="1"/>
        <pt x="461" y="390" on="0"/>
        <pt x="461" y="347" on="1"/>
        <pt x="461" y="213" on="0"/>
        <pt x="642" y="213" on="1"/>
        <pt x="728" y="213" on="0"/>
        <pt x="819" y="249" on="1"/>
        <pt x="867" y="268" on="0"/>
        <pt x="955" y="318" on="0"/>
        <pt x="1006" y="354" on="1"/>
        <pt x="1006" y="86" on="1"/>
        <pt x="957" y="58" on="0"/>
        <pt x="861" y="17" on="0"/>
        <pt x="808" y="2" on="1"/>
        <pt x="758" y="-12" on="0"/>
        <pt x="662" y="-27" on="0"/>
      </contour>
    </TTGlyph>
    <TTGlyph name="uni00BF.case" xMin="176" yMin="-27" xMax="1006" yMax="1564">
      <contour>
        <pt x="662" y="1230" on="1"/>
        <pt x="595" y="1230" on="0"/>
        <pt x="501" y="1324" on="0"/>
        <pt x="501" y="1397" on="1"/>
        <pt x="501" y="1472" on="0"/>
        <pt x="548" y="1519" on="1"/>
        <pt x="572" y="1542" on="0"/>
        <pt x="632" y="1564" on="0"/>
        <pt x="662" y="1564" on="1"/>
        <pt x="678" y="1564" on="0"/>
        <pt x="695" y="1561" on="1"/>
        <pt x="699" y="1560" on="0"/>
        <pt x="716" y="1556" on="0"/>
        <pt x="724" y="1552" on="1"/>
        <pt x="743" y="1544" on="0"/>
        <pt x="760" y="1534" on="0"/>
        <pt x="776" y="1517" on="1"/>
        <pt x="786" y="1507" on="0"/>
        <pt x="804" y="1481" on="0"/>
        <pt x="811" y="1464" on="1"/>
        <pt x="823" y="1434" on="0"/>
        <pt x="823" y="1398" on="1"/>
        <pt x="823" y="1324" on="0"/>
        <pt x="729" y="1230" on="0"/>
      </contour>
      <contour>
        <pt x="602" y="-27" on="1"/>
        <pt x="407" y="-27" on="0"/>
        <pt x="176" y="160" on="0"/>
        <pt x="176" y="324" on="1"/>
        <pt x="176" y="400" on="0"/>
        <pt x="243" y="531" on="0"/>
        <pt x="338" y="625" on="1"/>
        <pt x="426" y="711" on="1"/>
        <pt x="491" y="774" on="0"/>
        <pt x="530" y="857" on="0"/>
        <pt x="530" y="922" on="1"/>
        <pt x="530" y="926" on="0"/>
        <pt x="531" y="928" on="1"/>
        <pt x="532" y="939" on="0"/>
        <pt x="532" y="959" on="0"/>
        <pt x="532" y="969" on="1"/>
        <pt x="532" y="1092" on="1"/>
        <pt x="799" y="1092" on="1"/>
        <pt x="799" y="938" on="1"/>
        <pt x="799" y="835" on="0"/>
        <pt x="736" y="698" on="0"/>
        <pt x="657" y="621" on="1"/>
        <pt x="567" y="532" on="1"/>
        <pt x="508" y="474" on="0"/>
        <pt x="461" y="396" on="0"/>
        <pt x="461" y="349" on="1"/>
        <pt x="461" y="213" on="0"/>
        <pt x="640" y="213" on="1"/>
        <pt x="808" y="213" on="0"/>
        <pt x="1006" y="354" on="1"/>
        <pt x="1006" y="86" on="1"/>
        <pt x="810" y="-27" on="0"/>
      </contour>
    </TTGlyph>
    <TTGlyph name="uni00C0" xMin="33" yMin="0" xMax="1200" yMax="1852">
      <contour>
        <pt x="283" y="1852" on="1"/>
        <pt x="567" y="1852" on="1"/>
        <pt x="766" y="1588" on="1"/>
        <pt x="569" y="1588" on="1"/>
      </contour>
      <contour>
        <pt x="436" y="1493" on="1"/>
        <pt x="797" y="1493" on="1"/>
        <pt x="1200" y="0" on="1"/>
        <pt x="905" y="0" on="1"/>
        <pt x="813" y="369" on="1"/>
        <pt x="418" y="369" on="1"/>
        <pt x="328" y="0" on="1"/>
        <pt x="33" y="0" on="1"/>
      </contour>
      <contour>
        <pt x="756" y="612" on="1"/>
        <pt x="616" y="1223" on="1"/>
        <pt x="477" y="612" on="1"/>
      </contour>
    </TTGlyph>
    <TTGlyph name="uni00C1" xMin="33" yMin="0" xMax="1200" yMax="1852">
      <contour>
        <pt x="668" y="1852" on="1"/>
        <pt x="952" y="1852" on="1"/>
        <pt x="666" y="1588" on="1"/>
        <pt x="469" y="1588" on="1"/>
      </contour>
      <contour>
        <pt x="436" y="1493" on="1"/>
        <pt x="797" y="1493" on="1"/>
        <pt x="1200" y="0" on="1"/>
        <pt x="905" y="0" on="1"/>
        <pt x="813" y="369" on="1"/>
        <pt x="418" y="369" on="1"/>
        <pt x="328" y="0" on="1"/>
        <pt x="33" y="0" on="1"/>
      </contour>
      <contour>
        <pt x="756" y="612" on="1"/>
        <pt x="616" y="1223" on="1"/>
        <pt x="477" y="612" on="1"/>
      </contour>
    </TTGlyph>
    <TTGlyph name="uni00C2" xMin="33" yMin="0" xMax="1200" yMax="1852">
      <contour>
        <pt x="461" y="1852" on="1"/>
        <pt x="770" y="1852" on="1"/>
        <pt x="993" y="1588" on="1"/>
        <pt x="815" y="1588" on="1"/>
        <pt x="616" y="1749" on="1"/>
        <pt x="418" y="1588" on="1"/>
        <pt x="240" y="1588" on="1"/>
      </contour>
      <contour>
        <pt x="436" y="1493" on="1"/>
        <pt x="797" y="1493" on="1"/>
        <pt x="1200" y="0" on="1"/>
        <pt x="905" y="0" on="1"/>
        <pt x="813" y="369" on="1"/>
        <pt x="418" y="369" on="1"/>
        <pt x="328" y="0" on="1"/>
        <pt x="33" y="0" on="1"/>
      </contour>
      <contour>
        <pt x="756" y="612" on="1"/>
        <pt x="616" y="1223" on="1"/>
        <pt x="477" y="612" on="1"/>
      </contour>
    </TTGlyph>
    <TTGlyph name="uni00C3" xMin="33" yMin="0" xMax="1200" yMax="1854">
      <contour>
        <pt x="268" y="1618" on="1"/>
        <pt x="268" y="1673" on="0"/>
        <pt x="297" y="1760" on="0"/>
        <pt x="322" y="1789" on="1"/>
        <pt x="350" y="1822" on="0"/>
        <pt x="425" y="1854" on="0"/>
        <pt x="466" y="1854" on="1"/>
        <pt x="503" y="1854" on="0"/>
        <pt x="539" y="1842" on="1"/>
        <pt x="553" y="1837" on="0"/>
        <pt x="596" y="1817" on="0"/>
        <pt x="614" y="1805" on="1"/>
        <pt x="674" y="1766" on="1"/>
        <pt x="680" y="1762" on="0"/>
        <pt x="700" y="1751" on="0"/>
        <pt x="715" y="1745" on="1"/>
        <pt x="736" y="1737" on="0"/>
        <pt x="750" y="1737" on="1"/>
        <pt x="786" y="1737" on="0"/>
        <pt x="806" y="1767" on="1"/>
        <pt x="825" y="1795" on="0"/>
        <pt x="825" y="1854" on="1"/>
        <pt x="965" y="1854" on="1"/>
        <pt x="965" y="1850" on="0"/>
        <pt x="963" y="1828" on="0"/>
        <pt x="963" y="1826" on="1"/>
        <pt x="963" y="1718" on="0"/>
        <pt x="910" y="1653" on="1"/>
        <pt x="881" y="1618" on="0"/>
        <pt x="809" y="1588" on="0"/>
        <pt x="768" y="1588" on="1"/>
        <pt x="734" y="1588" on="0"/>
        <pt x="696" y="1599" on="1"/>
        <pt x="657" y="1611" on="0"/>
        <pt x="618" y="1637" on="1"/>
        <pt x="564" y="1671" on="1"/>
        <pt x="562" y="1672" on="0"/>
        <pt x="557" y="1676" on="0"/>
        <pt x="552" y="1678" on="1"/>
        <pt x="531" y="1689" on="0"/>
        <pt x="496" y="1704" on="0"/>
        <pt x="479" y="1704" on="1"/>
        <pt x="448" y="1704" on="0"/>
        <pt x="428" y="1674" on="1"/>
        <pt x="408" y="1642" on="0"/>
        <pt x="408" y="1594" on="1"/>
        <pt x="408" y="1588" on="1"/>
        <pt x="268" y="1588" on="1"/>
      </contour>
      <contour>
        <pt x="436" y="1493" on="1"/>
        <pt x="797" y="1493" on="1"/>
        <pt x="1200" y="0" on="1"/>
        <pt x="905" y="0" on="1"/>
        <pt x="813" y="369" on="1"/>
        <pt x="418" y="369" on="1"/>
        <pt x="328" y="0" on="1"/>
        <pt x="33" y="0" on="1"/>
      </contour>
      <contour>
        <pt x="756" y="612" on="1"/>
        <pt x="616" y="1223" on="1"/>
        <pt x="477" y="612" on="1"/>
      </contour>
    </TTGlyph>
    <TTGlyph name="uni00C4" xMin="33" yMin="0" xMax="1200" yMax="1852">
      <contour>
        <pt x="331" y="1606" on="1"/>
        <pt x="301" y="1606" on="0"/>
        <pt x="301" y="1636" on="1"/>
        <pt x="301" y="1822" on="1"/>
        <pt x="301" y="1852" on="0"/>
        <pt x="331" y="1852" on="1"/>
        <pt x="507" y="1852" on="1"/>
        <pt x="537" y="1852" on="0"/>
        <pt x="537" y="1822" on="1"/>
        <pt x="537" y="1636" on="1"/>
        <pt x="537" y="1606" on="0"/>
        <pt x="507" y="1606" on="1"/>
      </contour>
      <contour>
        <pt x="726" y="1606" on="1"/>
        <pt x="696" y="1606" on="0"/>
        <pt x="696" y="1636" on="1"/>
        <pt x="696" y="1822" on="1"/>
        <pt x="696" y="1852" on="0"/>
        <pt x="726" y="1852" on="1"/>
        <pt x="902" y="1852" on="1"/>
        <pt x="932" y="1852" on="0"/>
        <pt x="932" y="1822" on="1"/>
        <pt x="932" y="1636" on="1"/>
        <pt x="932" y="1606" on="0"/>
        <pt x="902" y="1606" on="1"/>
      </contour>
      <contour>
        <pt x="436" y="1493" on="1"/>
        <pt x="797" y="1493" on="1"/>
        <pt x="1200" y="0" on="1"/>
        <pt x="905" y="0" on="1"/>
        <pt x="813" y="369" on="1"/>
        <pt x="418" y="369" on="1"/>
        <pt x="328" y="0" on="1"/>
        <pt x="33" y="0" on="1"/>
      </contour>
      <contour>
        <pt x="756" y="612" on="1"/>
        <pt x="616" y="1223" on="1"/>
        <pt x="477" y="612" on="1"/>
      </contour>
    </TTGlyph>
    <TTGlyph name="uni00C5" xMin="33" yMin="0" xMax="1200" yMax="1901">
      <contour>
        <pt x="418" y="1421" on="1"/>
        <pt x="373" y="1460" on="0"/>
        <pt x="353" y="1507" on="1"/>
        <pt x="342" y="1531" on="0"/>
        <pt x="332" y="1586" on="0"/>
        <pt x="332" y="1614" on="1"/>
        <pt x="332" y="1677" on="0"/>
        <pt x="378" y="1781" on="0"/>
        <pt x="415" y="1818" on="1"/>
        <pt x="450" y="1853" on="0"/>
        <pt x="554" y="1901" on="0"/>
        <pt x="617" y="1901" on="1"/>
        <pt x="735" y="1901" on="0"/>
        <pt x="819" y="1817" on="1"/>
        <pt x="855" y="1781" on="0"/>
        <pt x="901" y="1678" on="0"/>
        <pt x="901" y="1615" on="1"/>
        <pt x="901" y="1586" on="0"/>
        <pt x="891" y="1530" on="0"/>
        <pt x="880" y="1507" on="1"/>
        <pt x="859" y="1459" on="0"/>
        <pt x="815" y="1421" on="1"/>
        <pt x="1200" y="0" on="1"/>
        <pt x="905" y="0" on="1"/>
        <pt x="813" y="369" on="1"/>
        <pt x="418" y="369" on="1"/>
        <pt x="328" y="0" on="1"/>
        <pt x="33" y="0" on="1"/>
      </contour>
      <contour>
        <pt x="618" y="1485" on="1"/>
        <pt x="671" y="1485" on="0"/>
        <pt x="710" y="1524" on="1"/>
        <pt x="748" y="1562" on="0"/>
        <pt x="748" y="1616" on="1"/>
        <pt x="748" y="1670" on="0"/>
        <pt x="709" y="1709" on="1"/>
        <pt x="668" y="1747" on="0"/>
        <pt x="617" y="1747" on="1"/>
        <pt x="562" y="1747" on="0"/>
        <pt x="524" y="1709" on="1"/>
        <pt x="485" y="1670" on="0"/>
        <pt x="485" y="1616" on="1"/>
        <pt x="485" y="1587" on="0"/>
        <pt x="506" y="1541" on="0"/>
        <pt x="523" y="1524" on="1"/>
        <pt x="562" y="1485" on="0"/>
      </contour>
      <contour>
        <pt x="756" y="612" on="1"/>
        <pt x="616" y="1223" on="1"/>
        <pt x="477" y="612" on="1"/>
      </contour>
    </TTGlyph>
    <TTGlyph name="uni00C6" xMin="0" yMin="0" xMax="1180" yMax="1493">
      <contour>
        <pt x="358" y="1493" on="1"/>
        <pt x="1161" y="1493" on="1"/>
        <pt x="1161" y="1233" on="1"/>
        <pt x="870" y="1233" on="1"/>
        <pt x="870" y="922" on="1"/>
        <pt x="1130" y="922" on="1"/>
        <pt x="1130" y="662" on="1"/>
        <pt x="870" y="662" on="1"/>
        <pt x="870" y="260" on="1"/>
        <pt x="1180" y="260" on="1"/>
        <pt x="1180" y="0" on="1"/>
        <pt x="616" y="0" on="1"/>
        <pt x="616" y="362" on="1"/>
        <pt x="334" y="362" on="1"/>
        <pt x="248" y="0" on="1"/>
        <pt x="0" y="0" on="1"/>
      </contour>
      <contour>
        <pt x="616" y="598" on="1"/>
        <pt x="616" y="1233" on="1"/>
        <pt x="537" y="1233" on="1"/>
        <pt x="389" y="598" on="1"/>
      </contour>
    </TTGlyph>
    <TTGlyph name="uni00C7" xMin="141" yMin="-401" xMax="1070" yMax="1520">
      <contour>
        <pt x="774" y="1255" on="1"/>
        <pt x="614" y="1255" on="0"/>
        <pt x="531" y="1127" on="1"/>
        <pt x="448" y="996" on="0"/>
        <pt x="448" y="745" on="1"/>
        <pt x="448" y="493" on="0"/>
        <pt x="531" y="365" on="1"/>
        <pt x="614" y="236" on="0"/>
        <pt x="774" y="236" on="1"/>
        <pt x="851" y="236" on="0"/>
        <pt x="923" y="269" on="1"/>
        <pt x="958" y="285" on="0"/>
        <pt x="1027" y="332" on="0"/>
        <pt x="1070" y="371" on="1"/>
        <pt x="1070" y="43" on="1"/>
        <pt x="1000" y="7" on="0"/>
        <pt x="923" y="-11" on="1"/>
        <pt x="902" y="-16" on="0"/>
        <pt x="859" y="-23" on="0"/>
        <pt x="836" y="-25" on="1"/>
        <pt x="877" y="-76" on="0"/>
        <pt x="898" y="-115" on="1"/>
        <pt x="925" y="-166" on="0"/>
        <pt x="925" y="-221" on="1"/>
        <pt x="925" y="-310" on="0"/>
        <pt x="863" y="-356" on="1"/>
        <pt x="837" y="-376" on="0"/>
        <pt x="750" y="-401" on="0"/>
        <pt x="677" y="-401" on="1"/>
        <pt x="626" y="-401" on="0"/>
        <pt x="577" y="-395" on="1"/>
        <pt x="539" y="-390" on="0"/>
        <pt x="496" y="-380" on="0"/>
        <pt x="473" y="-375" on="1"/>
        <pt x="473" y="-219" on="1"/>
        <pt x="496" y="-227" on="0"/>
        <pt x="539" y="-240" on="0"/>
        <pt x="560" y="-245" on="1"/>
        <pt x="602" y="-254" on="0"/>
        <pt x="638" y="-254" on="1"/>
        <pt x="694" y="-254" on="0"/>
        <pt x="729" y="-231" on="1"/>
        <pt x="761" y="-208" on="0"/>
        <pt x="761" y="-170" on="1"/>
        <pt x="761" y="-142" on="0"/>
        <pt x="740" y="-101" on="1"/>
        <pt x="732" y="-85" on="0"/>
        <pt x="709" y="-48" on="0"/>
        <pt x="693" y="-26" on="1"/>
        <pt x="440" y="-7" on="0"/>
        <pt x="300" y="170" on="1"/>
        <pt x="141" y="370" on="0"/>
        <pt x="141" y="745" on="1"/>
        <pt x="141" y="1122" on="0"/>
        <pt x="300" y="1321" on="1"/>
        <pt x="460" y="1520" on="0"/>
        <pt x="759" y="1520" on="1"/>
        <pt x="846" y="1520" on="0"/>
        <pt x="924" y="1502" on="1"/>
        <pt x="1002" y="1484" on="0"/>
        <pt x="1070" y="1448" on="1"/>
        <pt x="1070" y="1120" on="1"/>
        <pt x="1025" y="1162" on="0"/>
        <pt x="954" y="1209" on="0"/>
        <pt x="922" y="1223" on="1"/>
        <pt x="884" y="1240" on="0"/>
        <pt x="811" y="1255" on="0"/>
      </contour>
    </TTGlyph>
    <TTGlyph name="uni00C8" xMin="168" yMin="0" xMax="1098" yMax="1842">
      <contour>
        <pt x="314" y="1842" on="1"/>
        <pt x="598" y="1842" on="1"/>
        <pt x="797" y="1578" on="1"/>
        <pt x="600" y="1578" on="1"/>
      </contour>
      <contour>
        <pt x="168" y="1493" on="1"/>
        <pt x="1098" y="1493" on="1"/>
        <pt x="1098" y="1233" on="1"/>
        <pt x="463" y="1233" on="1"/>
        <pt x="463" y="911" on="1"/>
        <pt x="1038" y="911" on="1"/>
        <pt x="1038" y="651" on="1"/>
        <pt x="463" y="651" on="1"/>
        <pt x="463" y="260" on="1"/>
        <pt x="1098" y="260" on="1"/>
        <pt x="1098" y="0" on="1"/>
        <pt x="168" y="0" on="1"/>
      </contour>
    </TTGlyph>
    <TTGlyph name="uni00C9" xMin="168" yMin="0" xMax="1098" yMax="1841">
      <contour>
        <pt x="699" y="1841" on="1"/>
        <pt x="983" y="1841" on="1"/>
        <pt x="697" y="1577" on="1"/>
        <pt x="500" y="1577" on="1"/>
      </contour>
      <contour>
        <pt x="168" y="1493" on="1"/>
        <pt x="1098" y="1493" on="1"/>
        <pt x="1098" y="1233" on="1"/>
        <pt x="463" y="1233" on="1"/>
        <pt x="463" y="911" on="1"/>
        <pt x="1038" y="911" on="1"/>
        <pt x="1038" y="651" on="1"/>
        <pt x="463" y="651" on="1"/>
        <pt x="463" y="260" on="1"/>
        <pt x="1098" y="260" on="1"/>
        <pt x="1098" y="0" on="1"/>
        <pt x="168" y="0" on="1"/>
      </contour>
    </TTGlyph>
    <TTGlyph name="uni00CA" xMin="168" yMin="0" xMax="1098" yMax="1852">
      <contour>
        <pt x="492" y="1852" on="1"/>
        <pt x="801" y="1852" on="1"/>
        <pt x="1024" y="1588" on="1"/>
        <pt x="846" y="1588" on="1"/>
        <pt x="647" y="1749" on="1"/>
        <pt x="449" y="1588" on="1"/>
        <pt x="271" y="1588" on="1"/>
      </contour>
      <contour>
        <pt x="168" y="1493" on="1"/>
        <pt x="1098" y="1493" on="1"/>
        <pt x="1098" y="1233" on="1"/>
        <pt x="463" y="1233" on="1"/>
        <pt x="463" y="911" on="1"/>
        <pt x="1038" y="911" on="1"/>
        <pt x="1038" y="651" on="1"/>
        <pt x="463" y="651" on="1"/>
        <pt x="463" y="260" on="1"/>
        <pt x="1098" y="260" on="1"/>
        <pt x="1098" y="0" on="1"/>
        <pt x="168" y="0" on="1"/>
      </contour>
    </TTGlyph>
    <TTGlyph name="uni00CB" xMin="168" yMin="0" xMax="1098" yMax="1852">
      <contour>
        <pt x="362" y="1606" on="1"/>
        <pt x="332" y="1606" on="0"/>
        <pt x="332" y="1636" on="1"/>
        <pt x="332" y="1822" on="1"/>
        <pt x="332" y="1852" on="0"/>
        <pt x="362" y="1852" on="1"/>
        <pt x="538" y="1852" on="1"/>
        <pt x="568" y="1852" on="0"/>
        <pt x="568" y="1822" on="1"/>
        <pt x="568" y="1636" on="1"/>
        <pt x="568" y="1606" on="0"/>
        <pt x="538" y="1606" on="1"/>
      </contour>
      <contour>
        <pt x="757" y="1606" on="1"/>
        <pt x="727" y="1606" on="0"/>
        <pt x="727" y="1636" on="1"/>
        <pt x="727" y="1822" on="1"/>
        <pt x="727" y="1852" on="0"/>
        <pt x="757" y="1852" on="1"/>
        <pt x="933" y="1852" on="1"/>
        <pt x="963" y="1852" on="0"/>
        <pt x="963" y="1822" on="1"/>
        <pt x="963" y="1636" on="1"/>
        <pt x="963" y="1606" on="0"/>
        <pt x="933" y="1606" on="1"/>
      </contour>
      <contour>
        <pt x="168" y="1493" on="1"/>
        <pt x="1098" y="1493" on="1"/>
        <pt x="1098" y="1233" on="1"/>
        <pt x="463" y="1233" on="1"/>
        <pt x="463" y="911" on="1"/>
        <pt x="1038" y="911" on="1"/>
        <pt x="1038" y="651" on="1"/>
        <pt x="463" y="651" on="1"/>
        <pt x="463" y="260" on="1"/>
        <pt x="1098" y="260" on="1"/>
        <pt x="1098" y="0" on="1"/>
        <pt x="168" y="0" on="1"/>
      </contour>
    </TTGlyph>
    <TTGlyph name="uni00CC" xMin="172" yMin="0" xMax="1061" yMax="1852">
      <contour>
        <pt x="283" y="1852" on="1"/>
        <pt x="567" y="1852" on="1"/>
        <pt x="766" y="1588" on="1"/>
        <pt x="569" y="1588" on="1"/>
      </contour>
      <contour>
        <pt x="172" y="260" on="1"/>
        <pt x="469" y="260" on="1"/>
        <pt x="469" y="1233" on="1"/>
        <pt x="172" y="1233" on="1"/>
        <pt x="172" y="1493" on="1"/>
        <pt x="1061" y="1493" on="1"/>
        <pt x="1061" y="1233" on="1"/>
        <pt x="764" y="1233" on="1"/>
        <pt x="764" y="260" on="1"/>
        <pt x="1061" y="260" on="1"/>
        <pt x="1061" y="0" on="1"/>
        <pt x="172" y="0" on="1"/>
      </contour>
    </TTGlyph>
    <TTGlyph name="uni00CD" xMin="172" yMin="0" xMax="1061" yMax="1852">
      <contour>
        <pt x="668" y="1852" on="1"/>
        <pt x="952" y="1852" on="1"/>
        <pt x="666" y="1588" on="1"/>
        <pt x="469" y="1588" on="1"/>
      </contour>
      <contour>
        <pt x="172" y="260" on="1"/>
        <pt x="469" y="260" on="1"/>
        <pt x="469" y="1233" on="1"/>
        <pt x="172" y="1233" on="1"/>
        <pt x="172" y="1493" on="1"/>
        <pt x="1061" y="1493" on="1"/>
        <pt x="1061" y="1233" on="1"/>
        <pt x="764" y="1233" on="1"/>
        <pt x="764" y="260" on="1"/>
        <pt x="1061" y="260" on="1"/>
        <pt x="1061" y="0" on="1"/>
        <pt x="172" y="0" on="1"/>
      </contour>
    </TTGlyph>
</ttFont>
